<svg xmlns="http://www.w3.org/2000/svg" width="227.592" height="204.02" viewBox="0 0 227.592 204.02">
  <g id="Group_7243" data-name="Group 7243" transform="translate(-22.927 -62.8)">
    <g id="Background_Complete" data-name="Background Complete" transform="translate(22.927 177.784)">
      <g id="Group_6902" data-name="Group 6902" transform="translate(72.378 44.537)">
        <g id="Group_6901" data-name="Group 6901">
          <rect id="Rectangle_287" data-name="Rectangle 287" width="52.32" height="40.353" transform="translate(0 0.109)" fill="#ebebeb"/>
          <g id="Group_6900" data-name="Group 6900" transform="translate(39.08)">
            <path id="Path_5818" data-name="Path 5818" d="M244.94,418.711c-.072,0-.131-9-.131-20.088s.059-20.09.131-20.09.131,8.993.131,20.09S245.012,418.711,244.94,418.711Z" transform="translate(-244.809 -378.533)" fill="#e0e0e0"/>
          </g>
          <rect id="Rectangle_288" data-name="Rectangle 288" width="4.011" height="4.534" transform="translate(43.872 31.277)" fill="#fafafa"/>
          <rect id="Rectangle_289" data-name="Rectangle 289" width="5.943" height="8.611" transform="translate(15.961 0.213)" fill="#e0e0e0"/>
          <rect id="Rectangle_290" data-name="Rectangle 290" width="5.943" height="8.611" transform="translate(15.961 31.732)" fill="#e0e0e0"/>
        </g>
      </g>
      <g id="Group_6905" data-name="Group 6905" transform="translate(153.659 34.391)">
        <g id="Group_6904" data-name="Group 6904">
          <rect id="Rectangle_291" data-name="Rectangle 291" width="65.969" height="50.881" transform="translate(0 0.137)" fill="#ebebeb"/>
          <g id="Group_6903" data-name="Group 6903" transform="translate(49.31)">
            <path id="Path_5819" data-name="Path 5819" d="M427.114,408.995c-.072,0-.131-11.341-.131-25.328s.058-25.331.131-25.331.131,11.339.131,25.331S427.186,408.995,427.114,408.995Z" transform="translate(-426.983 -358.336)" fill="#e0e0e0"/>
          </g>
          <rect id="Rectangle_292" data-name="Rectangle 292" width="5.058" height="5.717" transform="translate(55.318 39.437)" fill="#fafafa"/>
          <rect id="Rectangle_293" data-name="Rectangle 293" width="7.493" height="10.857" transform="translate(20.125 0.269)" fill="#e0e0e0"/>
          <rect id="Rectangle_294" data-name="Rectangle 294" width="7.493" height="10.857" transform="translate(20.125 40.01)" fill="#e0e0e0"/>
        </g>
      </g>
      <g id="Group_6948" data-name="Group 6948">
        <g id="Group_6927" data-name="Group 6927">
          <g id="Group_6908" data-name="Group 6908" transform="translate(26.202 34.711)">
            <g id="Group_6907" data-name="Group 6907">
              <g id="Group_6906" data-name="Group 6906">
                <path id="Path_5820" data-name="Path 5820" d="M78.289,360.287a14.148,14.148,0,0,1,8.778-1.066,7.293,7.293,0,0,1,4.336,1.935c1.084,1.2,1.289,3.3.045,4.329a4.153,4.153,0,0,1-2.734.694c-2.32-.027-4.9-.436-6.749.961-1.058.8-1.762,2.12-3.027,2.512a2.989,2.989,0,0,1-3.289-1.463,5.11,5.11,0,0,1-.372-3.771A5.757,5.757,0,0,1,78.289,360.287Z" transform="translate(-75.088 -358.973)" fill="#ebebeb"/>
              </g>
            </g>
          </g>
          <g id="Group_6911" data-name="Group 6911" transform="translate(21.745)">
            <g id="Group_6910" data-name="Group 6910" transform="translate(0)">
              <g id="Group_6909" data-name="Group 6909">
                <path id="Path_5821" data-name="Path 5821" d="M67.756,314.089c1.633,2.331,4.806,1.559,6.277.136s2.093-3.486,2.659-5.453c1.294-4.494,2.6-9.21,1.636-13.786a7.655,7.655,0,0,0-1.761-3.748,4,4,0,0,0-3.792-1.262c-1.6.422-2.595,1.99-3.313,3.48a32.87,32.87,0,0,0-3.248,14.1,11.4,11.4,0,0,0,1.542,6.53" transform="translate(-66.215 -289.872)" fill="#ebebeb"/>
              </g>
            </g>
          </g>
          <g id="Group_6914" data-name="Group 6914" transform="translate(0 7.503)">
            <g id="Group_6913" data-name="Group 6913">
              <g id="Group_6912" data-name="Group 6912">
                <path id="Path_5822" data-name="Path 5822" d="M41.73,324.868a8.485,8.485,0,0,0,1.321-7.808,15.054,15.054,0,0,0-4.624-6.709,24.906,24.906,0,0,0-8.281-4.886,8.831,8.831,0,0,0-3.724-.632,3.91,3.91,0,0,0-3.125,1.891c-.872,1.662-.036,3.679.868,5.323A63.145,63.145,0,0,0,29.6,320.33c1.63,2.1,3.5,4.175,5.982,5.125s5.065.838,6.383-.885" transform="translate(-22.927 -304.808)" fill="#ebebeb"/>
              </g>
            </g>
          </g>
          <g id="Group_6918" data-name="Group 6918" transform="translate(23.146 37.949)">
            <g id="Group_6917" data-name="Group 6917">
              <g id="Group_6916" data-name="Group 6916">
                <g id="Group_6915" data-name="Group 6915">
                  <path id="Path_5823" data-name="Path 5823" d="M69.034,386.861a5.135,5.135,0,0,0,.148-1.059c.075-.771.169-1.74.281-2.892a41.729,41.729,0,0,1,.651-4.241,32.714,32.714,0,0,1,1.542-5.006,18.452,18.452,0,0,1,2.556-4.53,9.537,9.537,0,0,1,3.231-2.686,9.041,9.041,0,0,1,2.722-.848,5.067,5.067,0,0,0,1.055-.153,5,5,0,0,0-1.073-.017,8.261,8.261,0,0,0-2.838.738,9.529,9.529,0,0,0-3.409,2.711,18.023,18.023,0,0,0-2.65,4.62,30.6,30.6,0,0,0-1.531,5.088,35.8,35.8,0,0,0-.564,4.295c-.092,1.228-.127,2.222-.144,2.909A4.943,4.943,0,0,0,69.034,386.861Z" transform="translate(-69.004 -365.419)" fill="#e0e0e0"/>
                </g>
              </g>
            </g>
          </g>
          <g id="Group_6922" data-name="Group 6922" transform="translate(23.146 9.369)">
            <g id="Group_6921" data-name="Group 6921">
              <g id="Group_6920" data-name="Group 6920">
                <g id="Group_6919" data-name="Group 6919">
                  <path id="Path_5824" data-name="Path 5824" d="M69.233,356.322a2.093,2.093,0,0,0,.029-.492c0-.37,0-.835,0-1.406,0-1.22,0-2.986.062-5.166.108-4.361.484-9.054,1.209-15.671.687-6.221,1.608-13.462,2.581-18.17.208-1.07.418-2.034.616-2.877s.35-1.575.5-2.165l.329-1.367a2.1,2.1,0,0,0,.086-.485,2.084,2.084,0,0,0-.171.461l-.408,1.347c-.181.585-.367,1.309-.579,2.151s-.453,1.8-.681,2.87a159.489,159.489,0,0,0-2.714,16.86c-.727,6.63-1.054,12.667-1.083,17.039-.026,2.186.021,3.955.076,5.176.035.571.063,1.036.086,1.406A2.071,2.071,0,0,0,69.233,356.322Z" transform="translate(-69.004 -308.524)" fill="#e0e0e0"/>
                </g>
              </g>
            </g>
          </g>
          <g id="Group_6926" data-name="Group 6926" transform="translate(7.828 12.929)">
            <g id="Group_6925" data-name="Group 6925">
              <g id="Group_6924" data-name="Group 6924">
                <g id="Group_6923" data-name="Group 6923">
                  <path id="Path_5825" data-name="Path 5825" d="M54.087,348.2a9.313,9.313,0,0,0-.01-1.469c-.054-.944-.184-2.308-.45-3.979a52.434,52.434,0,0,0-1.295-5.8,47.467,47.467,0,0,0-2.424-6.86,36.552,36.552,0,0,0-7.12-11.085,18.137,18.137,0,0,0-1.675-1.557c-.257-.217-.484-.434-.716-.606l-.65-.448a9.344,9.344,0,0,0-1.236-.792,43.951,43.951,0,0,1,4.053,3.615,38.514,38.514,0,0,1,6.941,11.046,54.316,54.316,0,0,1,2.438,6.8c.635,2.13,1.058,4.089,1.377,5.74.3,1.654.479,3,.585,3.94A9.567,9.567,0,0,0,54.087,348.2Z" transform="translate(-38.511 -315.611)" fill="#e0e0e0"/>
                </g>
              </g>
            </g>
          </g>
        </g>
        <g id="Group_6930" data-name="Group 6930" transform="translate(11.37 64.294)">
          <g id="Group_6929" data-name="Group 6929">
            <g id="Group_6928" data-name="Group 6928">
              <path id="Path_5826" data-name="Path 5826" d="M45.563,417.864l1.167,15.985H67.264l1.167-15.985Z" transform="translate(-45.563 -417.864)" fill="#ebebeb"/>
            </g>
          </g>
        </g>
        <g id="Group_6933" data-name="Group 6933" transform="translate(9.387 57.993)">
          <g id="Group_6932" data-name="Group 6932">
            <g id="Group_6931" data-name="Group 6931">
              <rect id="Rectangle_295" data-name="Rectangle 295" width="27.302" height="6.3" fill="#ebebeb"/>
            </g>
          </g>
        </g>
        <g id="Group_6936" data-name="Group 6936" transform="translate(9.387 79.667)">
          <g id="Group_6935" data-name="Group 6935">
            <g id="Group_6934" data-name="Group 6934">
              <path id="Path_5827" data-name="Path 5827" d="M41.614,448.467v1.746H68.465v-1.746Z" transform="translate(-41.614 -448.467)" fill="#e0e0e0"/>
            </g>
          </g>
        </g>
        <g id="Group_6939" data-name="Group 6939" transform="translate(10.67 81.22)">
          <g id="Group_6938" data-name="Group 6938">
            <g id="Group_6937" data-name="Group 6937">
              <path id="Path_5828" data-name="Path 5828" d="M45.425,454.632l-1.257-3.074h24.59l-1.467,3.074Z" transform="translate(-44.168 -451.559)" fill="#e0e0e0"/>
            </g>
          </g>
        </g>
        <g id="Group_6943" data-name="Group 6943" transform="translate(11.717 67.272)">
          <g id="Group_6942" data-name="Group 6942">
            <g id="Group_6941" data-name="Group 6941">
              <g id="Group_6940" data-name="Group 6940">
                <path id="Path_5829" data-name="Path 5829" d="M68.393,426.039a.645.645,0,0,1-.1.147l-.307.407-1.2,1.531-.053.068-.052-.071-2.939-4.064h.169l-2.893,4.1-.091.129-.1-.121L57.4,424.077l.2,0-.189.237-3.068,3.847-.1.128-.094-.133-2.895-4.1.168.008-3.565,4.062-.063.072-.048-.081-1.117-1.876-.286-.5a.809.809,0,0,1-.087-.178.763.763,0,0,1,.12.158l.317.481,1.172,1.841-.112-.009,3.508-4.112.089-.1.08.112,2.921,4.077-.2-.005,3.061-3.853.189-.237.1-.123.1.12L61.02,428l-.192.008,2.922-4.076.086-.12.083.12,2.877,4.109-.1,0,1.244-1.492.334-.385C68.346,426.078,68.388,426.035,68.393,426.039Z" transform="translate(-46.252 -423.793)" fill="#f5f5f5"/>
              </g>
            </g>
          </g>
        </g>
        <g id="Group_6947" data-name="Group 6947" transform="translate(11.541 64.061)">
          <g id="Group_6946" data-name="Group 6946">
            <g id="Group_6945" data-name="Group 6945">
              <g id="Group_6944" data-name="Group 6944">
                <path id="Path_5830" data-name="Path 5830" d="M68.886,417.527c0,.07-5.145.128-11.491.128S45.9,417.6,45.9,417.527s5.144-.128,11.492-.128S68.886,417.456,68.886,417.527Z" transform="translate(-45.903 -417.399)" fill="#f5f5f5"/>
              </g>
            </g>
          </g>
        </g>
      </g>
    </g>
    <g id="Floor" transform="translate(29.164 262.787)">
      <g id="Group_7011" data-name="Group 7011">
        <path id="Path_5838" data-name="Path 5838" d="M251,459.222c0,.072-48.28.131-107.824.131-59.564,0-107.834-.059-107.834-.131s48.27-.131,107.834-.131C202.72,459.091,251,459.149,251,459.222Z" transform="translate(-35.343 -459.091)" fill="#263238"/>
      </g>
    </g>
    <g id="Character" transform="translate(43.259 75.194)">
      <g id="Group_7116" data-name="Group 7116">
        <g id="Group_7012" data-name="Group 7012" transform="translate(14.918 0.178)">
          <path id="Path_5839" data-name="Path 5839" d="M141.544,92.351a16.044,16.044,0,0,1,3.625,10.276c-.023,2.119-.413,4.456.819,6.179.935,1.308,2.641,1.963,3.4,3.38.914,1.7.135,3.857.7,5.708.8,2.623,3.869,3.72,5.691,5.769a7.282,7.282,0,0,1,1.529,6.668,7.508,7.508,0,0,1-4.71,4.986,4.879,4.879,0,0,1-3.729-.063,6.482,6.482,0,0,1-2.611-3.1c-1.213-2.419-11.848-15.508-12.451-18.146" transform="translate(-113.359 -89.16)" fill="#263238"/>
          <path id="Path_5840" data-name="Path 5840" d="M113.548,86.1c-4.349-.7-8.529,2.187-10.361,6.193s-1.883,8.561-2.018,12.964-.444,9-2.692,12.787c-1.426,2.4-3.635,4.513-3.981,7.288-.31,2.484.976,4.985.549,7.452-.372,2.147-2.008,4.016-1.943,6.194.078,2.621,2.773,4.6,5.394,4.666s5.07-1.3,7.125-2.932a27.4,27.4,0,0,0,7.82-9.938" transform="translate(-93.1 -85.999)" fill="#263238"/>
        </g>
        <g id="Group_7059" data-name="Group 7059" transform="translate(28.147)">
          <g id="Group_7058" data-name="Group 7058">
            <g id="Group_7044" data-name="Group 7044" transform="translate(0 1.396)">
              <g id="Group_7043" data-name="Group 7043">
                <g id="Group_7013" data-name="Group 7013">
                  <path id="Path_5841" data-name="Path 5841" d="M119.5,97.682a8.234,8.234,0,0,1,7.4-9.221,8.4,8.4,0,0,1,8.949,7.21,85.8,85.8,0,0,1,1.054,9.082c-.054,4.225-2.526,5.87-3.528,6.364a5.468,5.468,0,0,1-1.112.277h0a.028.028,0,0,0-.024.033l.938,4.85c.425,3.178-1.349,6.012-4.521,6.475s-5.672-1.977-6.158-5.157Z" transform="translate(-119.436 -88.424)" fill="#ffbe9d"/>
                </g>
                <g id="Group_7019" data-name="Group 7019" transform="translate(12.915 8.569)">
                  <g id="Group_7018" data-name="Group 7018">
                    <g id="Group_7017" data-name="Group 7017">
                      <g id="Group_7016" data-name="Group 7016">
                        <g id="Group_7015" data-name="Group 7015">
                          <g id="Group_7014" data-name="Group 7014">
                            <path id="Path_5842" data-name="Path 5842" d="M147.781,106.01c-.07.1-.628-.2-1.343-.094s-1.187.541-1.277.464c-.044-.033.017-.2.222-.4a1.839,1.839,0,0,1,1.007-.479,1.766,1.766,0,0,1,1.085.183C147.718,105.82,147.816,105.966,147.781,106.01Z" transform="translate(-145.147 -105.482)" fill="#263238"/>
                          </g>
                        </g>
                      </g>
                    </g>
                  </g>
                </g>
                <g id="Group_7025" data-name="Group 7025" transform="translate(6.554 10.114)">
                  <g id="Group_7024" data-name="Group 7024">
                    <g id="Group_7023" data-name="Group 7023">
                      <g id="Group_7022" data-name="Group 7022">
                        <g id="Group_7021" data-name="Group 7021">
                          <g id="Group_7020" data-name="Group 7020">
                            <path id="Path_5843" data-name="Path 5843" d="M135.118,109.086c-.07.1-.628-.2-1.343-.094s-1.187.54-1.277.464c-.044-.033.017-.2.222-.4a1.835,1.835,0,0,1,1.007-.479,1.768,1.768,0,0,1,1.085.183C135.055,108.9,135.153,109.042,135.118,109.086Z" transform="translate(-132.484 -108.558)" fill="#263238"/>
                          </g>
                        </g>
                      </g>
                    </g>
                  </g>
                </g>
                <g id="Group_7030" data-name="Group 7030" transform="translate(10.595 8.564)">
                  <g id="Group_7029" data-name="Group 7029">
                    <g id="Group_7028" data-name="Group 7028">
                      <g id="Group_7027" data-name="Group 7027">
                        <g id="Group_7026" data-name="Group 7026">
                          <path id="Path_5844" data-name="Path 5844" d="M141.728,111.386a4.818,4.818,0,0,1,1.131-.379c.18-.045.348-.107.36-.236a.94.94,0,0,0-.2-.523l-.743-1.312a24.155,24.155,0,0,1-1.743-3.461,24.2,24.2,0,0,1,2.018,3.312c.252.462.492.9.721,1.324a1.067,1.067,0,0,1,.2.7.465.465,0,0,1-.262.311,1.282,1.282,0,0,1-.3.088A4.661,4.661,0,0,1,141.728,111.386Z" transform="translate(-140.528 -105.473)" fill="#263238"/>
                        </g>
                      </g>
                    </g>
                  </g>
                </g>
                <g id="Group_7034" data-name="Group 7034" transform="translate(6.313 22.029)">
                  <g id="Group_7033" data-name="Group 7033">
                    <g id="Group_7032" data-name="Group 7032">
                      <g id="Group_7031" data-name="Group 7031">
                        <path id="Path_5845" data-name="Path 5845" d="M138.489,133.221a11.511,11.511,0,0,1-6.486-.943s1.622,3.492,6.739,2.25Z" transform="translate(-132.003 -132.278)" fill="#eb996e"/>
                      </g>
                    </g>
                  </g>
                </g>
                <g id="Group_7038" data-name="Group 7038" transform="translate(5.609 8.402)">
                  <g id="Group_7037" data-name="Group 7037">
                    <g id="Group_7036" data-name="Group 7036">
                      <g id="Group_7035" data-name="Group 7035">
                        <path id="Path_5846" data-name="Path 5846" d="M133.821,105.517c-.042.2-.77.217-1.594.44-.829.207-1.47.552-1.606.393-.062-.076.029-.276.276-.5a2.873,2.873,0,0,1,2.438-.634C133.661,105.29,133.838,105.42,133.821,105.517Z" transform="translate(-130.602 -105.15)" fill="#263238"/>
                      </g>
                    </g>
                  </g>
                </g>
                <g id="Group_7042" data-name="Group 7042" transform="translate(12.506 6.933)">
                  <g id="Group_7041" data-name="Group 7041">
                    <g id="Group_7040" data-name="Group 7040">
                      <g id="Group_7039" data-name="Group 7039">
                        <path id="Path_5847" data-name="Path 5847" d="M146.788,102.805c-.1.181-.619.084-1.214.162-.6.058-1.078.269-1.218.116-.063-.075-.008-.249.189-.435a1.771,1.771,0,0,1,1.959-.224C146.739,102.561,146.832,102.718,146.788,102.805Z" transform="translate(-144.332 -102.227)" fill="#263238"/>
                      </g>
                    </g>
                  </g>
                </g>
              </g>
            </g>
            <g id="Group_7050" data-name="Group 7050" transform="translate(7.632 12.312)">
              <g id="Group_7049" data-name="Group 7049">
                <g id="Group_7048" data-name="Group 7048">
                  <g id="Group_7047" data-name="Group 7047">
                    <g id="Group_7046" data-name="Group 7046">
                      <g id="Group_7045" data-name="Group 7045">
                        <path id="Path_5848" data-name="Path 5848" d="M134.635,110.805a.6.6,0,0,0,.678.48.569.569,0,0,0,.5-.643.6.6,0,0,0-.677-.48A.569.569,0,0,0,134.635,110.805Z" transform="translate(-134.629 -110.155)" fill="#263238"/>
                      </g>
                    </g>
                  </g>
                </g>
              </g>
            </g>
            <g id="Group_7056" data-name="Group 7056" transform="translate(13.964 10.942)">
              <g id="Group_7055" data-name="Group 7055">
                <g id="Group_7054" data-name="Group 7054">
                  <g id="Group_7053" data-name="Group 7053">
                    <g id="Group_7052" data-name="Group 7052">
                      <g id="Group_7051" data-name="Group 7051">
                        <path id="Path_5849" data-name="Path 5849" d="M147.242,108.077a.6.6,0,0,0,.678.48.569.569,0,0,0,.5-.643.6.6,0,0,0-.677-.48A.569.569,0,0,0,147.242,108.077Z" transform="translate(-147.236 -107.427)" fill="#263238"/>
                      </g>
                    </g>
                  </g>
                </g>
              </g>
            </g>
            <path id="Path_5850" data-name="Path 5850" d="M144.012,119.978a.892.892,0,0,0-1.043.434.916.916,0,0,0,.127,1.062.806.806,0,0,0,1.043.074,1,1,0,0,0,.328-.683.955.955,0,0,0-.162-.683.558.558,0,0,0-.638-.193" transform="translate(-131.091 -102.713)" fill="#eb996e"/>
            <path id="Path_5851" data-name="Path 5851" d="M139.5,90.868A6.479,6.479,0,0,0,136.746,87a7.214,7.214,0,0,0-3.848-1.349,5.27,5.27,0,0,0-3.786,1.374,3.927,3.927,0,0,0-1.147,2.721l.08-.7a2.556,2.556,0,0,0,.009,1.77v0c.117.308.256.615.38.924a3.956,3.956,0,0,0,1.878,2.043,2.56,2.56,0,0,0,1.256.305,1.522,1.522,0,0,0,1.138-.554,2.523,2.523,0,0,0,.272-1.8,4.371,4.371,0,0,0,1.371,1.535,1.5,1.5,0,0,0,1.891-.216,2.025,2.025,0,0,0,.011-1.923,3.8,3.8,0,0,0,1.569,1.356,1.4,1.4,0,0,0,1.121.117,1.082,1.082,0,0,0,.582-.752A2.255,2.255,0,0,0,139.5,90.868Z" transform="translate(-123.645 -85.645)" fill="#263238"/>
            <g id="Group_7057" data-name="Group 7057" transform="translate(5.505 0.599)">
              <path id="Path_5852" data-name="Path 5852" d="M137.116,92.774c-.046,0-.038-.6-.232-1.522a5.791,5.791,0,0,0-1.735-3.15,4.169,4.169,0,0,0-1.738-.938,3.771,3.771,0,0,0-1.618-.04,4.821,4.821,0,0,0-1.4.58c-.009-.01.087-.128.308-.287a3.133,3.133,0,0,1,1.05-.473,3.753,3.753,0,0,1,1.713-.013,4.233,4.233,0,0,1,1.856.977,5.623,5.623,0,0,1,1.743,3.31,6.667,6.667,0,0,1,.09,1.139A1.179,1.179,0,0,1,137.116,92.774Z" transform="translate(-130.395 -86.838)" fill="#455a64"/>
            </g>
          </g>
        </g>
        <path id="Path_5853" data-name="Path 5853" d="M200.259,194.555,180.944,186.9s-9.895-12.976-9.688-13.227l-6.945,7.607L174.4,194.943l23.392,5.476,11.078.089C208.018,196.248,200.259,194.555,200.259,194.555Z" transform="translate(-113.622 -129.453)" fill="#ffbe9d"/>
        <g id="Group_7071" data-name="Group 7071" transform="translate(17.549 27.068)">
          <g id="Group_7063" data-name="Group 7063" transform="translate(0.011)">
            <g id="Group_7062" data-name="Group 7062">
              <g id="Group_7061" data-name="Group 7061">
                <g id="Group_7060" data-name="Group 7060">
                  <path id="Path_5854" data-name="Path 5854" d="M125.339,140.548l-2.63-1.019-11.363,1.441v2.008l-.326.04a23.242,23.242,0,0,0-6.961,2.7,11.878,11.878,0,0,0-5.545,12.091c.462,2.873,1.358,6.366,3.083,8.385,3.3,3.86,6.314-.911,6.314-.911s2.072,4.724,1.953,6.959a60.837,60.837,0,0,1-1.194,6.988.369.369,0,0,0,.3.442l23.971,4.432.117-5.859-.762-24.1-1.058-9.359S131.27,140.317,125.339,140.548Z" transform="translate(-98.362 -139.529)" fill="#797979"/>
                </g>
              </g>
            </g>
          </g>
          <path id="Path_5855" data-name="Path 5855" d="M163.073,146.9l9.139,13.205-7.358,8.963Z" transform="translate(-130.555 -143.197)" fill="#797979"/>
          <g id="Group_7064" data-name="Group 7064" transform="translate(31.767 10.082)">
            <path id="Path_5856" data-name="Path 5856" d="M164.288,181.009a5.348,5.348,0,0,1-.036-.852c-.008-.592-.017-1.374-.029-2.32a71.343,71.343,0,0,0-.548-7.624,76.071,76.071,0,0,0-1.395-7.517l-.531-2.259a5.311,5.311,0,0,1-.169-.836,5.346,5.346,0,0,1,.267.81c.156.526.369,1.291.612,2.242a62.359,62.359,0,0,1,1.475,7.527,59.029,59.029,0,0,1,.473,7.656c-.01.982-.024,1.776-.054,2.324A5.273,5.273,0,0,1,164.288,181.009Z" transform="translate(-161.578 -159.6)" fill="#263238"/>
          </g>
          <g id="Group_7065" data-name="Group 7065" transform="translate(0 11.32)">
            <path id="Path_5857" data-name="Path 5857" d="M110.327,162.157c0,.043-.694.034-1.806.093a28.433,28.433,0,0,0-8.486,1.758c-1.045.387-1.677.67-1.695.632a1.759,1.759,0,0,1,.42-.249c.277-.147.689-.339,1.207-.556a23.356,23.356,0,0,1,8.547-1.77c.561-.007,1.015.006,1.328.03A1.773,1.773,0,0,1,110.327,162.157Z" transform="translate(-98.339 -162.064)" fill="#fafafa"/>
          </g>
          <g id="Group_7066" data-name="Group 7066" transform="translate(25.254 17.444)">
            <path id="Path_5858" data-name="Path 5858" d="M156.518,174.271a4.562,4.562,0,0,1-1.139.248,25.2,25.2,0,0,1-5.611.192,4.529,4.529,0,0,1-1.153-.169,5.968,5.968,0,0,1,1.163-.016c.715.013,1.7.021,2.792-.016s2.074-.113,2.787-.175A5.949,5.949,0,0,1,156.518,174.271Z" transform="translate(-148.614 -174.256)" fill="#fafafa"/>
          </g>
          <g id="Group_7067" data-name="Group 7067" transform="translate(33.087 11.479)">
            <path id="Path_5859" data-name="Path 5859" d="M168.474,162.384a9.64,9.64,0,0,1-4.266,2.61c-.029-.071,1-.525,2.169-1.246S168.423,162.325,168.474,162.384Z" transform="translate(-164.207 -162.38)" fill="#fafafa"/>
          </g>
          <g id="Group_7068" data-name="Group 7068" transform="translate(27.927 5.356)">
            <path id="Path_5860" data-name="Path 5860" d="M159.668,150.194a9.5,9.5,0,0,1-5.733,2.428c-.014-.08,1.384-.293,2.969-.971S159.619,150.129,159.668,150.194Z" transform="translate(-153.935 -150.191)" fill="#fafafa"/>
          </g>
          <g id="Group_7069" data-name="Group 7069" transform="translate(20.874 27.678)">
            <path id="Path_5861" data-name="Path 5861" d="M153.179,194.632a2.1,2.1,0,0,1-.475.25c-.311.148-.773.337-1.352.549a24.863,24.863,0,0,1-9.475,1.455c-.616-.029-1.114-.07-1.455-.118a2.09,2.09,0,0,1-.527-.1c0-.043.762.019,1.987.029a29.454,29.454,0,0,0,9.411-1.446C152.457,194.879,153.162,194.593,153.179,194.632Z" transform="translate(-139.894 -194.629)" fill="#fafafa"/>
          </g>
          <g id="Group_7070" data-name="Group 7070" transform="translate(10.782 34.491)">
            <path id="Path_5862" data-name="Path 5862" d="M143.366,208.193a.878.878,0,0,1-.215.122l-.636.3c-.553.262-1.37.6-2.4.986s-2.266.788-3.661,1.171a42.832,42.832,0,0,1-9.292,1.442c-1.447.057-2.751.052-3.844-.007s-1.975-.131-2.581-.213l-.7-.095a.851.851,0,0,1-.241-.051.915.915,0,0,1,.247,0l.7.046c.608.051,1.489.1,2.578.13s2.387.022,3.825-.049,3.015-.234,4.658-.483,3.189-.6,4.584-.951,2.633-.748,3.66-1.112,1.855-.672,2.418-.905l.655-.256A.91.91,0,0,1,143.366,208.193Z" transform="translate(-119.803 -208.191)" fill="#fafafa"/>
          </g>
        </g>
        <g id="Group_7090" data-name="Group 7090" transform="translate(0 168.347)">
          <g id="Group_7088" data-name="Group 7088">
            <g id="Group_7072" data-name="Group 7072">
              <path id="Path_5863" data-name="Path 5863" d="M71.222,420.777,68.507,433.05l-4.946,9.088a1.288,1.288,0,0,0,.594,1.786h0a1.28,1.28,0,0,0,1.178-.053c2.3-1.33,10.743-6.263,10.891-7.172.172-1.053,3.723-12.756,3.723-12.756Z" transform="translate(-63.403 -420.777)" fill="#797979"/>
            </g>
            <g id="Group_7073" data-name="Group 7073" transform="translate(0.751 15.099)" opacity="0.6">
              <path id="Path_5864" data-name="Path 5864" d="M64.9,458.883l12.271-8.049-.127.517a1.94,1.94,0,0,1-.746,1.112c-1,.721-3.8,2.651-10.184,6.377a1.287,1.287,0,0,1-1.215.044Z" transform="translate(-64.898 -450.834)" fill="#fff"/>
            </g>
            <g id="Group_7075" data-name="Group 7075" transform="translate(10.999 10.495)" opacity="0.6">
              <g id="Group_7074" data-name="Group 7074">
                <path id="Path_5865" data-name="Path 5865" d="M85.783,441.72a.779.779,0,0,0-.45.937.749.749,0,0,0,.925.454.822.822,0,0,0,.471-1,.777.777,0,0,0-1.015-.365" transform="translate(-85.299 -441.669)" fill="#fff"/>
              </g>
            </g>
            <g id="Group_7077" data-name="Group 7077" transform="translate(2.673 16.605)">
              <g id="Group_7076" data-name="Group 7076">
                <path id="Path_5866" data-name="Path 5866" d="M70.9,455.726a2.779,2.779,0,0,0-2.177-1.825c0-.033.174-.09.47-.06a2.052,2.052,0,0,1,1.684,1.412C70.959,455.539,70.934,455.723,70.9,455.726Z" transform="translate(-68.724 -453.832)" fill="#263238"/>
              </g>
            </g>
            <g id="Group_7079" data-name="Group 7079" transform="translate(1.472 18.611)">
              <g id="Group_7078" data-name="Group 7078">
                <path id="Path_5867" data-name="Path 5867" d="M68.44,459.136c-.071.039-.365-.455-.952-.79a10.428,10.428,0,0,0-1.154-.446,1.426,1.426,0,0,1,1.294.208C68.295,458.494,68.512,459.119,68.44,459.136Z" transform="translate(-66.333 -457.827)" fill="#263238"/>
              </g>
            </g>
            <g id="Group_7081" data-name="Group 7081" transform="translate(3.887 14.592)">
              <g id="Group_7080" data-name="Group 7080">
                <path id="Path_5868" data-name="Path 5868" d="M74.237,452.033a12.912,12.912,0,0,0-1.387-1.319,12.821,12.821,0,0,0-1.707-.866,3.519,3.519,0,0,1,3.095,2.185Z" transform="translate(-71.141 -449.825)" fill="#263238"/>
              </g>
            </g>
            <g id="Group_7083" data-name="Group 7083" transform="translate(4.969 12.097)">
              <g id="Group_7082" data-name="Group 7082">
                <path id="Path_5869" data-name="Path 5869" d="M76.445,445.9c-.051.065-.656-.382-1.526-.629s-1.617-.206-1.625-.289a3.2,3.2,0,0,1,3.151.918Z" transform="translate(-73.294 -444.859)" fill="#263238"/>
              </g>
            </g>
            <g id="Group_7085" data-name="Group 7085" transform="translate(5.718 8.528)">
              <g id="Group_7084" data-name="Group 7084">
                <path id="Path_5870" data-name="Path 5870" d="M78.076,438.782a6.306,6.306,0,0,0-1.571-.7,6.3,6.3,0,0,0-1.718.01c-.014-.031.157-.151.479-.245a2.805,2.805,0,0,1,2.47.516C77.992,438.581,78.1,438.76,78.076,438.782Z" transform="translate(-74.786 -437.755)" fill="#263238"/>
              </g>
            </g>
            <g id="Group_7087" data-name="Group 7087" transform="translate(6.04 5.832)">
              <g id="Group_7086" data-name="Group 7086">
                <path id="Path_5871" data-name="Path 5871" d="M77.013,434.737a1.082,1.082,0,0,1,.1-.466,3.3,3.3,0,0,1,.664-1.119,1.462,1.462,0,0,1,.777-.529.517.517,0,0,1,.539.251.843.843,0,0,1,.058.6,1.821,1.821,0,0,1-1.951,1.256,2.112,2.112,0,0,1-1.751-1.567.732.732,0,0,1,.112-.6.508.508,0,0,1,.58-.135,1.8,1.8,0,0,1,.7.615,3.694,3.694,0,0,1,.6,1.153,1.117,1.117,0,0,1,.084.468,5.861,5.861,0,0,0-.836-1.5,1.684,1.684,0,0,0-.625-.522.27.27,0,0,0-.316.072.5.5,0,0,0-.05.4,1.884,1.884,0,0,0,1.534,1.341,1.581,1.581,0,0,0,1.671-1.042.613.613,0,0,0-.023-.419.281.281,0,0,0-.3-.143,1.322,1.322,0,0,0-.666.437A4.877,4.877,0,0,0,77.013,434.737Z" transform="translate(-75.427 -432.387)" fill="#263238"/>
              </g>
            </g>
          </g>
          <g id="Group_7089" data-name="Group 7089" transform="translate(6.915 0)" opacity="0.3">
            <path id="Path_5872" data-name="Path 5872" d="M77.755,422.109l-.587,2.815,8.887,1.474.741-2.455-8.725-3.166Z" transform="translate(-77.168 -420.777)"/>
          </g>
        </g>
        <g id="Group_7109" data-name="Group 7109" transform="translate(37.493 172.494)">
          <g id="Group_7103" data-name="Group 7103">
            <g id="Group_7091" data-name="Group 7091">
              <path id="Path_5873" data-name="Path 5873" d="M148.079,429.427l-.734,9.807s9.723,4.039,9.763,5.865l-19.067-.74.516-15.328Z" transform="translate(-138.041 -429.032)" fill="#797979"/>
            </g>
            <g id="Group_7093" data-name="Group 7093" transform="translate(2.856 9.121)" opacity="0.6">
              <g id="Group_7092" data-name="Group 7092">
                <path id="Path_5874" data-name="Path 5874" d="M144.31,447.217a.779.779,0,0,0-.573.868.75.75,0,0,0,.855.576.822.822,0,0,0,.6-.922.777.777,0,0,0-.956-.5" transform="translate(-143.726 -447.19)" fill="#fff"/>
              </g>
            </g>
            <g id="Group_7094" data-name="Group 7094" transform="translate(0 13.785)" opacity="0.6">
              <path id="Path_5875" data-name="Path 5875" d="M138.041,458.018l.113-1.543,18.239,1.286s.834.4.715,1Z" transform="translate(-138.041 -456.475)" fill="#fff"/>
            </g>
            <g id="Group_7096" data-name="Group 7096" transform="translate(7.839 10.019)">
              <g id="Group_7095" data-name="Group 7095">
                <path id="Path_5876" data-name="Path 5876" d="M155.423,449.076c-.007.093-.474.118-.943.4s-.729.664-.813.623c-.085-.022.075-.573.65-.9S155.447,448.991,155.423,449.076Z" transform="translate(-153.645 -448.977)" fill="#263238"/>
              </g>
            </g>
            <g id="Group_7098" data-name="Group 7098" transform="translate(10.272 10.981)">
              <g id="Group_7097" data-name="Group 7097">
                <path id="Path_5877" data-name="Path 5877" d="M159.8,450.933c.018.091-.391.234-.723.615s-.439.794-.531.787c-.088.011-.132-.537.29-1S159.8,450.844,159.8,450.933Z" transform="translate(-158.489 -450.891)" fill="#263238"/>
              </g>
            </g>
            <g id="Group_7100" data-name="Group 7100" transform="translate(12.529 11.881)">
              <g id="Group_7099" data-name="Group 7099">
                <path id="Path_5878" data-name="Path 5878" d="M163.081,454.262c-.085.017-.2-.454.062-.954s.7-.686.738-.607-.244.341-.45.755S163.174,454.257,163.081,454.262Z" transform="translate(-162.982 -452.683)" fill="#263238"/>
              </g>
            </g>
            <g id="Group_7102" data-name="Group 7102" transform="translate(7.55 7.493)">
              <g id="Group_7101" data-name="Group 7101">
                <path id="Path_5879" data-name="Path 5879" d="M155.056,444.319c-.042.083-.465-.062-.992-.046s-.944.165-.99.083.362-.4.984-.408S155.105,444.248,155.056,444.319Z" transform="translate(-153.07 -443.948)" fill="#263238"/>
              </g>
            </g>
          </g>
          <g id="Group_7104" data-name="Group 7104" transform="translate(0.394 1.616)" opacity="0.3">
            <path id="Path_5880" data-name="Path 5880" d="M148.321,432.97l-.128,1.748-9.368-.449.063-2.021Z" transform="translate(-138.824 -432.248)"/>
          </g>
          <g id="Group_7106" data-name="Group 7106" transform="translate(6.791 4.253)">
            <g id="Group_7105" data-name="Group 7105">
              <path id="Path_5881" data-name="Path 5881" d="M154.416,439.129a1.8,1.8,0,0,1-.955-.042,4.28,4.28,0,0,1-.987-.346,4.547,4.547,0,0,1-.537-.312,1.2,1.2,0,0,1-.28-.236.406.406,0,0,1-.023-.5.51.51,0,0,1,.416-.2,1.234,1.234,0,0,1,.356.063,3.433,3.433,0,0,1,.586.227,3.367,3.367,0,0,1,.858.612c.426.426.564.78.531.8s-.248-.271-.685-.626a3.8,3.8,0,0,0-.833-.513,3.558,3.558,0,0,0-.542-.19c-.2-.061-.372-.069-.427.019-.02.034-.023.047.017.108a.968.968,0,0,0,.206.172,5.016,5.016,0,0,0,.493.308,5.256,5.256,0,0,0,.909.389A6.5,6.5,0,0,1,154.416,439.129Z" transform="translate(-151.56 -437.499)" fill="#263238"/>
            </g>
          </g>
          <g id="Group_7108" data-name="Group 7108" transform="translate(9.304 3.01)">
            <g id="Group_7107" data-name="Group 7107">
              <path id="Path_5882" data-name="Path 5882" d="M156.78,438.025a1.527,1.527,0,0,1-.216-.932,3.12,3.12,0,0,1,.171-1.04,3.159,3.159,0,0,1,.266-.571.791.791,0,0,1,.628-.459.446.446,0,0,1,.388.282,1.288,1.288,0,0,1,.085.354,2.13,2.13,0,0,1-.025.643,2.194,2.194,0,0,1-.446.971c-.392.48-.785.576-.791.544-.029-.048.3-.215.606-.679a2.2,2.2,0,0,0,.337-.886,1.954,1.954,0,0,0,0-.553c-.022-.2-.091-.37-.168-.353-.094,0-.262.142-.346.3a3.22,3.22,0,0,0-.257.508,3.443,3.443,0,0,0-.222.946C156.745,437.661,156.831,438.013,156.78,438.025Z" transform="translate(-156.564 -435.024)" fill="#263238"/>
            </g>
          </g>
        </g>
        <g id="Group_7115" data-name="Group 7115" transform="translate(5.439 65.784)">
          <path id="Path_5883" data-name="Path 5883" d="M96.58,217.96s-3.028.133-5.022,10.441-17.328,93.83-17.328,93.83l11.1.1,20.95-79.406-1.392,81.861,11.282.863s8.466-90.563,8.546-95.832c.1-6.569-3.674-13.215-3.674-13.215Z" transform="translate(-74.23 -216.603)" fill="silver"/>
          <g id="Group_7110" data-name="Group 7110" transform="translate(32.206 0.474)">
            <path id="Path_5884" data-name="Path 5884" d="M143.751,217.547c.071.015-1.082,5.9-2.574,13.152s-2.759,13.116-2.83,13.1,1.082-5.9,2.574-13.154S143.68,217.532,143.751,217.547Z" transform="translate(-138.344 -217.547)" fill="#455a64"/>
          </g>
          <g id="Group_7111" data-name="Group 7111" transform="translate(38.485 1.911)">
            <path id="Path_5885" data-name="Path 5885" d="M151.7,220.441c-.019-.026.3-.121.645.187a.93.93,0,0,1,.3.71.939.939,0,0,1-1.511.637.93.93,0,0,1-.3-.713c.02-.462.311-.624.316-.593a1.377,1.377,0,0,0-.132.588.786.786,0,0,0,.268.534.722.722,0,0,0,1.115-.47.786.786,0,0,0-.2-.565C151.971,220.475,151.7,220.485,151.7,220.441Z" transform="translate(-150.843 -220.407)" fill="#455a64"/>
          </g>
          <g id="Group_7112" data-name="Group 7112" transform="translate(37.715 5.978)">
            <path id="Path_5886" data-name="Path 5886" d="M150.459,228.553c-.007-.032.312.011.487.418a.876.876,0,0,1-.031.739.885.885,0,0,1-1.558-.122.876.876,0,0,1,.084-.735c.236-.376.557-.368.546-.338.017.039-.237.1-.382.424a.73.73,0,0,0-.022.562.666.666,0,0,0,1.125.087.729.729,0,0,0,.065-.559C150.677,228.69,150.437,228.589,150.459,228.553Z" transform="translate(-149.31 -228.503)" fill="#455a64"/>
          </g>
          <g id="Group_7113" data-name="Group 7113" transform="translate(17.798 2.048)">
            <path id="Path_5887" data-name="Path 5887" d="M120.085,220.681a1.867,1.867,0,0,1-.132.516,8.466,8.466,0,0,1-.586,1.33,9.774,9.774,0,0,1-7.727,5.092,8.5,8.5,0,0,1-1.453.014,1.839,1.839,0,0,1-.526-.082c0-.049.759.036,1.959-.116a10.2,10.2,0,0,0,7.586-5C119.819,221.392,120.039,220.664,120.085,220.681Z" transform="translate(-109.661 -220.68)" fill="#455a64"/>
          </g>
          <g id="Group_7114" data-name="Group 7114" transform="translate(46.222 0.685)">
            <path id="Path_5888" data-name="Path 5888" d="M169.853,226.656c-.011.015-.129-.057-.334-.2a5.94,5.94,0,0,1-.805-.69,8.56,8.56,0,0,1-2.457-6.376,5.951,5.951,0,0,1,.135-1.051,1.108,1.108,0,0,1,.113-.373c.047.009-.06.55-.062,1.429a9.332,9.332,0,0,0,2.407,6.244C169.439,226.289,169.882,226.619,169.853,226.656Z" transform="translate(-166.245 -217.966)" fill="#455a64"/>
          </g>
        </g>
      </g>
      <g id="Group_7127" data-name="Group 7127" transform="translate(18.21 20.045)">
        <g id="Group_7124" data-name="Group 7124">
          <g id="Group_7122" data-name="Group 7122" transform="translate(0.056)">
            <g id="Group_7118" data-name="Group 7118" transform="translate(0 0.151)">
              <g id="Group_7117" data-name="Group 7117">
                <path id="Path_5889" data-name="Path 5889" d="M104.872,152.928l4.934.273a24.839,24.839,0,0,0,1.395,4.045,81.994,81.994,0,0,0,7.815-19.842c-.112-.371-.243-.781-.408-1.239a5.263,5.263,0,0,1,.063-2.087c.133-.827.364-1.939.434-2.453.212-1.568.464-1.815,1.012-1.637.744.241-.305,4.4.3,4.495.328.049.729-1.378.845-2.548s.646-4.771,1.032-5.011c.567-.352,1.061.2.918,1.37s-.328,4.7.291,4.745,1.121-5.922,1.121-5.922-.1-1.3.62-1.267c1.291.056.282,6.348.172,6.945-.077.415.594.491.653.041s.373-5.969,1.688-5.925c1.009.034-.782,5.186-.215,6.38s.96-4.056,1.924-3.983c.359.027.624.1-.035,3.068a67.239,67.239,0,0,1-2.3,6.963c-1.528,8.238-8.231,34.591-18.74,29.768-5.88-2.7-8.624-16.065-8.624-16.065Z" transform="translate(-99.765 -125.849)" fill="#ffbe9d"/>
              </g>
            </g>
            <g id="Group_7121" data-name="Group 7121" transform="translate(18.703)">
              <g id="Group_7120" data-name="Group 7120">
                <g id="Group_7119" data-name="Group 7119">
                  <path id="Path_5890" data-name="Path 5890" d="M145.659,139.193a.85.85,0,0,1,.05-.18l.176-.518.687-1.989c.293-.865.653-1.923,1.01-3.168.183-.621.332-1.294.47-2.016.067-.36.135-.732.177-1.113a3.842,3.842,0,0,0,.027-.572c-.014-.2-.044-.356-.2-.359-.16-.043-.268.089-.377.256a3.1,3.1,0,0,0-.249.557c-.141.4-.251.817-.36,1.248s-.21.875-.342,1.326a2.069,2.069,0,0,1-.3.693.271.271,0,0,1-.138.083.231.231,0,0,1-.189-.042.605.605,0,0,1-.139-.19,1.323,1.323,0,0,1-.106-.383,12.336,12.336,0,0,1,.3-2.994c.086-.5.177-1.015.244-1.531a6.993,6.993,0,0,0,.062-.775c.01-.238-.032-.56-.136-.605-.129-.049-.361.1-.484.31a3.188,3.188,0,0,0-.329.712,10.967,10.967,0,0,0-.386,1.607c-.1.553-.171,1.117-.232,1.688q-.042.43-.084.863l-.038.437a.649.649,0,0,1-.2.506.514.514,0,0,1-.594.023.416.416,0,0,1-.18-.286.535.535,0,0,1,0-.161l.019-.108q.067-.437.134-.878c.083-.59.155-1.186.212-1.787s.1-1.209.107-1.818a6.059,6.059,0,0,0-.177-1.787.613.613,0,0,0-.254-.364.314.314,0,0,0-.339.109,1.679,1.679,0,0,0-.189.976v.025c-.107,1.18-.236,2.341-.405,3.481-.088.57-.181,1.134-.324,1.692-.036.14-.078.279-.128.418a.879.879,0,0,1-.284.434.306.306,0,0,1-.369-.081.724.724,0,0,1-.137-.227,2.215,2.215,0,0,1-.113-.433,16.224,16.224,0,0,1-.03-3.29,9.036,9.036,0,0,0,.081-1.54.845.845,0,0,0-.281-.572.318.318,0,0,0-.257-.04.61.61,0,0,0-.14.059.175.175,0,0,0-.071.087,6.877,6.877,0,0,0-.4,1.4c-.1.481-.183.958-.26,1.431s-.144.938-.2,1.4-.094.917-.183,1.365a7.346,7.346,0,0,1-.352,1.3,2.554,2.554,0,0,1-.145.308c-.07.094-.11.218-.3.276a.253.253,0,0,1-.255-.107.659.659,0,0,1-.079-.185,1.851,1.851,0,0,1-.04-.335c-.011-.856.116-1.641.159-2.4a5.9,5.9,0,0,0,0-1.091c-.023-.161-.074-.351-.166-.388a.466.466,0,0,0-.409-.009,1.449,1.449,0,0,0-.372.822c-.071.31-.1.619-.16.916-.209,1.188-.43,2.208-.538,3.043a4.058,4.058,0,0,0-.016,1.106c.07.3.171.573.23.785l.144.485a.744.744,0,0,1,.039.168.747.747,0,0,1-.068-.159l-.172-.475c-.07-.214-.175-.459-.261-.787a4.026,4.026,0,0,1-.013-1.136c.091-.849.294-1.862.487-3.053.053-.3.082-.61.151-.93a3.588,3.588,0,0,1,.132-.487.886.886,0,0,1,.314-.461.651.651,0,0,1,.593-.008c.236.135.244.361.285.538a6.055,6.055,0,0,1,.016,1.134c-.037.763-.156,1.564-.139,2.375a1.629,1.629,0,0,0,.036.288c.022.1.072.135.061.116.018,0,.094-.083.138-.162a2.341,2.341,0,0,0,.128-.277,7.186,7.186,0,0,0,.33-1.255c.084-.434.112-.887.173-1.353s.124-.932.2-1.407.157-.956.255-1.444a6.823,6.823,0,0,1,.42-1.482.479.479,0,0,1,.176-.193.894.894,0,0,1,.211-.088.607.607,0,0,1,.48.075,1.1,1.1,0,0,1,.41.768,3.053,3.053,0,0,1,0,.821c-.03.258-.051.52-.07.784a16.142,16.142,0,0,0,.035,3.217,1.931,1.931,0,0,0,.1.372.435.435,0,0,0,.075.13.051.051,0,0,0,.025.02h0c-.009.118,0,.025,0,.048,0-.022-.007-.018-.021-.043a.949.949,0,0,0,.146-.276c.044-.126.084-.256.118-.39.137-.536.229-1.1.314-1.661.167-1.13.294-2.29.4-3.462v.025a1.92,1.92,0,0,1,.254-1.191.622.622,0,0,1,.7-.205.884.884,0,0,1,.431.55,6.256,6.256,0,0,1,.194,1.894c-.01.622-.053,1.236-.11,1.843s-.131,1.208-.216,1.8q-.069.445-.137.887c-.037.187-.028.193.028.248a.212.212,0,0,0,.234-.009c.064-.043.072-.131.085-.294l.039-.436q.044-.436.087-.868c.063-.576.14-1.145.239-1.706a11.183,11.183,0,0,1,.4-1.651,3.446,3.446,0,0,1,.365-.78,1.127,1.127,0,0,1,.323-.333.559.559,0,0,1,.522-.075.583.583,0,0,1,.274.443,2.348,2.348,0,0,1,.027.427,7.288,7.288,0,0,1-.068.808c-.07.527-.164,1.039-.253,1.543a12.375,12.375,0,0,0-.311,2.912,1.093,1.093,0,0,0,.08.306.463.463,0,0,0,.065.1c0-.006,0-.009-.012.023s0-.009-.005,0c-.019-.031-.005-.022,0-.033a2.054,2.054,0,0,0,.246-.59c.131-.438.235-.882.348-1.314s.227-.857.376-1.267a3.341,3.341,0,0,1,.274-.6,1.01,1.01,0,0,1,.229-.266.471.471,0,0,1,.179-.089.562.562,0,0,1,.193,0,.388.388,0,0,1,.317.233.958.958,0,0,1,.065.333,3.989,3.989,0,0,1-.033.607c-.047.391-.12.765-.191,1.127-.146.722-.3,1.4-.5,2.026-.376,1.246-.752,2.3-1.063,3.16s-.567,1.522-.743,1.97l-.2.508A.847.847,0,0,1,145.659,139.193Z" transform="translate(-136.998 -125.549)" fill="#eb996e"/>
                </g>
              </g>
            </g>
          </g>
          <g id="Group_7123" data-name="Group 7123" transform="translate(0 23.305)">
            <path id="Path_5891" data-name="Path 5891" d="M99.654,176.439c.954,3.368,2.819,8.571,4.823,14.056a.952.952,0,0,0,1.754.081l4.915-10.39s-1.183-8.536-1.083-8.235-10.14,1.1-10.14,1.1Z" transform="translate(-99.654 -171.943)" fill="#797979"/>
          </g>
        </g>
        <g id="Group_7125" data-name="Group 7125" transform="translate(1.317 26.121)">
          <path id="Path_5892" data-name="Path 5892" d="M112.028,177.553c.011.042-.61.222-1.583.593a22.24,22.24,0,0,0-6.909,4.189c-.779.691-1.226,1.159-1.258,1.13a1.547,1.547,0,0,1,.275-.365c.188-.226.48-.535.857-.9a18.666,18.666,0,0,1,6.972-4.228c.5-.165.908-.281,1.2-.343A1.546,1.546,0,0,1,112.028,177.553Z" transform="translate(-102.277 -177.548)" fill="#fafafa"/>
        </g>
        <g id="Group_7126" data-name="Group 7126" transform="translate(9.521 20.308)">
          <path id="Path_5893" data-name="Path 5893" d="M122.1,174.385a5.315,5.315,0,0,1-.82-1.073,17.836,17.836,0,0,1-2.486-6,5.315,5.315,0,0,1-.18-1.338,9.756,9.756,0,0,1,.36,1.3,23.741,23.741,0,0,0,2.464,5.944A9.841,9.841,0,0,1,122.1,174.385Z" transform="translate(-118.608 -165.976)" fill="#263238"/>
        </g>
      </g>
      <g id="Group_7130" data-name="Group 7130" transform="translate(19.845 0.914)">
        <path id="Path_5894" data-name="Path 5894" d="M124.637,90.091a11.05,11.05,0,0,0-.959,9.448c.5,1.38,1.3,2.743,1.158,4.208-.15,1.5-1.288,2.917-.886,4.369.238.858.974,1.494,1.256,2.338a6.681,6.681,0,0,1-.172,3.1c-.4,2.631.44,5.276.648,7.93s-.507,5.76-2.874,6.917a2.073,2.073,0,0,1-2.258-.083c-.76-.681-.548-1.9-.34-2.909,2.08-10.056-4.345-19.852-2.877-30.018.235-1.629,1.145-4.394,2.318-5.534s4.417-1,5.528.2" transform="translate(-109.977 -88.263)" fill="#263238"/>
        <g id="Group_7128" data-name="Group 7128" transform="translate(4.764 0.085)">
          <path id="Path_5895" data-name="Path 5895" d="M112.393,118.519c-.021-.018.3-.362.755-1.074a9.656,9.656,0,0,0,1.312-3.289,9.779,9.779,0,0,0,.155-2.443,26.587,26.587,0,0,1-.1-2.854,6.109,6.109,0,0,1,.288-1.539,8.445,8.445,0,0,1,.69-1.475c.562-.951,1.274-1.836,1.926-2.781a7.618,7.618,0,0,0,1.367-2.995,9.394,9.394,0,0,0-.175-3.082,11.474,11.474,0,0,1-.222-2.855,9.6,9.6,0,0,1,.481-2.451,9.409,9.409,0,0,1,1.776-3.126,6.955,6.955,0,0,1,.684-.7,1.7,1.7,0,0,1,.264-.216c.02.021-.339.328-.87.983a9.758,9.758,0,0,0-1.678,3.119,9.576,9.576,0,0,0-.441,2.406,11.408,11.408,0,0,0,.243,2.8,9.508,9.508,0,0,1,.19,3.164,7.806,7.806,0,0,1-1.4,3.1c-.66.958-1.369,1.837-1.92,2.764a8.25,8.25,0,0,0-.674,1.425,5.894,5.894,0,0,0-.285,1.475,27.4,27.4,0,0,0,.08,2.829,9.794,9.794,0,0,1-.19,2.49,9.3,9.3,0,0,1-1.409,3.308,8.112,8.112,0,0,1-.6.776A1.638,1.638,0,0,1,112.393,118.519Z" transform="translate(-112.392 -87.634)" fill="#455a64"/>
        </g>
        <g id="Group_7129" data-name="Group 7129">
          <path id="Path_5896" data-name="Path 5896" d="M102.909,119.186a2,2,0,0,1,.156-.337l.488-.943c.42-.819,1.05-2,1.669-3.52a15.309,15.309,0,0,0,1.227-5.582,10.262,10.262,0,0,0-.123-1.648c-.086-.558-.216-1.128-.3-1.722a4.848,4.848,0,0,1,.038-1.848,3.328,3.328,0,0,1,1.022-1.612c.947-.861,2.089-1.422,2.679-2.429a8.239,8.239,0,0,0,.891-3.222,12.75,12.75,0,0,1,.692-3.035,10.834,10.834,0,0,1,4.067-5.133,8.022,8.022,0,0,1,.919-.538,1.967,1.967,0,0,1,.339-.153c.014.025-.451.245-1.2.775a10.972,10.972,0,0,0-2.7,2.757,10.63,10.63,0,0,0-1.223,2.367,12.68,12.68,0,0,0-.656,2.991,8.391,8.391,0,0,1-.911,3.323c-.639,1.085-1.822,1.662-2.72,2.487a3.074,3.074,0,0,0-.948,1.486,4.613,4.613,0,0,0-.036,1.747c.08.58.207,1.149.293,1.719a10.469,10.469,0,0,1,.117,1.688,15.2,15.2,0,0,1-1.3,5.651,34.426,34.426,0,0,1-1.751,3.5l-.531.92A1.936,1.936,0,0,1,102.909,119.186Z" transform="translate(-102.908 -87.464)" fill="#455a64"/>
        </g>
      </g>
    </g>
    <g id="Plant" transform="translate(214.699 164.901)">
      <g id="Group_7227" data-name="Group 7227">
        <g id="Group_7218" data-name="Group 7218">
          <g id="Group_7133" data-name="Group 7133" transform="translate(6.131)">
            <g id="Group_7132" data-name="Group 7132">
              <g id="Group_7131" data-name="Group 7131">
                <path id="Path_5897" data-name="Path 5897" d="M425.375,349.1a1.216,1.216,0,0,1,.088-.213l.285-.607a15.24,15.24,0,0,0,.836-2.429,21.437,21.437,0,0,0-.071-9.382,50.372,50.372,0,0,0-1.74-6.3c-.737-2.236-1.592-4.609-2.291-7.174a27.754,27.754,0,0,1-1.131-8.248,32.3,32.3,0,0,1,1.92-8.729,42.427,42.427,0,0,0,2.222-8.6,13.1,13.1,0,0,0-1.576-7.939c-1.257-2.317-2.839-4.3-4.023-6.35a22.063,22.063,0,0,1-2.418-6.1,22.729,22.729,0,0,1-.153-9.457,17.617,17.617,0,0,1,.987-3.34,1.348,1.348,0,0,1-.059.222l-.2.64a24.277,24.277,0,0,0-.614,2.5,23.04,23.04,0,0,0,.246,9.387A22,22,0,0,0,420.109,283c1.181,2.028,2.77,4,4.052,6.345a13.369,13.369,0,0,1,1.625,8.1,42.365,42.365,0,0,1-2.229,8.66,32.2,32.2,0,0,0-1.911,8.647,27.62,27.62,0,0,0,1.1,8.165c.687,2.552,1.533,4.926,2.26,7.169a49.687,49.687,0,0,1,1.711,6.339,21.2,21.2,0,0,1-.024,9.451,14.021,14.021,0,0,1-.9,2.426l-.312.6A1.371,1.371,0,0,1,425.375,349.1Z" transform="translate(-416.899 -264.226)" fill="#263238"/>
              </g>
            </g>
          </g>
          <g id="Group_7139" data-name="Group 7139" transform="translate(10.066 8.654)">
            <g id="Group_7135" data-name="Group 7135">
              <g id="Group_7134" data-name="Group 7134">
                <path id="Path_5898" data-name="Path 5898" d="M425.4,293.727s-2.4-7.688,1.908-12.189a.267.267,0,0,1,.457.132C428,282.94,428.283,286.806,425.4,293.727Z" transform="translate(-424.732 -281.454)" fill="#797979"/>
              </g>
            </g>
            <g id="Group_7138" data-name="Group 7138" transform="translate(0.581 2.646)">
              <g id="Group_7137" data-name="Group 7137">
                <g id="Group_7136" data-name="Group 7136">
                  <path id="Path_5899" data-name="Path 5899" d="M427.416,286.721a7.058,7.058,0,0,1-.162,1.418c-.158.977-.344,2.124-.549,3.391s-.383,2.414-.538,3.391a7.7,7.7,0,0,1-.255,1.4,5.92,5.92,0,0,1,.043-1.429c.079-.878.234-2.087.452-3.413s.448-2.521.636-3.381A6.439,6.439,0,0,1,427.416,286.721Z" transform="translate(-425.889 -286.721)" fill="#263238"/>
                </g>
              </g>
            </g>
          </g>
          <g id="Group_7145" data-name="Group 7145" transform="translate(13.511 29.162)">
            <g id="Group_7141" data-name="Group 7141" transform="translate(0.047)">
              <g id="Group_7140" data-name="Group 7140">
                <path id="Path_5900" data-name="Path 5900" d="M431.684,332.176s1.47-7.919,7.387-9.881a.267.267,0,0,1,.342.331C439.023,323.855,437.469,327.408,431.684,332.176Z" transform="translate(-431.684 -322.281)" fill="#797979"/>
              </g>
            </g>
            <g id="Group_7144" data-name="Group 7144" transform="translate(0 2.059)">
              <g id="Group_7143" data-name="Group 7143">
                <g id="Group_7142" data-name="Group 7142">
                  <path id="Path_5901" data-name="Path 5901" d="M437.413,326.38a7.071,7.071,0,0,1-.807,1.178l-2.07,2.74-2.062,2.745a7.758,7.758,0,0,1-.881,1.121,5.935,5.935,0,0,1,.706-1.243c.481-.739,1.183-1.735,2-2.806s1.575-2.018,2.143-2.691A6.429,6.429,0,0,1,437.413,326.38Z" transform="translate(-431.59 -326.379)" fill="#263238"/>
                </g>
              </g>
            </g>
          </g>
          <g id="Group_7151" data-name="Group 7151" transform="translate(11.895 47.274)">
            <g id="Group_7147" data-name="Group 7147" transform="translate(0.004)">
              <g id="Group_7146" data-name="Group 7146">
                <path id="Path_5902" data-name="Path 5902" d="M428.441,369.987s-.893-8.005,4.2-11.6a.267.267,0,0,1,.423.217C433.047,359.893,432.592,363.744,428.441,369.987Z" transform="translate(-428.381 -358.335)" fill="#797979"/>
              </g>
            </g>
            <g id="Group_7150" data-name="Group 7150" transform="translate(0 2.475)">
              <g id="Group_7149" data-name="Group 7149">
                <g id="Group_7148" data-name="Group 7148">
                  <path id="Path_5903" data-name="Path 5903" d="M431.688,363.264a7.1,7.1,0,0,1-.43,1.361l-1.185,3.224-1.175,3.225a7.678,7.678,0,0,1-.518,1.329,6,6,0,0,1,.315-1.394c.246-.847.628-2,1.1-3.264s.921-2.389,1.27-3.2A6.4,6.4,0,0,1,431.688,363.264Z" transform="translate(-428.373 -363.263)" fill="#263238"/>
                </g>
              </g>
            </g>
          </g>
          <g id="Group_7157" data-name="Group 7157" transform="translate(16.355 67.421)">
            <g id="Group_7153" data-name="Group 7153" transform="translate(0.04)">
              <g id="Group_7152" data-name="Group 7152">
                <path id="Path_5904" data-name="Path 5904" d="M437.352,409.93s-.606-8.032,4.612-11.443a.266.266,0,0,1,.415.232C442.316,400.007,441.723,403.84,437.352,409.93Z" transform="translate(-437.33 -398.442)" fill="#797979"/>
              </g>
            </g>
            <g id="Group_7156" data-name="Group 7156" transform="translate(0 2.434)">
              <g id="Group_7155" data-name="Group 7155">
                <g id="Group_7154" data-name="Group 7154">
                  <path id="Path_5905" data-name="Path 5905" d="M440.889,403.289a7.052,7.052,0,0,1-.478,1.345l-1.3,3.179-1.29,3.182a7.7,7.7,0,0,1-.565,1.31,5.939,5.939,0,0,1,.365-1.382c.276-.838.7-1.98,1.211-3.223s1.006-2.354,1.383-3.15A6.418,6.418,0,0,1,440.889,403.289Z" transform="translate(-437.25 -403.288)" fill="#263238"/>
                </g>
              </g>
            </g>
          </g>
          <g id="Group_7163" data-name="Group 7163" transform="translate(0 3.935)">
            <g id="Group_7159" data-name="Group 7159">
              <g id="Group_7158" data-name="Group 7158">
                <path id="Path_5906" data-name="Path 5906" d="M411.972,282.3s-7.14-3.729-7.279-9.961a.266.266,0,0,1,.416-.23C406.17,272.84,409.11,275.368,411.972,282.3Z" transform="translate(-404.693 -272.059)" fill="#797979"/>
              </g>
            </g>
            <g id="Group_7162" data-name="Group 7162" transform="translate(1.48 2.418)">
              <g id="Group_7161" data-name="Group 7161">
                <g id="Group_7160" data-name="Group 7160">
                  <path id="Path_5907" data-name="Path 5907" d="M407.641,276.872a7.075,7.075,0,0,1,.89,1.116l2.012,2.783,2.02,2.776a7.7,7.7,0,0,1,.813,1.171,5.953,5.953,0,0,1-.981-1.04c-.566-.677-1.312-1.64-2.1-2.731s-1.468-2.1-1.944-2.839A6.418,6.418,0,0,1,407.641,276.872Z" transform="translate(-407.638 -276.871)" fill="#263238"/>
                </g>
              </g>
            </g>
          </g>
          <g id="Group_7169" data-name="Group 7169" transform="translate(7.074 20.889)">
            <g id="Group_7165" data-name="Group 7165">
              <g id="Group_7164" data-name="Group 7164">
                <path id="Path_5908" data-name="Path 5908" d="M426.647,315.6s-7.353-3.288-7.871-9.5a.266.266,0,0,1,.4-.255C420.282,306.516,423.37,308.86,426.647,315.6Z" transform="translate(-418.775 -305.81)" fill="#797979"/>
              </g>
            </g>
            <g id="Group_7168" data-name="Group 7168" transform="translate(1.608 2.339)">
              <g id="Group_7167" data-name="Group 7167">
                <g id="Group_7166" data-name="Group 7166">
                  <path id="Path_5909" data-name="Path 5909" d="M421.98,310.468a7.036,7.036,0,0,1,.955,1.06l2.178,2.656,2.185,2.648a7.7,7.7,0,0,1,.883,1.12,5.942,5.942,0,0,1-1.042-.979c-.606-.641-1.409-1.557-2.258-2.6s-1.592-2-2.113-2.715A6.431,6.431,0,0,1,421.98,310.468Z" transform="translate(-421.977 -310.467)" fill="#263238"/>
                </g>
              </g>
            </g>
          </g>
          <g id="Group_7175" data-name="Group 7175" transform="translate(7.403 36.887)">
            <g id="Group_7171" data-name="Group 7171">
              <g id="Group_7170" data-name="Group 7170">
                <path id="Path_5910" data-name="Path 5910" d="M422.742,349.869s-5.048-6.277-2.68-12.042a.266.266,0,0,1,.473-.044C421.214,338.879,422.9,342.373,422.742,349.869Z" transform="translate(-419.43 -337.657)" fill="#797979"/>
              </g>
            </g>
            <g id="Group_7174" data-name="Group 7174" transform="translate(1.12 2.724)">
              <g id="Group_7173" data-name="Group 7173">
                <g id="Group_7172" data-name="Group 7172">
                  <path id="Path_5911" data-name="Path 5911" d="M421.672,343.08a7.055,7.055,0,0,1,.368,1.379c.21.967.457,2.1.729,3.357l.739,3.353a7.743,7.743,0,0,1,.276,1.4,5.957,5.957,0,0,1-.482-1.346c-.248-.846-.545-2.028-.827-3.342s-.5-2.51-.644-3.38A6.375,6.375,0,0,1,421.672,343.08Z" transform="translate(-421.66 -343.08)" fill="#263238"/>
                </g>
              </g>
            </g>
          </g>
          <g id="Group_7181" data-name="Group 7181" transform="translate(8.005 60.849)">
            <g id="Group_7177" data-name="Group 7177">
              <g id="Group_7176" data-name="Group 7176">
                <path id="Path_5912" data-name="Path 5912" d="M428.34,395.28s-7.3-3.411-7.71-9.631a.267.267,0,0,1,.406-.248C422.127,386.087,425.176,388.483,428.34,395.28Z" transform="translate(-420.629 -385.359)" fill="#797979"/>
              </g>
            </g>
            <g id="Group_7180" data-name="Group 7180" transform="translate(1.573 2.362)">
              <g id="Group_7179" data-name="Group 7179">
                <g id="Group_7178" data-name="Group 7178">
                  <path id="Path_5913" data-name="Path 5913" d="M423.763,390.062a7.1,7.1,0,0,1,.938,1.076l2.133,2.692,2.14,2.684a7.728,7.728,0,0,1,.864,1.134,5.948,5.948,0,0,1-1.026-1c-.595-.651-1.382-1.581-2.215-2.636s-1.558-2.031-2.067-2.751A6.4,6.4,0,0,1,423.763,390.062Z" transform="translate(-423.761 -390.061)" fill="#263238"/>
                </g>
              </g>
            </g>
          </g>
          <g id="Group_7217" data-name="Group 7217" transform="translate(13.93 37.269)">
            <g id="Group_7184" data-name="Group 7184" transform="translate(2.387 1.832)">
              <g id="Group_7183" data-name="Group 7183">
                <g id="Group_7182" data-name="Group 7182">
                  <path id="Path_5914" data-name="Path 5914" d="M451.108,342.066a.623.623,0,0,1,.009.177c0,.14-.008.309-.013.515-.022.484-.05,1.137-.086,1.953-.094,1.717-.226,4.111-.382,6.974v.007l0,.01a27.067,27.067,0,0,1-4,9.282c-1.463,2.311-3,4.411-4.318,6.364a45.077,45.077,0,0,0-3.238,5.352,22.713,22.713,0,0,0-1.515,3.927c-.128.481-.225.856-.28,1.113a2,2,0,0,1-.107.388,2.052,2.052,0,0,1,.047-.4c.036-.262.115-.643.226-1.131a20.707,20.707,0,0,1,1.437-3.991,42.719,42.719,0,0,1,3.2-5.414c1.313-1.967,2.838-4.071,4.293-6.37a27.441,27.441,0,0,0,4-9.171l0,.017c.2-2.861.369-5.252.489-6.968.066-.814.119-1.466.158-1.949l.052-.512A.581.581,0,0,1,451.108,342.066Z" transform="translate(-437.175 -342.066)" fill="#263238"/>
                </g>
              </g>
            </g>
            <g id="Group_7192" data-name="Group 7192" transform="translate(10.357 7.736)">
              <g id="Group_7186" data-name="Group 7186">
                <g id="Group_7185" data-name="Group 7185">
                  <path id="Path_5915" data-name="Path 5915" d="M454.66,366.234s3.09-7.438-.8-12.312a.266.266,0,0,0-.467.09C453.052,355.256,452.415,359.081,454.66,366.234Z" transform="translate(-453.042 -353.819)" fill="#797979"/>
                </g>
              </g>
              <g id="Group_7189" data-name="Group 7189" transform="translate(1.033 2.696)">
                <g id="Group_7188" data-name="Group 7188">
                  <g id="Group_7187" data-name="Group 7187">
                    <path id="Path_5916" data-name="Path 5916" d="M455.121,359.187a6.435,6.435,0,0,1,.245,1.408c.109.874.232,2.084.328,3.425s.142,2.558.142,3.44a5.959,5.959,0,0,1-.086,1.427,7.68,7.68,0,0,1-.127-1.421c-.066-.987-.143-2.145-.229-3.425s-.17-2.439-.239-3.426A7.024,7.024,0,0,1,455.121,359.187Z" transform="translate(-455.098 -359.187)" fill="#263238"/>
                  </g>
                </g>
              </g>
            </g>
            <g id="Group_7200" data-name="Group 7200" transform="translate(0 25.783)">
              <g id="Group_7194" data-name="Group 7194">
                <g id="Group_7193" data-name="Group 7193">
                  <path id="Path_5918" data-name="Path 5918" d="M434.827,402.037s2.477-7.665-1.793-12.206a.266.266,0,0,0-.458.128C432.334,391.226,432.01,395.09,434.827,402.037Z" transform="translate(-432.423 -389.745)" fill="#797979"/>
                </g>
              </g>
              <g id="Group_7197" data-name="Group 7197" transform="translate(1.043 2.652)">
                <g id="Group_7196" data-name="Group 7196">
                  <g id="Group_7195" data-name="Group 7195">
                    <path id="Path_5919" data-name="Path 5919" d="M434.512,395.025a6.435,6.435,0,0,1,.358,1.383c.18.862.4,2.059.6,3.387s.349,2.538.42,3.417a5.91,5.91,0,0,1,.029,1.429,7.791,7.791,0,0,1-.241-1.4c-.146-.979-.317-2.127-.506-3.4l-.516-3.4A7.04,7.04,0,0,1,434.512,395.025Z" transform="translate(-434.499 -395.025)" fill="#263238"/>
                  </g>
                </g>
              </g>
            </g>
            <g id="Group_7208" data-name="Group 7208" transform="translate(15.911)">
              <g id="Group_7202" data-name="Group 7202">
                <g id="Group_7201" data-name="Group 7201">
                  <path id="Path_5921" data-name="Path 5921" d="M464.1,349.479s6.6-4.619,5.932-10.817a.266.266,0,0,0-.442-.175C468.63,339.352,466.04,342.238,464.1,349.479Z" transform="translate(-464.097 -338.419)" fill="#797979"/>
                </g>
              </g>
              <g id="Group_7207" data-name="Group 7207" transform="translate(0.061 2.557)">
                <g id="Group_7206" data-name="Group 7206">
                  <g id="Group_7205" data-name="Group 7205">
                    <path id="Path_5923" data-name="Path 5923" d="M468.9,343.509a6.427,6.427,0,0,1-.548,1.319c-.377.8-.923,1.883-1.561,3.066s-1.253,2.235-1.727,2.979a5.924,5.924,0,0,1-.838,1.158,7.733,7.733,0,0,1,.656-1.266l1.644-3.013,1.637-3.02A7.083,7.083,0,0,1,468.9,343.509Z" transform="translate(-464.219 -343.509)" fill="#263238"/>
                  </g>
                </g>
              </g>
            </g>
            <g id="Group_7216" data-name="Group 7216" transform="translate(5.065 23.016)">
              <g id="Group_7210" data-name="Group 7210">
                <g id="Group_7209" data-name="Group 7209">
                  <path id="Path_5924" data-name="Path 5924" d="M442.506,391.7s7.958-1.241,10.09-7.1a.267.267,0,0,0-.321-.352C451.036,384.6,447.439,386.054,442.506,391.7Z" transform="translate(-442.506 -384.238)" fill="#797979"/>
                </g>
              </g>
              <g id="Group_7215" data-name="Group 7215" transform="translate(0.049 1.911)">
                <g id="Group_7214" data-name="Group 7214">
                  <g id="Group_7213" data-name="Group 7213">
                    <path id="Path_5926" data-name="Path 5926" d="M450.554,388.046a6.4,6.4,0,0,1-1.073.943c-.689.549-1.658,1.284-2.752,2.065s-2.109,1.455-2.862,1.914a5.935,5.935,0,0,1-1.262.67,7.755,7.755,0,0,1,1.146-.848l2.8-1.981,2.8-1.99A7.085,7.085,0,0,1,450.554,388.046Z" transform="translate(-442.603 -388.043)" fill="#263238"/>
                  </g>
                </g>
              </g>
            </g>
          </g>
        </g>
        <g id="Group_7220" data-name="Group 7220" transform="translate(9.081 82.392)">
          <g id="Group_7219" data-name="Group 7219">
            <path id="Path_5927" data-name="Path 5927" d="M425.092,428.246l-2.322,15.625h14.467l-1.876-15.625Z" transform="translate(-422.77 -428.246)" fill="#797979"/>
          </g>
        </g>
        <g id="Group_7223" data-name="Group 7223" transform="translate(10.583 87.083)">
          <g id="Group_7222" data-name="Group 7222">
            <g id="Group_7221" data-name="Group 7221">
              <path id="Path_5928" data-name="Path 5928" d="M437.429,437.736a113.373,113.373,0,0,1-11.668,0,113.006,113.006,0,0,1,11.668,0Z" transform="translate(-425.761 -437.585)" fill="#263238"/>
            </g>
          </g>
        </g>
        <g id="Group_7226" data-name="Group 7226" transform="translate(10.488 88.327)">
          <g id="Group_7225" data-name="Group 7225">
            <g id="Group_7224" data-name="Group 7224">
              <path id="Path_5929" data-name="Path 5929" d="M437.621,440.211c0,.083-2.7.15-6.025.15s-6.025-.067-6.025-.15,2.7-.151,6.025-.151S437.621,440.127,437.621,440.211Z" transform="translate(-425.571 -440.06)" fill="#263238"/>
            </g>
          </g>
        </g>
      </g>
    </g>
    <g id="Boxes" transform="translate(112.864 95.675)">
      <g id="Group_7236" data-name="Group 7236">
        <g id="Group_7228" data-name="Group 7228" transform="translate(39.18)">
          <path id="Path_5930" data-name="Path 5930" d="M308.9,126.479s-.134,0-.393-.006a9.476,9.476,0,0,0-1.149.007,12.761,12.761,0,0,0-4.28.987,13.166,13.166,0,0,0-5.437,4.237,11.823,11.823,0,0,0-1.9,3.883,13.047,13.047,0,0,0,1.338,9.881,11.329,11.329,0,0,0,1.709,2.267,9.163,9.163,0,0,0,2.311,1.808,5.67,5.67,0,0,0,2.9.73,4.174,4.174,0,0,0,2.808-1.133,4.063,4.063,0,0,0,1.119-2.9,5.311,5.311,0,0,0-1.019-3.078,10.531,10.531,0,0,0-5.657-3.73,13.916,13.916,0,0,0-7.135-.1,14.747,14.747,0,0,0-3.436,1.366,12.443,12.443,0,0,0-2.95,2.314c-.206.24-.441.456-.624.715l-.567.766a13.313,13.313,0,0,0-2.017,5.377,14.034,14.034,0,0,0,1.014,7.536,11.6,11.6,0,0,0,4.85,5.5,7.986,7.986,0,0,0,3.435,1.044,6.089,6.089,0,0,0,3.39-.814,5.345,5.345,0,0,0,2.293-2.5,4.551,4.551,0,0,0,.053-3.285,6.564,6.564,0,0,0-1.889-2.671,8.574,8.574,0,0,0-2.778-1.614,10.79,10.79,0,0,0-6.115-.106,11.939,11.939,0,0,0-5.016,2.8,11.446,11.446,0,0,0-2.876,4.457,12.912,12.912,0,0,0,.132,9.025,13.66,13.66,0,0,0,4.139,5.521,14.588,14.588,0,0,0,3.8,2.215c.472.18.836.308,1.086.378s.373.124.373.124-.13-.029-.38-.1-.62-.181-1.1-.354a14.286,14.286,0,0,1-3.847-2.184,13.707,13.707,0,0,1-4.211-5.547,13.045,13.045,0,0,1-.17-9.141,11.626,11.626,0,0,1,2.911-4.541,12.135,12.135,0,0,1,5.1-2.86,11,11,0,0,1,6.246.1,8.8,8.8,0,0,1,2.859,1.655,6.787,6.787,0,0,1,1.961,2.767,4.792,4.792,0,0,1-.052,3.461,5.592,5.592,0,0,1-2.4,2.62,6.343,6.343,0,0,1-3.528.85,8.236,8.236,0,0,1-3.546-1.073,11.85,11.85,0,0,1-4.964-5.622,14.28,14.28,0,0,1-1.035-7.677,13.583,13.583,0,0,1,2.059-5.486l.58-.783c.188-.264.427-.486.638-.73a12.719,12.719,0,0,1,3.013-2.361,15.01,15.01,0,0,1,3.5-1.389,14.159,14.159,0,0,1,7.267.107,10.767,10.767,0,0,1,5.785,3.833,5.556,5.556,0,0,1,1.057,3.216,4.3,4.3,0,0,1-1.194,3.059,4.4,4.4,0,0,1-2.962,1.193,5.889,5.889,0,0,1-3.01-.763,9.358,9.358,0,0,1-2.359-1.854,11.516,11.516,0,0,1-1.733-2.311,13.212,13.212,0,0,1-1.324-10.027,11.938,11.938,0,0,1,1.941-3.926,13.214,13.214,0,0,1,5.515-4.243,12.564,12.564,0,0,1,4.318-.945,8.487,8.487,0,0,1,1.153.02C308.767,126.464,308.9,126.479,308.9,126.479Z" transform="translate(-279.964 -126.416)" fill="#263238"/>
        </g>
        <rect id="Rectangle_308" data-name="Rectangle 308" width="70.432" height="54.323" transform="translate(14.46 50.326)" fill="#797979"/>
        <g id="Group_7230" data-name="Group 7230" transform="translate(14.46 50.198)">
          <path id="Path_5931" data-name="Path 5931" d="M230.753,226.6l13.009,12.134H313L301.185,226.6Z" transform="translate(-230.753 -226.473)" fill="#797979"/>
          <g id="Group_7229" data-name="Group 7229" transform="translate(0)">
            <path id="Path_5932" data-name="Path 5932" d="M230.753,226.475l70.432-.128h.054l.038.039,11.7,12.007.122.125.217.223H313l-69.238-.052h-.031l-.023-.021-12.955-12.192,13.063,12.076-.054-.021L313,238.478l-.093.222-.122-.125-11.692-12.01.092.039Z" transform="translate(-230.753 -226.346)" fill="#263238"/>
          </g>
        </g>
        <g id="Group_7232" data-name="Group 7232" transform="translate(34.176 75.375)">
          <path id="Path_5933" data-name="Path 5933" d="M271.441,276.468a1.442,1.442,0,1,0,.109,0" transform="translate(-270.003 -276.468)" fill="#263238"/>
          <path id="Path_5934" data-name="Path 5934" d="M304.547,276.468a1.443,1.443,0,1,0,.109,0" transform="translate(-286.478 -276.468)" fill="#263238"/>
          <g id="Group_7231" data-name="Group 7231" transform="translate(1.153 5.714)">
            <path id="Path_5935" data-name="Path 5935" d="M289.32,295.133a10.241,10.241,0,0,0-1.394-3.123,9.226,9.226,0,0,0-2.661-2.553,8.124,8.124,0,0,0-8.605-.236,9.216,9.216,0,0,0-2.8,2.4,10.247,10.247,0,0,0-1.563,3.041.826.826,0,0,1,.041-.238,5.276,5.276,0,0,1,.184-.667,8.046,8.046,0,0,1,1.191-2.249,9.154,9.154,0,0,1,2.826-2.5,8.254,8.254,0,0,1,8.854.243,9.155,9.155,0,0,1,2.684,2.652,8.058,8.058,0,0,1,1.065,2.311,5.35,5.35,0,0,1,.148.676A.836.836,0,0,1,289.32,295.133Z" transform="translate(-272.298 -287.843)" fill="#263238"/>
          </g>
        </g>
        <path id="Path_5936" data-name="Path 5936" d="M231.071,227.792l12.456,15.793h57.816v-4.257H243.92Z" transform="translate(-216.451 -176.868)" opacity="0.5"/>
        <g id="Group_7233" data-name="Group 7233" transform="translate(70.872 62.319)">
          <path id="Path_5937" data-name="Path 5937" d="M343.185,292.682c-.072,0-.131-9.449-.131-21.1s.059-21.1.131-21.1.131,9.447.131,21.1S343.257,292.682,343.185,292.682Z" transform="translate(-343.054 -250.476)" fill="#263238"/>
        </g>
        <rect id="Rectangle_309" data-name="Rectangle 309" width="6.208" height="7.018" transform="translate(75.854 92.21)" fill="#f5f5f5"/>
        <g id="Group_7235" data-name="Group 7235" transform="translate(0 50.326)">
          <path id="Path_5938" data-name="Path 5938" d="M216.427,226.6l-14.46,12.134h14.46Z" transform="translate(-201.967 -226.602)"/>
        </g>
      </g>
      <g id="Group_7240" data-name="Group 7240" transform="translate(5.99 104.48)">
        <g id="Group_7238" data-name="Group 7238" transform="translate(0 0)">
          <rect id="Rectangle_310" data-name="Rectangle 310" width="80.98" height="62.459" transform="translate(0 0.169)" fill="#797979"/>
          <rect id="Rectangle_311" data-name="Rectangle 311" width="80.98" height="62.459" transform="translate(0 0)" fill="silver" opacity="0.35"/>
          <g id="Group_7237" data-name="Group 7237" transform="translate(60.56 0)">
            <path id="Path_5940" data-name="Path 5940" d="M334.582,396.595c-.072,0-.131-13.922-.131-31.092s.058-31.095.131-31.095.131,13.919.131,31.095S334.654,396.595,334.582,396.595Z" transform="translate(-334.451 -334.408)" fill="#263238"/>
          </g>
          <rect id="Rectangle_312" data-name="Rectangle 312" width="6.208" height="7.018" transform="translate(67.905 48.411)" fill="#f5f5f5"/>
          <rect id="Rectangle_313" data-name="Rectangle 313" width="9.198" height="13.327" transform="translate(24.705 0.33)" fill="#263238"/>
          <rect id="Rectangle_314" data-name="Rectangle 314" width="9.198" height="13.327" transform="translate(24.705 49.115)" fill="#263238"/>
        </g>
        <g id="Group_7239" data-name="Group 7239" transform="translate(0 0.038)">
          <path id="Path_5941" data-name="Path 5941" d="M294.166,334.615a1.182,1.182,0,0,1-.207.013l-.608.013-2.339.025-8.6.041-28.379.038-28.384-.038-8.6-.041-2.339-.025-.608-.013a1.193,1.193,0,0,1-.207-.013,1.231,1.231,0,0,1,.207-.014l.608-.013,2.339-.025,8.6-.042,28.384-.039,28.379.039,8.6.042,2.339.025.608.013A1.219,1.219,0,0,1,294.166,334.615Z" transform="translate(-213.892 -334.483)" fill="#263238"/>
        </g>
      </g>
    </g>
    <g id="Speech_Bubble" data-name="Speech Bubble" transform="translate(28.998 62.8)">
      <g id="Group_7242" data-name="Group 7242">
        <g id="Group_7241" data-name="Group 7241">
          <path id="Path_5942" data-name="Path 5942" d="M66.36,90.356l-8.818-2.167.065-.011A14.66,14.66,0,0,1,50,90.461a15.929,15.929,0,0,1-4.717-.689,14.582,14.582,0,0,1-4.6-2.437,14.774,14.774,0,0,1-5.561-9.828A14.6,14.6,0,0,1,38.91,65.736a15.321,15.321,0,0,1,2.554-2.225c.477-.294.947-.6,1.438-.859l.75-.361.374-.179.388-.142A14.87,14.87,0,0,1,50.754,61a14.678,14.678,0,0,1,12.94,9.88,15.2,15.2,0,0,1,.814,4.761A14.616,14.616,0,0,1,62.4,83.283V83.2l3.964,7.153-4.1-7.075-.023-.04.024-.04a14.525,14.525,0,0,0,2.035-7.556,15.041,15.041,0,0,0-.825-4.684,14.447,14.447,0,0,0-12.735-9.675,14.622,14.622,0,0,0-6.216.953l-.381.14-.366.176-.735.354c-.481.254-.942.555-1.409.843a15.046,15.046,0,0,0-2.5,2.182,14.478,14.478,0,0,0,1.716,21.2,14.371,14.371,0,0,0,4.51,2.412,15.755,15.755,0,0,0,4.64.7,14.542,14.542,0,0,0,7.526-2.2l.031-.019.034.009Z" transform="translate(-35.012 -60.971)" fill="#fff"/>
        </g>
        <path id="Path_5943" data-name="Path 5943" d="M61.959,76.287l.466,7.366a1.2,1.2,0,0,0,1.122,1.118h0a1.2,1.2,0,0,0,1.259-1.062l.818-7.4a.938.938,0,0,0-.945-1.041l-1.8.025A.938.938,0,0,0,61.959,76.287Z" transform="translate(-48.422 -68.085)" fill="#797979"/>
        <path id="Path_5944" data-name="Path 5944" d="M65.537,100.093A1.8,1.8,0,1,1,64.4,97.82,1.8,1.8,0,0,1,65.537,100.093Z" transform="translate(-48.459 -79.264)" fill="#797979"/>
      </g>
    </g>
  </g>
</svg>
