<?xml version="1.0" standalone="no"?>
<!DOCTYPE svg PUBLIC "-//W3C//DTD SVG 20010904//EN"
 "http://www.w3.org/TR/2001/REC-SVG-20010904/DTD/svg10.dtd">
<svg version="1.0" xmlns="http://www.w3.org/2000/svg"
 width="600.000000pt" height="600.000000pt" viewBox="0 0 600.000000 600.000000"
 preserveAspectRatio="xMidYMid meet">
<metadata>
Created by potrace 1.14, written by Peter Selinger 2001-2017
</metadata>
<g transform="translate(0.000000,600.000000) scale(0.100000,-0.100000)"
fill="#000000" stroke="none">
<path d="M2450 5693 c-46 -18 -57 -44 -125 -293 -61 -223 -121 -363 -235 -545
-62 -99 -208 -315 -220 -325 -3 -3 -23 -30 -45 -60 -39 -54 -176 -220 -223
-270 -49 -52 -220 -268 -278 -350 -117 -166 -174 -260 -245 -400 -134 -266
-203 -491 -237 -765 -9 -81 -9 -372 1 -465 38 -347 181 -706 397 -995 99 -132
114 -150 233 -268 324 -321 717 -531 1162 -621 323 -66 652 -53 962 36 653
187 1178 665 1433 1303 52 132 109 344 125 471 4 27 10 76 15 109 7 59 6 373
-3 450 -15 130 -59 328 -107 480 -116 361 -313 715 -579 1040 -100 123 -115
139 -276 300 -165 166 -226 220 -490 440 -451 375 -724 550 -1075 690 -93 37
-160 51 -190 38z"/>
</g>
</svg>
