<svg xmlns="http://www.w3.org/2000/svg" width="495.132" height="443.85" viewBox="0 0 495.132 443.85">
  <defs>
    <style>
      .cls-1 {
        fill: #0f4d90;
      }

      .cls-2 {
        fill: #e0e0e0;
      }

      .cls-3 {
        fill: #fafafa;
      }

      .cls-4 {
        fill: #25aa25;
      }

      .cls-5 {
        fill: #767d92;
      }

      .cls-6 {
        fill: #f5f5f5;
      }

      .cls-7 {
        fill: #263238;
      }

      .cls-8 {
        fill: #ffbe9d;
      }

      .cls-9 {
        fill: #eb996e;
      }

      .cls-10 {
        fill: #455a64;
      }

      .cls-11 {
        fill: #797979;
      }

      .cls-12 {
        fill: #506680;
      }

      .cls-13 {
        opacity: 0.6;
      }

      .cls-14 {
        opacity: 0.3;
      }

      .cls-15 {
        fill: #152642;
      }

      .cls-16 {
        opacity: 0.5;
      }

      .cls-17 {
        fill: #fff;
      }
    </style>
  </defs>
  <g id="Group_7243" data-name="Group 7243" transform="translate(-22.927 -62.8)">
    <g id="Background_Complete" data-name="Background Complete" transform="translate(22.927 41.271)">
      <g id="Group_6902" data-name="Group 6902" transform="translate(157.459 368.569)">
        <g id="Group_6901" data-name="Group 6901">
          <rect id="Rectangle_287" data-name="Rectangle 287" class="cls-1" width="113.822" height="87.79" transform="translate(0 0.237)"/>
          <g id="Group_6900" data-name="Group 6900" transform="translate(85.02)">
            <path id="Path_5818" data-name="Path 5818" class="cls-2" d="M245.094,465.941c-.157,0-.285-19.569-.285-43.7s.128-43.706.285-43.706.284,19.564.284,43.706S245.252,465.941,245.094,465.941Z" transform="translate(-244.809 -378.533)"/>
          </g>
          <rect id="Rectangle_288" data-name="Rectangle 288" class="cls-3" width="8.726" height="9.864" transform="translate(95.445 68.045)"/>
          <rect id="Rectangle_289" data-name="Rectangle 289" class="cls-2" width="12.929" height="18.732" transform="translate(34.724 0.464)"/>
          <rect id="Rectangle_290" data-name="Rectangle 290" class="cls-2" width="12.929" height="18.732" transform="translate(34.724 69.033)"/>
        </g>
      </g>
      <g id="Group_6905" data-name="Group 6905" transform="translate(334.289 346.497)">
        <g id="Group_6904" data-name="Group 6904">
          <path id="Path_6545" data-name="Path 6545" class="cls-1" d="M0,0H143.516V110.692H0Z" transform="translate(0 0.299)"/>
          <g id="Group_6903" data-name="Group 6903" transform="translate(107.275)">
            <path id="Path_5819" data-name="Path 5819" class="cls-2" d="M427.267,468.546c-.157,0-.284-24.673-.284-55.1s.127-55.107.284-55.107.285,24.667.285,55.107S427.424,468.546,427.267,468.546Z" transform="translate(-426.983 -358.336)"/>
          </g>
          <rect id="Rectangle_292" data-name="Rectangle 292" class="cls-3" width="11.003" height="12.438" transform="translate(120.345 85.796)"/>
          <rect id="Rectangle_293" data-name="Rectangle 293" class="cls-2" width="16.302" height="23.619" transform="translate(43.783 0.584)"/>
          <rect id="Rectangle_294" data-name="Rectangle 294" class="cls-2" width="16.302" height="23.619" transform="translate(43.783 87.043)"/>
        </g>
      </g>
      <g id="Group_6948" data-name="Group 6948" transform="translate(0 271.678)">
        <g id="Group_6927" data-name="Group 6927">
          <g id="Group_6908" data-name="Group 6908" transform="translate(57.002 75.515)">
            <g id="Group_6907" data-name="Group 6907">
              <g id="Group_6906" data-name="Group 6906">
                <path id="Path_5820" data-name="Path 5820" class="cls-4" d="M82.053,361.832c5.808-3,12.648-3.387,19.1-2.32,3.464.573,7.076,1.609,9.433,4.211s2.8,7.182.1,9.418c-1.611,1.331-3.858,1.533-5.948,1.509-5.048-.059-10.65-.948-14.682,2.091-2.3,1.732-3.833,4.613-6.584,5.465-2.691.834-5.729-.754-7.155-3.183a11.116,11.116,0,0,1-.81-8.2A12.525,12.525,0,0,1,82.053,361.832Z" transform="translate(-75.088 -358.973)"/>
              </g>
            </g>
          </g>
          <g id="Group_6911" data-name="Group 6911" transform="translate(47.306)">
            <g id="Group_6910" data-name="Group 6910" transform="translate(0)">
              <g id="Group_6909" data-name="Group 6909">
                <path id="Path_5821" data-name="Path 5821" class="cls-4" d="M69.569,342.557c3.552,5.072,10.455,3.392,13.656.3s4.553-7.584,5.784-11.864c2.814-9.778,5.651-20.036,3.558-29.993a16.653,16.653,0,0,0-3.83-8.155,8.7,8.7,0,0,0-8.249-2.745c-3.482.919-5.644,4.329-7.208,7.571a71.509,71.509,0,0,0-7.065,30.683c-.017,4.942.566,10.125,3.354,14.206" transform="translate(-66.215 -289.872)"/>
              </g>
            </g>
          </g>
          <g id="Group_6914" data-name="Group 6914" transform="translate(0 16.323)">
            <g id="Group_6913" data-name="Group 6913">
              <g id="Group_6912" data-name="Group 6912">
                <path id="Path_5822" data-name="Path 5822" class="cls-4" d="M63.833,348.449c3.857-4.577,4.589-11.253,2.873-16.986s-5.593-10.612-10.061-14.595a54.184,54.184,0,0,0-18.016-10.63,19.211,19.211,0,0,0-8.1-1.376,8.506,8.506,0,0,0-6.8,4.113c-1.9,3.616-.078,8,1.888,11.581a137.377,137.377,0,0,0,11.833,18.02c3.546,4.572,7.609,9.082,13.014,11.149s11.02,1.823,13.885-1.926" transform="translate(-22.927 -304.808)"/>
              </g>
            </g>
          </g>
          <g id="Group_6918" data-name="Group 6918" transform="translate(50.354 82.559)">
            <g id="Group_6917" data-name="Group 6917">
              <g id="Group_6916" data-name="Group 6916">
                <g id="Group_6915" data-name="Group 6915">
                  <path id="Path_5823" data-name="Path 5823" class="cls-2" d="M69.07,412.068a11.173,11.173,0,0,0,.321-2.3c.163-1.677.368-3.784.612-6.291a90.785,90.785,0,0,1,1.415-9.227,71.172,71.172,0,0,1,3.354-10.891,40.142,40.142,0,0,1,5.561-9.854,20.748,20.748,0,0,1,7.03-5.844,19.668,19.668,0,0,1,5.921-1.845,11.02,11.02,0,0,0,2.295-.332,10.88,10.88,0,0,0-2.335-.036,17.972,17.972,0,0,0-6.173,1.607,20.731,20.731,0,0,0-7.417,5.9A39.209,39.209,0,0,0,73.889,383a66.559,66.559,0,0,0-3.33,11.069,77.877,77.877,0,0,0-1.226,9.344c-.2,2.672-.275,4.835-.313,6.33A10.752,10.752,0,0,0,69.07,412.068Z" transform="translate(-69.004 -365.419)"/>
                </g>
              </g>
            </g>
          </g>
          <g id="Group_6922" data-name="Group 6922" transform="translate(50.354 20.383)">
            <g id="Group_6921" data-name="Group 6921">
              <g id="Group_6920" data-name="Group 6920">
                <g id="Group_6919" data-name="Group 6919">
                  <path id="Path_5824" data-name="Path 5824" class="cls-4" d="M69.5,412.509a4.553,4.553,0,0,0,.062-1.07c0-.8,0-1.816-.008-3.059-.008-2.654-.007-6.5.136-11.239.235-9.487,1.052-19.7,2.629-34.092,1.494-13.535,3.5-29.287,5.616-39.529.454-2.329.91-4.425,1.341-6.26.41-1.84.761-3.426,1.1-4.709l.715-2.974a4.56,4.56,0,0,0,.187-1.055,4.534,4.534,0,0,0-.372,1c-.233.77-.527,1.74-.887,2.931-.395,1.272-.8,2.847-1.259,4.68-.48,1.827-.985,3.919-1.481,6.244a346.975,346.975,0,0,0-5.9,36.679c-1.581,14.424-2.294,27.558-2.356,37.069-.057,4.755.045,8.6.166,11.261.075,1.243.138,2.255.187,3.058A4.506,4.506,0,0,0,69.5,412.509Z" transform="translate(-69.004 -308.524)"/>
                </g>
              </g>
            </g>
          </g>
          <g id="Group_6926" data-name="Group 6926" transform="translate(17.031 28.128)">
            <g id="Group_6925" data-name="Group 6925">
              <g id="Group_6924" data-name="Group 6924">
                <g id="Group_6923" data-name="Group 6923">
                  <path id="Path_5825" data-name="Path 5825" class="cls-2" d="M72.4,386.519a20.261,20.261,0,0,0-.022-3.2c-.118-2.053-.4-5.02-.978-8.656a114.072,114.072,0,0,0-2.816-12.612,103.267,103.267,0,0,0-5.273-14.924,79.521,79.521,0,0,0-15.489-24.117,39.45,39.45,0,0,0-3.643-3.387c-.56-.473-1.053-.944-1.557-1.318l-1.413-.974a20.323,20.323,0,0,0-2.689-1.722c-.153.208,3.811,2.541,8.817,7.865a83.788,83.788,0,0,1,15.1,24.03,118.168,118.168,0,0,1,5.3,14.787c1.382,4.634,2.3,8.9,3,12.487.66,3.6,1.041,6.536,1.272,8.571A20.814,20.814,0,0,0,72.4,386.519Z" transform="translate(-38.511 -315.611)"/>
                </g>
              </g>
            </g>
          </g>
        </g>
        <g id="Group_6930" data-name="Group 6930" transform="translate(24.737 139.873)">
          <g id="Group_6929" data-name="Group 6929">
            <g id="Group_6928" data-name="Group 6928">
              <path id="Path_5826" data-name="Path 5826" class="cls-5" d="M45.563,417.864,48.1,452.639H92.775l2.538-34.775Z" transform="translate(-45.563 -417.864)"/>
            </g>
          </g>
        </g>
        <g id="Group_6933" data-name="Group 6933" transform="translate(20.422 126.166)">
          <g id="Group_6932" data-name="Group 6932">
            <g id="Group_6931" data-name="Group 6931">
              <rect id="Rectangle_295" data-name="Rectangle 295" class="cls-5" width="59.396" height="13.707"/>
            </g>
          </g>
        </g>
        <g id="Group_6936" data-name="Group 6936" transform="translate(20.422 173.317)">
          <g id="Group_6935" data-name="Group 6935">
            <g id="Group_6934" data-name="Group 6934">
              <path id="Path_5827" data-name="Path 5827" class="cls-2" d="M41.614,448.467v3.8h58.415v-3.8Z" transform="translate(-41.614 -448.467)"/>
            </g>
          </g>
        </g>
        <g id="Group_6939" data-name="Group 6939" transform="translate(23.213 176.696)">
          <g id="Group_6938" data-name="Group 6938">
            <g id="Group_6937" data-name="Group 6937">
              <path id="Path_5828" data-name="Path 5828" class="cls-5" d="M46.9,458.246l-2.735-6.687h53.5l-3.192,6.687Z" transform="translate(-44.168 -451.559)"/>
            </g>
          </g>
        </g>
        <g id="Group_6943" data-name="Group 6943" transform="translate(25.49 146.353)">
          <g id="Group_6942" data-name="Group 6942">
            <g id="Group_6941" data-name="Group 6941">
              <g id="Group_6940" data-name="Group 6940">
                <path id="Path_5829" data-name="Path 5829" class="cls-6" d="M94.42,428.679a1.408,1.408,0,0,1-.208.319c-.178.235-.4.527-.668.885l-2.6,3.331-.115.148-.113-.155-6.394-8.842h.368l-6.295,8.913-.2.28-.221-.263-7.465-8.882.431-.005c-.13.163-.27.34-.411.516l-6.675,8.369-.223.279-.205-.29-6.3-8.912.366.017-7.756,8.838-.138.157-.1-.177-2.429-4.081-.623-1.086a1.758,1.758,0,0,1-.19-.387,1.658,1.658,0,0,1,.26.344c.181.274.409.619.69,1.046.621.974,1.476,2.319,2.55,4.005l-.243-.02,7.631-8.945.193-.225.174.243,6.354,8.871-.427-.011,6.66-8.382c.141-.176.281-.353.411-.516l.212-.267.219.261,7.444,8.9-.417.016L84.32,424.1l.187-.26.181.26c2.519,3.6,4.658,6.652,6.259,8.939l-.227-.008,2.707-3.246.726-.838C94.319,428.763,94.41,428.67,94.42,428.679Z" transform="translate(-46.252 -423.793)"/>
              </g>
            </g>
          </g>
        </g>
        <g id="Group_6947" data-name="Group 6947" transform="translate(25.109 139.365)">
          <g id="Group_6946" data-name="Group 6946">
            <g id="Group_6945" data-name="Group 6945">
              <g id="Group_6944" data-name="Group 6944">
                <path id="Path_5830" data-name="Path 5830" class="cls-6" d="M95.9,417.678c0,.153-11.194.278-25,.278s-25-.125-25-.278,11.192-.279,25-.279S95.9,417.524,95.9,417.678Z" transform="translate(-45.903 -417.399)"/>
              </g>
            </g>
          </g>
        </g>
      </g>
    </g>
    <g id="Floor" transform="translate(36.496 497.877)">
      <g id="Group_7011" data-name="Group 7011">
        <path id="Path_5838" data-name="Path 5838" class="cls-7" d="M504.51,459.375c0,.157-105.035.285-234.572.285-129.582,0-234.594-.128-234.594-.285s105.012-.284,234.594-.284C399.475,459.091,504.51,459.218,504.51,459.375Z" transform="translate(-35.343 -459.091)"/>
      </g>
    </g>
    <g id="Character" transform="translate(67.161 89.764)">
      <g id="Group_7116" data-name="Group 7116">
        <g id="Group_7012" data-name="Group 7012" transform="translate(32.454 0.387)">
          <path id="Path_5839" data-name="Path 5839" class="cls-7" d="M150.639,92.351a34.905,34.905,0,0,1,7.887,22.356c-.049,4.61-.9,9.693,1.782,13.443,2.035,2.846,5.746,4.27,7.4,7.353,1.989,3.708.293,8.392,1.517,12.418,1.734,5.707,8.418,8.092,12.382,12.55a15.842,15.842,0,0,1,3.325,14.506,16.334,16.334,0,0,1-10.246,10.846,10.615,10.615,0,0,1-8.112-.137c-2.681-1.335-4.336-4.076-5.679-6.754-2.639-5.263-25.777-33.738-27.087-39.477" transform="translate(-89.322 -85.409)"/>
          <path id="Path_5840" data-name="Path 5840" class="cls-7" d="M137.586,86.227c-9.461-1.523-18.554,4.758-22.54,13.472s-4.1,18.625-4.39,28.2-.966,19.577-5.856,27.819c-3.1,5.231-7.909,9.819-8.662,15.855-.675,5.4,2.122,10.845,1.193,16.211-.809,4.672-4.368,8.737-4.227,13.476.169,5.7,6.034,10,11.735,10.15s11.029-2.835,15.5-6.378a59.607,59.607,0,0,0,17.013-21.619" transform="translate(-93.1 -85.999)"/>
        </g>
        <g id="Group_7059" data-name="Group 7059" transform="translate(61.234)">
          <g id="Group_7058" data-name="Group 7058">
            <g id="Group_7044" data-name="Group 7044" transform="translate(0 3.037)">
              <g id="Group_7043" data-name="Group 7043">
                <g id="Group_7013" data-name="Group 7013">
                  <path id="Path_5841" data-name="Path 5841" class="cls-8" d="M119.577,108.564a17.913,17.913,0,0,1,16.1-20.061c9.55-.91,18.036,6.2,19.468,15.685,1.255,8.315,2.333,16.708,2.294,19.757-.117,9.192-5.495,12.771-7.675,13.845a11.9,11.9,0,0,1-2.42.6h0a.062.062,0,0,0-.051.072l2.041,10.552c.926,6.913-2.934,13.08-9.837,14.087-6.925,1.009-12.339-4.3-13.4-11.22Z" transform="translate(-119.436 -88.424)"/>
                </g>
                <g id="Group_7019" data-name="Group 7019" transform="translate(28.098 18.641)">
                  <g id="Group_7018" data-name="Group 7018">
                    <g id="Group_7017" data-name="Group 7017">
                      <g id="Group_7016" data-name="Group 7016">
                        <g id="Group_7015" data-name="Group 7015">
                          <g id="Group_7014" data-name="Group 7014">
                            <path id="Path_5842" data-name="Path 5842" class="cls-7" d="M150.877,106.632c-.152.215-1.366-.436-2.922-.205-1.556.209-2.582,1.176-2.778,1.01-.1-.072.037-.439.482-.873a4,4,0,0,1,2.19-1.041,3.843,3.843,0,0,1,2.359.4C150.74,106.217,150.952,106.534,150.877,106.632Z" transform="translate(-145.147 -105.482)"/>
                          </g>
                        </g>
                      </g>
                    </g>
                  </g>
                </g>
                <g id="Group_7025" data-name="Group 7025" transform="translate(14.259 22.003)">
                  <g id="Group_7024" data-name="Group 7024">
                    <g id="Group_7023" data-name="Group 7023">
                      <g id="Group_7022" data-name="Group 7022">
                        <g id="Group_7021" data-name="Group 7021">
                          <g id="Group_7020" data-name="Group 7020">
                            <path id="Path_5843" data-name="Path 5843" class="cls-7" d="M138.214,109.708c-.152.215-1.367-.436-2.921-.2-1.557.208-2.582,1.175-2.779,1.009-.1-.072.036-.438.483-.873a3.992,3.992,0,0,1,2.19-1.041,3.846,3.846,0,0,1,2.359.4C138.077,109.294,138.289,109.61,138.214,109.708Z" transform="translate(-132.484 -108.558)"/>
                          </g>
                        </g>
                      </g>
                    </g>
                  </g>
                </g>
                <g id="Group_7030" data-name="Group 7030" transform="translate(23.05 18.632)">
                  <g id="Group_7029" data-name="Group 7029">
                    <g id="Group_7028" data-name="Group 7028">
                      <g id="Group_7027" data-name="Group 7027">
                        <g id="Group_7026" data-name="Group 7026">
                          <path id="Path_5844" data-name="Path 5844" class="cls-7" d="M143.14,118.336a10.482,10.482,0,0,1,2.461-.824c.391-.1.756-.233.784-.514a2.045,2.045,0,0,0-.437-1.139q-.77-1.361-1.616-2.854c-2.259-4.07-3.957-7.44-3.792-7.53s2.13,3.136,4.39,7.206c.548,1.005,1.071,1.963,1.569,2.881a2.321,2.321,0,0,1,.434,1.529,1.011,1.011,0,0,1-.569.676,2.789,2.789,0,0,1-.661.192A10.14,10.14,0,0,1,143.14,118.336Z" transform="translate(-140.528 -105.473)"/>
                        </g>
                      </g>
                    </g>
                  </g>
                </g>
                <g id="Group_7034" data-name="Group 7034" transform="translate(13.733 47.925)">
                  <g id="Group_7033" data-name="Group 7033">
                    <g id="Group_7032" data-name="Group 7032">
                      <g id="Group_7031" data-name="Group 7031">
                        <path id="Path_5845" data-name="Path 5845" class="cls-9" d="M146.113,134.33S140.176,135.7,132,132.278c0,0,3.529,7.6,14.66,4.9Z" transform="translate(-132.003 -132.278)"/>
                      </g>
                    </g>
                  </g>
                </g>
                <g id="Group_7038" data-name="Group 7038" transform="translate(12.202 18.279)">
                  <g id="Group_7037" data-name="Group 7037">
                    <g id="Group_7036" data-name="Group 7036">
                      <g id="Group_7035" data-name="Group 7035">
                        <path id="Path_5846" data-name="Path 5846" class="cls-7" d="M137.606,105.948c-.092.446-1.675.471-3.469.957-1.8.45-3.2,1.2-3.495.856-.134-.166.063-.6.6-1.1a6.249,6.249,0,0,1,5.3-1.38C137.256,105.454,137.643,105.737,137.606,105.948Z" transform="translate(-130.602 -105.15)"/>
                      </g>
                    </g>
                  </g>
                </g>
                <g id="Group_7042" data-name="Group 7042" transform="translate(27.207 15.084)">
                  <g id="Group_7041" data-name="Group 7041">
                    <g id="Group_7040" data-name="Group 7040">
                      <g id="Group_7039" data-name="Group 7039">
                        <path id="Path_5847" data-name="Path 5847" class="cls-7" d="M149.676,103.486c-.223.393-1.347.183-2.64.353-1.3.126-2.345.585-2.65.251-.137-.163-.016-.542.412-.946a3.853,3.853,0,0,1,4.262-.487C149.569,102.954,149.771,103.3,149.676,103.486Z" transform="translate(-144.332 -102.227)"/>
                      </g>
                    </g>
                  </g>
                </g>
              </g>
            </g>
            <g id="Group_7050" data-name="Group 7050" transform="translate(16.603 26.786)">
              <g id="Group_7049" data-name="Group 7049">
                <g id="Group_7048" data-name="Group 7048">
                  <g id="Group_7047" data-name="Group 7047">
                    <g id="Group_7046" data-name="Group 7046">
                      <g id="Group_7045" data-name="Group 7045">
                        <path id="Path_5848" data-name="Path 5848" class="cls-7" d="M134.643,111.569a1.294,1.294,0,0,0,1.474,1.044,1.237,1.237,0,0,0,1.086-1.4,1.294,1.294,0,0,0-1.472-1.045A1.238,1.238,0,0,0,134.643,111.569Z" transform="translate(-134.629 -110.155)"/>
                      </g>
                    </g>
                  </g>
                </g>
              </g>
            </g>
            <g id="Group_7056" data-name="Group 7056" transform="translate(30.38 23.804)">
              <g id="Group_7055" data-name="Group 7055">
                <g id="Group_7054" data-name="Group 7054">
                  <g id="Group_7053" data-name="Group 7053">
                    <g id="Group_7052" data-name="Group 7052">
                      <g id="Group_7051" data-name="Group 7051">
                        <path id="Path_5849" data-name="Path 5849" class="cls-7" d="M147.25,108.841a1.294,1.294,0,0,0,1.474,1.044,1.238,1.238,0,0,0,1.087-1.4,1.3,1.3,0,0,0-1.473-1.045A1.238,1.238,0,0,0,147.25,108.841Z" transform="translate(-147.236 -107.427)"/>
                      </g>
                    </g>
                  </g>
                </g>
              </g>
            </g>
            <path id="Path_5850" data-name="Path 5850" class="cls-9" d="M145.372,120.023a1.94,1.94,0,0,0-2.269.943,1.992,1.992,0,0,0,.275,2.31,1.753,1.753,0,0,0,2.27.161,2.17,2.17,0,0,0,.714-1.486,2.077,2.077,0,0,0-.353-1.485,1.213,1.213,0,0,0-1.389-.421" transform="translate(-117.262 -82.461)"/>
            <path id="Path_5851" data-name="Path 5851" class="cls-7" d="M153.145,97.008a14.1,14.1,0,0,0-5.991-8.422,15.693,15.693,0,0,0-8.371-2.935,11.465,11.465,0,0,0-8.236,2.99,8.542,8.542,0,0,0-2.495,5.92l.174-1.528a5.56,5.56,0,0,0,.02,3.85v0c.255.67.557,1.339.827,2.011a8.607,8.607,0,0,0,4.085,4.446,5.568,5.568,0,0,0,2.733.664,3.311,3.311,0,0,0,2.475-1.205c.822-1.076.727-2.569.592-3.918a9.51,9.51,0,0,0,2.982,3.34,3.259,3.259,0,0,0,4.115-.47c.891-1.156.539-2.818.023-4.184a8.27,8.27,0,0,0,3.413,2.95,3.046,3.046,0,0,0,2.439.254,2.353,2.353,0,0,0,1.265-1.636A4.9,4.9,0,0,0,153.145,97.008Z" transform="translate(-118.651 -85.645)"/>
            <g id="Group_7057" data-name="Group 7057" transform="translate(11.976 1.304)">
              <path id="Path_5852" data-name="Path 5852" class="cls-10" d="M145.017,99.752c-.1,0-.083-1.295-.5-3.31a12.6,12.6,0,0,0-3.774-6.852,9.069,9.069,0,0,0-3.781-2.041,8.2,8.2,0,0,0-3.519-.087,10.487,10.487,0,0,0-3.044,1.261c-.019-.021.19-.278.671-.625a6.816,6.816,0,0,1,2.285-1.029,8.164,8.164,0,0,1,3.728-.028,9.209,9.209,0,0,1,4.037,2.126,12.234,12.234,0,0,1,3.792,7.2,14.5,14.5,0,0,1,.2,2.477A2.565,2.565,0,0,1,145.017,99.752Z" transform="translate(-130.395 -86.838)"/>
            </g>
          </g>
        </g>
        <path id="Path_5853" data-name="Path 5853" class="cls-8" d="M242.517,219.105,200.5,202.447s-21.527-28.229-21.077-28.776L164.31,190.22l21.961,29.729,50.89,11.913,24.1.195C259.4,222.787,242.517,219.105,242.517,219.105Z" transform="translate(-54.036 -77.473)"/>
        <g id="Group_7071" data-name="Group 7071" transform="translate(38.179 58.886)">
          <g id="Group_7063" data-name="Group 7063" transform="translate(0.024)">
            <g id="Group_7062" data-name="Group 7062">
              <g id="Group_7061" data-name="Group 7061">
                <g id="Group_7060" data-name="Group 7060">
                  <path id="Path_5854" data-name="Path 5854" class="cls-11" d="M157.052,141.746l-5.721-2.217-24.721,3.134v4.368l-.708.086A50.564,50.564,0,0,0,110.759,153,25.84,25.84,0,0,0,98.7,179.3c1.005,6.251,2.954,13.849,6.708,18.242,7.18,8.4,13.736-1.981,13.736-1.981s4.507,10.278,4.248,15.139c-.216,4.071-2.017,12.553-2.6,15.2a.8.8,0,0,0,.645.961l52.149,9.642.255-12.746-1.658-52.425-2.3-20.362S169.953,141.244,157.052,141.746Z" transform="translate(-98.362 -139.529)"/>
                </g>
              </g>
            </g>
          </g>
          <path id="Path_5855" data-name="Path 5855" class="cls-11" d="M163.073,146.9l19.883,28.728-16.008,19.5Z" transform="translate(-92.33 -138.845)"/>
          <g id="Group_7064" data-name="Group 7064" transform="translate(69.109 21.934)">
            <path id="Path_5856" data-name="Path 5856" class="cls-7" d="M167.474,206.176a11.628,11.628,0,0,1-.078-1.853c-.016-1.288-.037-2.99-.063-5.048a155.211,155.211,0,0,0-1.191-16.586,165.5,165.5,0,0,0-3.035-16.354c-.471-2-.86-3.661-1.155-4.916a11.552,11.552,0,0,1-.367-1.82,11.629,11.629,0,0,1,.581,1.763c.34,1.144.8,2.809,1.332,4.877a135.66,135.66,0,0,1,3.209,16.376,128.423,128.423,0,0,1,1.028,16.655c-.021,2.135-.051,3.863-.118,5.055A11.479,11.479,0,0,1,167.474,206.176Z" transform="translate(-161.578 -159.6)"/>
          </g>
          <g id="Group_7065" data-name="Group 7065" transform="translate(0 24.626)">
            <path id="Path_5857" data-name="Path 5857" class="cls-3" d="M124.418,162.266c0,.093-1.509.073-3.93.2a61.858,61.858,0,0,0-18.461,3.824c-2.274.843-3.648,1.458-3.687,1.375a3.826,3.826,0,0,1,.915-.541c.6-.32,1.5-.737,2.625-1.209a50.813,50.813,0,0,1,18.594-3.851c1.221-.014,2.209.012,2.889.066A3.856,3.856,0,0,1,124.418,162.266Z" transform="translate(-98.339 -162.064)"/>
          </g>
          <g id="Group_7066" data-name="Group 7066" transform="translate(54.941 37.951)">
            <path id="Path_5858" data-name="Path 5858" class="cls-3" d="M165.809,174.288a9.926,9.926,0,0,1-2.479.539,54.824,54.824,0,0,1-12.207.417,9.853,9.853,0,0,1-2.509-.368,12.983,12.983,0,0,1,2.53-.034c1.556.028,3.7.045,6.075-.035s4.512-.246,6.063-.38A12.941,12.941,0,0,1,165.809,174.288Z" transform="translate(-148.614 -174.256)"/>
          </g>
          <g id="Group_7067" data-name="Group 7067" transform="translate(71.982 24.973)">
            <path id="Path_5859" data-name="Path 5859" class="cls-3" d="M173.49,162.388a20.972,20.972,0,0,1-9.281,5.677c-.062-.155,2.169-1.143,4.719-2.711S173.379,162.261,173.49,162.388Z" transform="translate(-164.207 -162.38)"/>
          </g>
          <g id="Group_7068" data-name="Group 7068" transform="translate(60.756 11.652)">
            <path id="Path_5860" data-name="Path 5860" class="cls-3" d="M166.406,150.2a20.659,20.659,0,0,1-12.471,5.282c-.03-.175,3.011-.637,6.46-2.114C163.854,151.918,166.3,150.056,166.406,150.2Z" transform="translate(-153.935 -150.191)"/>
          </g>
          <g id="Group_7069" data-name="Group 7069" transform="translate(45.412 60.214)">
            <path id="Path_5861" data-name="Path 5861" class="cls-3" d="M168.795,194.637a4.562,4.562,0,0,1-1.033.543c-.678.321-1.682.733-2.942,1.194a54.089,54.089,0,0,1-20.613,3.166c-1.341-.062-2.423-.153-3.166-.257a4.547,4.547,0,0,1-1.147-.208c.009-.093,1.658.04,4.323.062a64.078,64.078,0,0,0,20.473-3.145C167.226,195.173,168.759,194.55,168.795,194.637Z" transform="translate(-139.894 -194.629)"/>
          </g>
          <g id="Group_7070" data-name="Group 7070" transform="translate(23.456 75.036)">
            <path id="Path_5862" data-name="Path 5862" class="cls-3" d="M171.065,208.194a1.91,1.91,0,0,1-.467.264l-1.385.657c-1.2.57-2.981,1.31-5.211,2.144s-4.929,1.714-7.965,2.547a93.182,93.182,0,0,1-20.215,3.136c-3.147.125-5.985.114-8.363-.015s-4.3-.285-5.615-.464l-1.518-.207a1.853,1.853,0,0,1-.525-.11,1.989,1.989,0,0,1,.537,0l1.527.1c1.322.11,3.24.215,5.609.282s5.193.047,8.322-.106c3.128-.184,6.559-.508,10.134-1.051,3.57-.565,6.937-1.3,9.973-2.069,3.027-.8,5.728-1.628,7.962-2.42s4.035-1.462,5.261-1.969l1.424-.557A1.979,1.979,0,0,1,171.065,208.194Z" transform="translate(-119.803 -208.191)"/>
          </g>
        </g>
        <g id="Group_7090" data-name="Group 7090" transform="translate(0 366.242)">
          <g id="Group_7088" data-name="Group 7088">
            <g id="Group_7072" data-name="Group 7072">
              <path id="Path_5863" data-name="Path 5863" class="cls-12" d="M80.413,420.777l-5.907,26.7L63.745,467.25a2.8,2.8,0,0,0,1.292,3.886h0a2.784,2.784,0,0,0,2.563-.116c5.006-2.893,23.371-13.625,23.694-15.6.374-2.292,8.1-27.751,8.1-27.751Z" transform="translate(-63.403 -420.777)"/>
            </g>
            <g id="Group_7073" data-name="Group 7073" class="cls-13" transform="translate(1.634 32.847)">
              <path id="Path_5864" data-name="Path 5864" class="cls-12" d="M64.9,468.345l26.7-17.511-.276,1.124a4.221,4.221,0,0,1-1.623,2.418c-2.173,1.568-8.266,5.767-22.155,13.873a2.8,2.8,0,0,1-2.642.1Z" transform="translate(-64.898 -450.834)"/>
            </g>
            <g id="Group_7075" data-name="Group 7075" class="cls-13" transform="translate(23.928 22.831)">
              <g id="Group_7074" data-name="Group 7074">
                <path id="Path_5865" data-name="Path 5865" class="cls-12" d="M86.351,441.781a1.694,1.694,0,0,0-.978,2.039,1.63,1.63,0,0,0,2.013.988,1.788,1.788,0,0,0,1.025-2.166,1.69,1.69,0,0,0-2.208-.794" transform="translate(-85.299 -441.669)"/>
              </g>
            </g>
            <g id="Group_7077" data-name="Group 7077" transform="translate(5.815 36.124)">
              <g id="Group_7076" data-name="Group 7076">
                <path id="Path_5866" data-name="Path 5866" class="cls-12" d="M73.46,457.952a8.547,8.547,0,0,0-1.823-2.637,8.523,8.523,0,0,0-2.913-1.334c-.008-.071.379-.2,1.023-.13a4.464,4.464,0,0,1,3.663,3.072C73.586,457.544,73.531,457.946,73.46,457.952Z" transform="translate(-68.724 -453.832)"/>
              </g>
            </g>
            <g id="Group_7079" data-name="Group 7079" transform="translate(3.202 40.489)">
              <g id="Group_7078" data-name="Group 7078">
                <path id="Path_5867" data-name="Path 5867" class="cls-12" d="M70.917,460.674c-.154.084-.794-.989-2.072-1.719a22.7,22.7,0,0,0-2.511-.97c-.044-.155,1.373-.4,2.815.452C70.6,459.278,71.074,460.637,70.917,460.674Z" transform="translate(-66.333 -457.827)"/>
              </g>
            </g>
            <g id="Group_7081" data-name="Group 7081" transform="translate(8.457 31.745)">
              <g id="Group_7080" data-name="Group 7080">
                <path id="Path_5868" data-name="Path 5868" class="cls-12" d="M77.875,454.629c-.155.1-1.132-1.558-3.018-2.869-1.867-1.34-3.753-1.706-3.715-1.884-.009-.153,2.056-.038,4.061,1.393A6.212,6.212,0,0,1,77.875,454.629Z" transform="translate(-71.141 -449.825)"/>
              </g>
            </g>
            <g id="Group_7083" data-name="Group 7083" transform="translate(10.809 26.317)">
              <g id="Group_7082" data-name="Group 7082">
                <path id="Path_5869" data-name="Path 5869" class="cls-12" d="M80.149,447.124c-.11.141-1.427-.832-3.319-1.369-1.885-.563-3.519-.449-3.535-.628a5.421,5.421,0,0,1,3.7.052A5.419,5.419,0,0,1,80.149,447.124Z" transform="translate(-73.294 -444.859)"/>
              </g>
            </g>
            <g id="Group_7085" data-name="Group 7085" transform="translate(12.439 18.554)">
              <g id="Group_7084" data-name="Group 7084">
                <path id="Path_5870" data-name="Path 5870" class="cls-12" d="M81.943,439.99a13.721,13.721,0,0,0-3.417-1.517c-2.03-.448-3.682.191-3.739.021-.03-.067.342-.329,1.041-.532a6.1,6.1,0,0,1,5.373,1.123C81.762,439.552,82,439.941,81.943,439.99Z" transform="translate(-74.786 -437.755)"/>
              </g>
            </g>
            <g id="Group_7087" data-name="Group 7087" transform="translate(13.139 12.688)">
              <g id="Group_7086" data-name="Group 7086">
                <path id="Path_5871" data-name="Path 5871" class="cls-12" d="M78.877,437.5a2.354,2.354,0,0,1,.211-1.014,7.183,7.183,0,0,1,1.444-2.435,3.181,3.181,0,0,1,1.689-1.152,1.125,1.125,0,0,1,1.173.546,1.833,1.833,0,0,1,.127,1.3,3.962,3.962,0,0,1-4.245,2.732,4.6,4.6,0,0,1-3.81-3.41,1.592,1.592,0,0,1,.243-1.3,1.1,1.1,0,0,1,1.262-.293A3.925,3.925,0,0,1,78.5,433.81a8.037,8.037,0,0,1,1.306,2.508,2.431,2.431,0,0,1,.183,1.017,12.752,12.752,0,0,0-1.82-3.259,3.663,3.663,0,0,0-1.359-1.135.587.587,0,0,0-.688.156,1.093,1.093,0,0,0-.109.868,4.1,4.1,0,0,0,3.337,2.917,3.439,3.439,0,0,0,3.636-2.268,1.334,1.334,0,0,0-.049-.913.612.612,0,0,0-.644-.31,2.876,2.876,0,0,0-1.448.95A10.609,10.609,0,0,0,78.877,437.5Z" transform="translate(-75.427 -432.387)"/>
              </g>
            </g>
          </g>
          <g id="Group_7089" data-name="Group 7089" class="cls-14" transform="translate(15.043 0)">
            <path id="Path_5872" data-name="Path 5872" d="M78.446,423.674,77.168,429.8,96.5,433.005l1.612-5.34-18.981-6.888Z" transform="translate(-77.168 -420.777)"/>
          </g>
        </g>
        <g id="Group_7109" data-name="Group 7109" transform="translate(81.566 375.263)">
          <g id="Group_7103" data-name="Group 7103">
            <g id="Group_7091" data-name="Group 7091">
              <path id="Path_5873" data-name="Path 5873" class="cls-12" d="M159.878,429.892l-1.6,21.336s21.152,8.787,21.24,12.76l-41.48-1.61,1.122-33.346Z" transform="translate(-138.041 -429.032)"/>
            </g>
            <g id="Group_7093" data-name="Group 7093" class="cls-13" transform="translate(6.212 19.844)">
              <g id="Group_7092" data-name="Group 7092">
                <path id="Path_5874" data-name="Path 5874" class="cls-12" d="M145,447.248a1.7,1.7,0,0,0-1.247,1.887,1.631,1.631,0,0,0,1.861,1.252,1.789,1.789,0,0,0,1.309-2.006,1.691,1.691,0,0,0-2.08-1.087" transform="translate(-143.726 -447.19)"/>
              </g>
            </g>
            <g id="Group_7094" data-name="Group 7094" class="cls-13" transform="translate(0 29.99)">
              <path id="Path_5875" data-name="Path 5875" class="cls-12" d="M138.041,459.832l.245-3.357,39.68,2.8s1.815.875,1.556,2.168Z" transform="translate(-138.041 -456.475)"/>
            </g>
            <g id="Group_7096" data-name="Group 7096" transform="translate(17.053 21.796)">
              <g id="Group_7095" data-name="Group 7095">
                <path id="Path_5876" data-name="Path 5876" class="cls-12" d="M157.514,449.191c-.014.2-1.031.256-2.052.868-1.038.587-1.587,1.444-1.769,1.356-.186-.047.164-1.246,1.414-1.966S157.565,449.008,157.514,449.191Z" transform="translate(-153.645 -448.977)"/>
              </g>
            </g>
            <g id="Group_7098" data-name="Group 7098" transform="translate(22.346 23.888)">
              <g id="Group_7097" data-name="Group 7097">
                <path id="Path_5877" data-name="Path 5877" class="cls-12" d="M161.345,450.983c.039.2-.851.508-1.573,1.339-.745.808-.955,1.728-1.156,1.711-.192.024-.286-1.167.631-2.182S161.348,450.789,161.345,450.983Z" transform="translate(-158.489 -450.891)"/>
              </g>
            </g>
            <g id="Group_7100" data-name="Group 7100" transform="translate(27.257 25.846)">
              <g id="Group_7099" data-name="Group 7099">
                <path id="Path_5878" data-name="Path 5878" class="cls-12" d="M163.2,456.119c-.186.036-.428-.987.134-2.076s1.528-1.493,1.606-1.321c.108.17-.53.742-.979,1.644C163.49,455.255,163.4,456.107,163.2,456.119Z" transform="translate(-162.982 -452.683)"/>
              </g>
            </g>
            <g id="Group_7102" data-name="Group 7102" transform="translate(16.425 16.301)">
              <g id="Group_7101" data-name="Group 7101">
                <path id="Path_5879" data-name="Path 5879" class="cls-12" d="M157.391,444.756c-.092.181-1.011-.134-2.158-.1-1.149.01-2.054.36-2.153.181-.111-.151.787-.867,2.14-.887S157.5,444.6,157.391,444.756Z" transform="translate(-153.07 -443.948)"/>
              </g>
            </g>
          </g>
          <g id="Group_7104" data-name="Group 7104" class="cls-14" transform="translate(0.856 3.515)">
            <path id="Path_5880" data-name="Path 5880" class="cls-12" d="M159.484,433.819l-.279,3.8-20.38-.977.137-4.4Z" transform="translate(-138.824 -432.248)"/>
          </g>
          <g id="Group_7106" data-name="Group 7106" transform="translate(14.773 9.253)">
            <g id="Group_7105" data-name="Group 7105">
              <path id="Path_5881" data-name="Path 5881" class="cls-12" d="M157.774,441.044a3.9,3.9,0,0,1-2.077-.092,9.311,9.311,0,0,1-2.147-.752,9.887,9.887,0,0,1-1.168-.679,2.6,2.6,0,0,1-.609-.514.884.884,0,0,1-.05-1.081,1.109,1.109,0,0,1,.9-.428,2.685,2.685,0,0,1,.775.138,7.473,7.473,0,0,1,1.275.493,7.327,7.327,0,0,1,1.867,1.332c.928.928,1.226,1.7,1.156,1.734-.1.063-.539-.589-1.49-1.363a8.267,8.267,0,0,0-1.812-1.116,7.741,7.741,0,0,0-1.178-.414c-.435-.132-.809-.15-.929.04-.044.073-.05.1.036.235a2.108,2.108,0,0,0,.448.375,10.909,10.909,0,0,0,1.073.67,11.434,11.434,0,0,0,1.978.847A14.161,14.161,0,0,1,157.774,441.044Z" transform="translate(-151.56 -437.499)"/>
            </g>
          </g>
          <g id="Group_7108" data-name="Group 7108" transform="translate(20.242 6.548)">
            <g id="Group_7107" data-name="Group 7107">
              <path id="Path_5882" data-name="Path 5882" class="cls-12" d="M157.034,441.554a3.322,3.322,0,0,1-.47-2.027,6.788,6.788,0,0,1,.372-2.263,6.872,6.872,0,0,1,.578-1.241,1.721,1.721,0,0,1,1.366-1,.971.971,0,0,1,.845.613,2.8,2.8,0,0,1,.185.77,4.634,4.634,0,0,1-.054,1.4,4.773,4.773,0,0,1-.97,2.111c-.852,1.044-1.707,1.253-1.721,1.184-.063-.1.658-.468,1.318-1.476a4.8,4.8,0,0,0,.733-1.927,4.253,4.253,0,0,0,.008-1.2c-.047-.444-.2-.805-.366-.767-.205-.011-.569.308-.753.652a7,7,0,0,0-.558,1.106,7.49,7.49,0,0,0-.482,2.058C156.959,440.76,157.145,441.527,157.034,441.554Z" transform="translate(-156.564 -435.024)"/>
            </g>
          </g>
        </g>
        <g id="Group_7115" data-name="Group 7115" transform="translate(11.832 143.115)">
          <path id="Path_5883" data-name="Path 5883" class="cls-5" d="M122.853,219.555s-6.586.288-10.926,22.716S74.23,446.4,74.23,446.4l24.158.218,45.576-172.75-3.029,178.091,24.545,1.877S183.9,256.815,184.071,245.352c.216-14.292-7.992-28.749-7.992-28.749Z" transform="translate(-74.23 -216.603)"/>
          <g id="Group_7110" data-name="Group 7110" transform="translate(70.066 1.032)">
            <path id="Path_5884" data-name="Path 5884" class="cls-10" d="M150.107,217.547c.154.032-2.354,12.844-5.6,28.614s-6,28.534-6.157,28.5,2.353-12.842,5.6-28.617S149.953,217.515,150.107,217.547Z" transform="translate(-138.344 -217.547)"/>
          </g>
          <g id="Group_7111" data-name="Group 7111" transform="translate(83.724 4.158)">
            <path id="Path_5885" data-name="Path 5885" class="cls-10" d="M152.714,220.481c-.042-.056.655-.262,1.4.408a2.024,2.024,0,0,1,.659,1.545,2.042,2.042,0,0,1-3.287,1.386,2.024,2.024,0,0,1-.646-1.551c.044-1,.678-1.357.688-1.29a3,3,0,0,0-.286,1.28,1.711,1.711,0,0,0,.584,1.162,1.57,1.57,0,0,0,2.425-1.023,1.709,1.709,0,0,0-.425-1.228C153.3,220.553,152.7,220.575,152.714,220.481Z" transform="translate(-150.843 -220.407)"/>
          </g>
          <g id="Group_7112" data-name="Group 7112" transform="translate(82.049 13.005)">
            <path id="Path_5886" data-name="Path 5886" class="cls-10" d="M151.809,228.611c-.014-.069.68.023,1.059.909a1.906,1.906,0,0,1-.068,1.609,1.926,1.926,0,0,1-3.39-.264,1.9,1.9,0,0,1,.183-1.6c.513-.817,1.212-.8,1.187-.734.036.085-.515.221-.832.922a1.588,1.588,0,0,0-.048,1.223,1.449,1.449,0,0,0,2.447.19,1.587,1.587,0,0,0,.141-1.215C152.284,228.91,151.761,228.691,151.809,228.611Z" transform="translate(-149.31 -228.503)"/>
          </g>
          <g id="Group_7113" data-name="Group 7113" transform="translate(38.72 4.456)">
            <path id="Path_5887" data-name="Path 5887" class="cls-10" d="M132.338,220.681a4.061,4.061,0,0,1-.287,1.123,18.418,18.418,0,0,1-1.274,2.893,21.264,21.264,0,0,1-16.81,11.078,18.481,18.481,0,0,1-3.16.03,4,4,0,0,1-1.145-.178c.005-.107,1.65.079,4.262-.251a22.188,22.188,0,0,0,16.5-10.876C131.76,222.23,132.238,220.644,132.338,220.681Z" transform="translate(-109.661 -220.68)"/>
          </g>
          <g id="Group_7114" data-name="Group 7114" transform="translate(100.557 1.489)">
            <path id="Path_5888" data-name="Path 5888" class="cls-10" d="M174.094,236.872c-.024.032-.28-.125-.726-.436a12.923,12.923,0,0,1-1.752-1.5,18.623,18.623,0,0,1-5.346-13.871,12.944,12.944,0,0,1,.293-2.287,2.411,2.411,0,0,1,.245-.811c.1.02-.131,1.2-.135,3.108a20.3,20.3,0,0,0,5.236,13.585C173.193,236.073,174.156,236.79,174.094,236.872Z" transform="translate(-166.245 -217.966)"/>
          </g>
        </g>
      </g>
      <g id="Group_7127" data-name="Group 7127" transform="translate(39.616 43.608)">
        <g id="Group_7124" data-name="Group 7124">
          <g id="Group_7122" data-name="Group 7122" transform="translate(0.121)">
            <g id="Group_7118" data-name="Group 7118" transform="translate(-50.769 -47.672)">
              <g id="Group_7117" data-name="Group 7117">
                <path id="Path_5889" data-name="Path 5889" class="cls-8" d="M110.876,184.76l10.734.593a54.039,54.039,0,0,0,3.035,8.8c8.639-15,15.338-35.09,17-43.166-.243-.806-.529-1.7-.887-2.7-.413-1.151-.059-3.331.137-4.541.29-1.8.792-4.217.943-5.337.461-3.412,1.01-3.948,2.2-3.562,1.618.525-.664,9.582.662,9.779.714.106,1.586-3,1.838-5.544s1.4-10.379,2.246-10.9c1.234-.765,2.309.446,2,2.981-.315,2.567-.713,10.22.633,10.323,1.326.1,2.439-12.883,2.439-12.883s-.21-2.825,1.349-2.757c2.81.121.614,13.811.374,15.108-.168.9,1.292,1.068,1.42.089.132-1.008.811-12.986,3.672-12.89,2.2.074-1.7,11.281-.469,13.88s2.09-8.823,4.187-8.666c.78.059,1.357.211-.077,6.675a146.274,146.274,0,0,1-5.014,15.149c-3.323,17.921-17.906,75.254-40.769,64.76-12.793-5.873-18.762-34.949-18.762-34.949Z" transform="translate(-48.765 -76.849)"/>
              </g>
            </g>
            <g id="Group_7121" data-name="Group 7121" transform="translate(40.69)">
              <g id="Group_7120" data-name="Group 7120">
                <g id="Group_7119" data-name="Group 7119">
                  <path id="Path_5890" data-name="Path 5890" class="cls-9" d="M155.839,155.231a1.85,1.85,0,0,1,.108-.392l.384-1.128c.356-1.033.858-2.482,1.5-4.327.638-1.881,1.42-4.184,2.2-6.892.4-1.352.721-2.815,1.023-4.386.145-.784.294-1.592.386-2.421a8.356,8.356,0,0,0,.058-1.244c-.031-.426-.1-.774-.432-.78-.349-.094-.582.193-.821.556a6.741,6.741,0,0,0-.542,1.211c-.306.861-.546,1.777-.784,2.715s-.458,1.9-.743,2.885a4.5,4.5,0,0,1-.656,1.507.589.589,0,0,1-.3.18.5.5,0,0,1-.411-.092,1.317,1.317,0,0,1-.3-.413,2.878,2.878,0,0,1-.231-.834,26.835,26.835,0,0,1,.647-6.514c.187-1.1.386-2.208.53-3.331a15.2,15.2,0,0,0,.136-1.686c.022-.518-.07-1.219-.3-1.317-.28-.106-.786.211-1.053.674a6.933,6.933,0,0,0-.716,1.55,23.855,23.855,0,0,0-.84,3.5c-.208,1.2-.372,2.429-.5,3.672q-.092.934-.184,1.876l-.083.95a1.412,1.412,0,0,1-.434,1.1,1.119,1.119,0,0,1-1.293.05.906.906,0,0,1-.392-.622,1.164,1.164,0,0,1,.005-.35l.042-.234q.146-.951.292-1.91c.18-1.283.337-2.58.461-3.888s.214-2.629.234-3.955a13.181,13.181,0,0,0-.385-3.888,1.333,1.333,0,0,0-.552-.791.684.684,0,0,0-.738.236,3.652,3.652,0,0,0-.411,2.122v.035l0,.02c-.233,2.568-.513,5.093-.882,7.573-.191,1.239-.393,2.468-.706,3.682-.078.3-.171.607-.278.91a1.912,1.912,0,0,1-.619.943.666.666,0,0,1-.8-.176,1.576,1.576,0,0,1-.3-.494,4.82,4.82,0,0,1-.246-.942,35.3,35.3,0,0,1-.064-7.158,19.659,19.659,0,0,0,.177-3.351,1.838,1.838,0,0,0-.611-1.245.692.692,0,0,0-.56-.086,1.328,1.328,0,0,0-.3.129.381.381,0,0,0-.154.189,14.958,14.958,0,0,0-.861,3.042c-.215,1.046-.4,2.085-.566,3.112s-.314,2.041-.444,3.04-.2,1.994-.4,2.97a15.982,15.982,0,0,1-.765,2.827,5.562,5.562,0,0,1-.316.671c-.153.205-.239.473-.658.6a.551.551,0,0,1-.554-.234,1.432,1.432,0,0,1-.173-.4,4.024,4.024,0,0,1-.087-.728c-.024-1.862.252-3.57.345-5.219a12.83,12.83,0,0,0-.007-2.374c-.049-.351-.162-.763-.362-.845a1.014,1.014,0,0,0-.891-.02,3.152,3.152,0,0,0-.809,1.789c-.154.675-.224,1.346-.349,1.992-.455,2.585-.937,4.8-1.17,6.619a8.827,8.827,0,0,0-.034,2.406c.152.662.373,1.247.5,1.707l.314,1.056a1.619,1.619,0,0,1,.085.366,1.62,1.62,0,0,1-.149-.346c-.1-.267-.221-.608-.375-1.034-.152-.467-.38-1-.567-1.711a8.758,8.758,0,0,1-.027-2.472c.2-1.847.639-4.05,1.059-6.641.116-.644.178-1.328.329-2.024a7.8,7.8,0,0,1,.287-1.059,1.927,1.927,0,0,1,.684-1,1.417,1.417,0,0,1,1.29-.016c.513.293.531.785.621,1.17a13.173,13.173,0,0,1,.034,2.467c-.081,1.659-.34,3.4-.3,5.167a3.542,3.542,0,0,0,.078.626c.047.212.156.293.133.252.039.008.205-.181.3-.353a5.1,5.1,0,0,0,.278-.6,15.635,15.635,0,0,0,.718-2.731c.183-.944.243-1.93.376-2.943s.269-2.027.431-3.061.342-2.081.555-3.141a14.842,14.842,0,0,1,.915-3.225,1.042,1.042,0,0,1,.384-.421,1.945,1.945,0,0,1,.46-.192,1.32,1.32,0,0,1,1.044.164,2.4,2.4,0,0,1,.892,1.67,6.643,6.643,0,0,1-.008,1.786c-.064.561-.11,1.131-.152,1.7a35.116,35.116,0,0,0,.076,7,4.2,4.2,0,0,0,.21.81.946.946,0,0,0,.163.283.111.111,0,0,0,.055.044h0l0,0c-.02.257,0,.055-.008.1,0-.047-.014-.038-.045-.093a2.066,2.066,0,0,0,.317-.6c.1-.273.182-.556.257-.848.3-1.166.5-2.387.684-3.613.363-2.459.64-4.981.871-7.532v.054a4.176,4.176,0,0,1,.553-2.591,1.353,1.353,0,0,1,1.525-.447,1.923,1.923,0,0,1,.939,1.2,13.61,13.61,0,0,1,.422,4.121c-.021,1.353-.115,2.688-.239,4.01s-.285,2.627-.469,3.919q-.149.969-.3,1.929c-.081.407-.061.42.06.54a.462.462,0,0,0,.508-.02c.14-.093.156-.284.186-.639l.084-.949q.1-.949.189-1.888c.138-1.252.3-2.492.52-3.712a24.325,24.325,0,0,1,.876-3.592,7.5,7.5,0,0,1,.794-1.7,2.451,2.451,0,0,1,.7-.725,1.216,1.216,0,0,1,1.137-.164,1.269,1.269,0,0,1,.6.963,5.11,5.11,0,0,1,.058.929,15.841,15.841,0,0,1-.148,1.757c-.152,1.147-.356,2.26-.55,3.356a26.921,26.921,0,0,0-.676,6.334,2.378,2.378,0,0,0,.174.667,1.008,1.008,0,0,0,.141.217c.005-.012-.009-.02-.026.049-.01.089,0-.02-.011-.005-.042-.068-.011-.048.007-.072a4.467,4.467,0,0,0,.535-1.283c.284-.953.511-1.918.757-2.859s.494-1.865.817-2.756a7.266,7.266,0,0,1,.6-1.3,2.2,2.2,0,0,1,.5-.579,1.025,1.025,0,0,1,.389-.193,1.223,1.223,0,0,1,.421,0,.844.844,0,0,1,.69.506,2.083,2.083,0,0,1,.141.723,8.675,8.675,0,0,1-.072,1.32c-.1.851-.261,1.663-.415,2.452-.318,1.57-.663,3.056-1.082,4.408-.817,2.711-1.637,5-2.314,6.875s-1.233,3.311-1.616,4.285c-.185.458-.331.822-.446,1.1A1.845,1.845,0,0,1,155.839,155.231Z" transform="translate(-136.998 -125.549)"/>
                </g>
              </g>
            </g>
          </g>
          <g id="Group_7123" data-name="Group 7123" transform="translate(0 50.701)">
            <path id="Path_5891" data-name="Path 5891" class="cls-11" d="M99.654,181.723c2.076,7.326,6.132,18.646,10.493,30.58a2.07,2.07,0,0,0,3.815.177l10.692-22.6S122.08,171.3,122.3,171.96s-22.06,2.4-22.06,2.4Z" transform="translate(-99.654 -171.943)"/>
          </g>
        </g>
        <g id="Group_7125" data-name="Group 7125" transform="translate(2.866 56.826)">
          <path id="Path_5892" data-name="Path 5892" class="cls-3" d="M123.49,177.559c.024.091-1.328.483-3.445,1.291a48.385,48.385,0,0,0-15.03,9.114c-1.694,1.5-2.668,2.521-2.736,2.459a3.364,3.364,0,0,1,.6-.794c.41-.491,1.045-1.164,1.864-1.959a40.609,40.609,0,0,1,15.167-9.2c1.085-.358,1.975-.611,2.6-.746A3.362,3.362,0,0,1,123.49,177.559Z" transform="translate(-102.277 -177.548)"/>
        </g>
        <g id="Group_7126" data-name="Group 7126" transform="translate(20.713 44.18)">
          <path id="Path_5893" data-name="Path 5893" class="cls-7" d="M126.212,184.27a11.562,11.562,0,0,1-1.783-2.334,38.8,38.8,0,0,1-5.408-13.048,11.563,11.563,0,0,1-.391-2.911,21.218,21.218,0,0,1,.782,2.817,51.651,51.651,0,0,0,5.36,12.931A21.408,21.408,0,0,1,126.212,184.27Z" transform="translate(-118.608 -165.976)"/>
        </g>
      </g>
      <g id="Group_7130" data-name="Group 7130" transform="translate(43.172 1.989)">
        <path id="Path_5894" data-name="Path 5894" class="cls-7" d="M133.483,91.293a24.04,24.04,0,0,0-2.087,20.554c1.1,3,2.837,5.968,2.519,9.154-.326,3.264-2.8,6.346-1.927,9.5.517,1.867,2.119,3.251,2.733,5.087.721,2.155-.031,4.487-.374,6.735-.873,5.724.956,11.478,1.409,17.251s-1.1,12.53-6.253,15.048c-1.565.766-3.611.986-4.912-.181-1.652-1.481-1.192-4.143-.74-6.33,4.525-21.877-9.452-43.187-6.26-65.3.511-3.544,2.492-9.559,5.043-12.04s9.61-2.179,12.025.438" transform="translate(-101.59 -87.315)"/>
        <g id="Group_7128" data-name="Group 7128" transform="translate(10.364 0.186)">
          <path id="Path_5895" data-name="Path 5895" class="cls-10" d="M112.394,154.824c-.045-.038.657-.788,1.641-2.338a21.006,21.006,0,0,0,2.854-7.156,21.273,21.273,0,0,0,.337-5.316,57.84,57.84,0,0,1-.225-6.209,13.29,13.29,0,0,1,.627-3.348,18.373,18.373,0,0,1,1.5-3.21c1.223-2.069,2.772-3.993,4.19-6.051a16.572,16.572,0,0,0,2.974-6.515,20.436,20.436,0,0,0-.381-6.706,24.961,24.961,0,0,1-.482-6.211,20.88,20.88,0,0,1,1.047-5.332,20.47,20.47,0,0,1,3.863-6.8,15.131,15.131,0,0,1,1.487-1.527,3.694,3.694,0,0,1,.575-.47c.043.045-.737.714-1.892,2.139a21.228,21.228,0,0,0-3.651,6.785,20.833,20.833,0,0,0-.958,5.234,24.818,24.818,0,0,0,.528,6.1,20.686,20.686,0,0,1,.414,6.883,16.982,16.982,0,0,1-3.054,6.747c-1.436,2.084-2.978,4-4.178,6.013a17.948,17.948,0,0,0-1.465,3.1,12.822,12.822,0,0,0-.62,3.21,59.6,59.6,0,0,0,.174,6.155,21.308,21.308,0,0,1-.414,5.416,20.23,20.23,0,0,1-3.064,7.2,17.644,17.644,0,0,1-1.3,1.687A3.564,3.564,0,0,1,112.394,154.824Z" transform="translate(-112.392 -87.634)"/>
        </g>
        <g id="Group_7129" data-name="Group 7129">
          <path id="Path_5896" data-name="Path 5896" class="cls-10" d="M102.91,156.476a4.354,4.354,0,0,1,.339-.732l1.062-2.052c.915-1.782,2.284-4.345,3.63-7.657a33.306,33.306,0,0,0,2.669-12.144,22.324,22.324,0,0,0-.267-3.586c-.188-1.214-.47-2.453-.654-3.746a10.547,10.547,0,0,1,.083-4.019A7.24,7.24,0,0,1,112,119.031c2.061-1.873,4.545-3.093,5.829-5.285,1.316-2.155,1.605-4.683,1.938-7.009a27.737,27.737,0,0,1,1.5-6.6,23.57,23.57,0,0,1,8.848-11.167,17.45,17.45,0,0,1,2-1.17,4.281,4.281,0,0,1,.737-.332c.029.055-.98.532-2.611,1.685a23.869,23.869,0,0,0-5.87,6,23.127,23.127,0,0,0-2.661,5.151,27.586,27.586,0,0,0-1.427,6.507c-.322,2.327-.59,4.922-1.982,7.23-1.391,2.361-3.964,3.615-5.917,5.411a6.687,6.687,0,0,0-2.063,3.234,10.036,10.036,0,0,0-.079,3.8c.174,1.262.45,2.5.638,3.74a22.774,22.774,0,0,1,.254,3.672,33.071,33.071,0,0,1-2.821,12.293,74.893,74.893,0,0,1-3.809,7.61l-1.156,2A4.213,4.213,0,0,1,102.91,156.476Z" transform="translate(-102.908 -87.464)"/>
        </g>
      </g>
    </g>
    <g id="Plant" transform="translate(440.132 284.923)">
      <g id="Group_7227" data-name="Group 7227">
        <g id="Group_7218" data-name="Group 7218">
          <g id="Group_7133" data-name="Group 7133" transform="translate(13.339)">
            <g id="Group_7132" data-name="Group 7132">
              <g id="Group_7131" data-name="Group 7131">
                <path id="Path_5897" data-name="Path 5897" class="cls-4" d="M435.339,448.865a2.638,2.638,0,0,1,.191-.462c.153-.326.357-.763.62-1.32a33.152,33.152,0,0,0,1.818-5.285c1.2-4.7,1.624-11.88-.155-20.41a109.587,109.587,0,0,0-3.784-13.708c-1.6-4.865-3.463-10.027-4.983-15.608a60.38,60.38,0,0,1-2.461-17.944c.231-6.348,2.11-12.683,4.177-18.99s4.2-12.492,4.835-18.7a28.5,28.5,0,0,0-3.429-17.272c-2.735-5.04-6.177-9.35-8.753-13.816a48,48,0,0,1-5.261-13.281,49.447,49.447,0,0,1-.333-20.575,38.325,38.325,0,0,1,2.147-7.266,2.937,2.937,0,0,1-.128.483c-.107.344-.251.805-.434,1.392a52.827,52.827,0,0,0-1.335,5.439,50.123,50.123,0,0,0,.534,20.421,47.862,47.862,0,0,0,5.278,13.113c2.569,4.412,6.026,8.7,8.816,13.8a29.084,29.084,0,0,1,3.535,17.622c-.643,6.317-2.792,12.531-4.85,18.84s-3.923,12.571-4.158,18.812a60.087,60.087,0,0,0,2.4,17.763c1.495,5.553,3.334,10.716,4.917,15.6a108.1,108.1,0,0,1,3.723,13.79c1.733,8.592,1.239,15.845-.051,20.56a30.511,30.511,0,0,1-1.947,5.277l-.68,1.3A2.977,2.977,0,0,1,435.339,448.865Z" transform="translate(-416.899 -264.226)"/>
              </g>
            </g>
          </g>
          <g id="Group_7139" data-name="Group 7139" transform="translate(21.899 18.827)">
            <g id="Group_7135" data-name="Group 7135">
              <g id="Group_7134" data-name="Group 7134">
                <path id="Path_5898" data-name="Path 5898" class="cls-4" d="M426.186,308.154s-5.23-16.725,4.152-26.516a.58.58,0,0,1,.995.286C431.832,284.687,432.458,293.1,426.186,308.154Z" transform="translate(-424.732 -281.454)"/>
              </g>
            </g>
            <g id="Group_7138" data-name="Group 7138" transform="translate(1.264 5.756)">
              <g id="Group_7137" data-name="Group 7137">
                <g id="Group_7136" data-name="Group 7136">
                  <path id="Path_5899" data-name="Path 5899" class="cls-4" d="M429.211,286.721a15.35,15.35,0,0,1-.352,3.085c-.344,2.126-.747,4.62-1.193,7.377s-.834,5.251-1.17,7.377a16.748,16.748,0,0,1-.554,3.052,12.879,12.879,0,0,1,.094-3.109c.173-1.91.509-4.54.983-7.425s.975-5.484,1.385-7.356A14.005,14.005,0,0,1,429.211,286.721Z" transform="translate(-425.889 -286.721)"/>
                </g>
              </g>
            </g>
          </g>
          <g id="Group_7145" data-name="Group 7145" transform="translate(29.394 63.444)">
            <g id="Group_7141" data-name="Group 7141" transform="translate(0.102)">
              <g id="Group_7140" data-name="Group 7140">
                <path id="Path_5900" data-name="Path 5900" class="cls-4" d="M431.684,343.809s3.2-17.228,16.07-21.5a.58.58,0,0,1,.744.719C447.65,325.706,444.269,333.434,431.684,343.809Z" transform="translate(-431.684 -322.281)"/>
              </g>
            </g>
            <g id="Group_7144" data-name="Group 7144" transform="translate(0 4.479)">
              <g id="Group_7143" data-name="Group 7143">
                <g id="Group_7142" data-name="Group 7142">
                  <path id="Path_5901" data-name="Path 5901" class="cls-4" d="M444.257,326.381a15.383,15.383,0,0,1-1.755,2.563l-4.5,5.961-4.485,5.972a16.877,16.877,0,0,1-1.917,2.439,12.915,12.915,0,0,1,1.536-2.7c1.047-1.608,2.574-3.775,4.343-6.1s3.426-4.391,4.663-5.854A14,14,0,0,1,444.257,326.381Z" transform="translate(-431.59 -326.379)"/>
                </g>
              </g>
            </g>
          </g>
          <g id="Group_7151" data-name="Group 7151" transform="translate(25.878 102.846)">
            <g id="Group_7147" data-name="Group 7147" transform="translate(0.009)">
              <g id="Group_7146" data-name="Group 7146">
                <path id="Path_5902" data-name="Path 5902" class="cls-4" d="M428.512,383.683s-1.943-17.415,9.134-25.238a.58.58,0,0,1,.921.472C438.532,361.724,437.542,370.1,428.512,383.683Z" transform="translate(-428.381 -358.336)"/>
              </g>
            </g>
            <g id="Group_7150" data-name="Group 7150" transform="translate(0 5.385)">
              <g id="Group_7149" data-name="Group 7149">
                <g id="Group_7148" data-name="Group 7148">
                  <path id="Path_5903" data-name="Path 5903" class="cls-4" d="M435.585,363.264a15.443,15.443,0,0,1-.934,2.962l-2.579,7.014-2.556,7.017a16.7,16.7,0,0,1-1.127,2.891,13.047,13.047,0,0,1,.685-3.034c.534-1.842,1.367-4.359,2.382-7.1s2-5.2,2.763-6.957A13.937,13.937,0,0,1,435.585,363.264Z" transform="translate(-428.373 -363.263)"/>
                </g>
              </g>
            </g>
          </g>
          <g id="Group_7157" data-name="Group 7157" transform="translate(35.58 146.675)">
            <g id="Group_7153" data-name="Group 7153" transform="translate(0.087)">
              <g id="Group_7152" data-name="Group 7152">
                <path id="Path_5904" data-name="Path 5904" class="cls-4" d="M437.377,423.434s-1.318-17.473,10.033-24.893a.579.579,0,0,1,.9.5C448.177,401.847,446.888,410.185,437.377,423.434Z" transform="translate(-437.33 -398.442)"/>
              </g>
            </g>
            <g id="Group_7156" data-name="Group 7156" transform="translate(0 5.296)">
              <g id="Group_7155" data-name="Group 7155">
                <g id="Group_7154" data-name="Group 7154">
                  <path id="Path_5905" data-name="Path 5905" class="cls-4" d="M445.166,403.289a15.341,15.341,0,0,1-1.039,2.925l-2.828,6.917-2.806,6.922a16.769,16.769,0,0,1-1.228,2.849,12.917,12.917,0,0,1,.793-3.007c.6-1.823,1.521-4.308,2.635-7.012s2.189-5.122,3.01-6.853A13.968,13.968,0,0,1,445.166,403.289Z" transform="translate(-437.25 -403.288)"/>
                </g>
              </g>
            </g>
          </g>
          <g id="Group_7163" data-name="Group 7163" transform="translate(0 8.56)">
            <g id="Group_7159" data-name="Group 7159">
              <g id="Group_7158" data-name="Group 7158">
                <path id="Path_5906" data-name="Path 5906" class="cls-4" d="M420.529,294.332S405,286.22,404.693,272.662a.579.579,0,0,1,.9-.5C407.907,273.758,414.3,279.258,420.529,294.332Z" transform="translate(-404.693 -272.059)"/>
              </g>
            </g>
            <g id="Group_7162" data-name="Group 7162" transform="translate(3.219 5.259)">
              <g id="Group_7161" data-name="Group 7161">
                <g id="Group_7160" data-name="Group 7160">
                  <path id="Path_5907" data-name="Path 5907" class="cls-4" d="M407.645,276.873a15.4,15.4,0,0,1,1.935,2.428l4.378,6.055,4.394,6.039a16.751,16.751,0,0,1,1.769,2.549,12.953,12.953,0,0,1-2.133-2.262c-1.231-1.472-2.853-3.568-4.561-5.942s-3.193-4.564-4.229-6.176A13.962,13.962,0,0,1,407.645,276.873Z" transform="translate(-407.638 -276.871)"/>
                </g>
              </g>
            </g>
          </g>
          <g id="Group_7169" data-name="Group 7169" transform="translate(15.389 45.444)">
            <g id="Group_7165" data-name="Group 7165">
              <g id="Group_7164" data-name="Group 7164">
                <path id="Path_5908" data-name="Path 5908" class="cls-4" d="M435.9,327.116s-16-7.153-17.124-20.668a.579.579,0,0,1,.873-.554C422.052,307.347,428.771,312.447,435.9,327.116Z" transform="translate(-418.775 -305.81)"/>
              </g>
            </g>
            <g id="Group_7168" data-name="Group 7168" transform="translate(3.499 5.089)">
              <g id="Group_7167" data-name="Group 7167">
                <g id="Group_7166" data-name="Group 7166">
                  <path id="Path_5909" data-name="Path 5909" class="cls-4" d="M421.982,310.469a15.31,15.31,0,0,1,2.079,2.306l4.739,5.779,4.753,5.76a16.75,16.75,0,0,1,1.921,2.437,12.928,12.928,0,0,1-2.268-2.129c-1.318-1.394-3.064-3.388-4.913-5.654s-3.464-4.361-4.6-5.907A13.978,13.978,0,0,1,421.982,310.469Z" transform="translate(-421.977 -310.467)"/>
                </g>
              </g>
            </g>
          </g>
          <g id="Group_7175" data-name="Group 7175" transform="translate(16.105 80.248)">
            <g id="Group_7171" data-name="Group 7171">
              <g id="Group_7170" data-name="Group 7170">
                <path id="Path_5910" data-name="Path 5910" class="cls-4" d="M426.636,364.224s-10.983-13.655-5.831-26.2a.579.579,0,0,1,1.029-.1C423.311,340.316,426.969,347.917,426.636,364.224Z" transform="translate(-419.43 -337.657)"/>
              </g>
            </g>
            <g id="Group_7174" data-name="Group 7174" transform="translate(2.437 5.926)">
              <g id="Group_7173" data-name="Group 7173">
                <g id="Group_7172" data-name="Group 7172">
                  <path id="Path_5911" data-name="Path 5911" class="cls-4" d="M421.687,343.08a15.345,15.345,0,0,1,.8,3c.458,2.1.994,4.573,1.587,7.3s1.144,5.192,1.608,7.294a16.846,16.846,0,0,1,.6,3.043,12.966,12.966,0,0,1-1.049-2.928c-.539-1.841-1.186-4.412-1.8-7.271s-1.1-5.461-1.4-7.354A13.863,13.863,0,0,1,421.687,343.08Z" transform="translate(-421.66 -343.08)"/>
                </g>
              </g>
            </g>
          </g>
          <g id="Group_7181" data-name="Group 7181" transform="translate(17.415 132.378)">
            <g id="Group_7177" data-name="Group 7177">
              <g id="Group_7176" data-name="Group 7176">
                <path id="Path_5912" data-name="Path 5912" class="cls-4" d="M437.4,406.941s-15.873-7.421-16.774-20.953a.58.58,0,0,1,.883-.54C423.889,386.941,430.521,392.154,437.4,406.941Z" transform="translate(-420.629 -385.359)"/>
              </g>
            </g>
            <g id="Group_7180" data-name="Group 7180" transform="translate(3.423 5.138)">
              <g id="Group_7179" data-name="Group 7179">
                <g id="Group_7178" data-name="Group 7178">
                  <path id="Path_5913" data-name="Path 5913" class="cls-4" d="M423.766,390.063a15.426,15.426,0,0,1,2.04,2.342l4.64,5.856,4.655,5.84a16.816,16.816,0,0,1,1.88,2.468,12.944,12.944,0,0,1-2.232-2.166c-1.294-1.416-3.007-3.439-4.818-5.735s-3.39-4.419-4.5-5.984A13.938,13.938,0,0,1,423.766,390.063Z" transform="translate(-423.761 -390.061)"/>
                </g>
              </g>
            </g>
          </g>
          <g id="Group_7217" data-name="Group 7217" transform="translate(30.305 81.08)">
            <g id="Group_7184" data-name="Group 7184" transform="translate(5.193 3.986)">
              <g id="Group_7183" data-name="Group 7183">
                <g id="Group_7182" data-name="Group 7182">
                  <path id="Path_5914" data-name="Path 5914" class="cls-4" d="M467.487,342.066a1.356,1.356,0,0,1,.02.386c-.008.3-.016.673-.027,1.12-.047,1.052-.109,2.474-.188,4.249-.205,3.735-.491,8.944-.832,15.173v.015l0,.021c-1.133,6.341-4.363,13.369-8.7,20.192-3.182,5.027-6.518,9.6-9.394,13.846a98.073,98.073,0,0,0-7.043,11.643,49.408,49.408,0,0,0-3.295,8.543c-.279,1.047-.488,1.863-.609,2.422a4.35,4.35,0,0,1-.233.844,4.467,4.467,0,0,1,.1-.869c.079-.569.249-1.4.492-2.46a45.05,45.05,0,0,1,3.125-8.681,92.928,92.928,0,0,1,6.959-11.779c2.857-4.28,6.174-8.856,9.339-13.857,4.316-6.79,7.527-13.711,8.7-19.951l0,.036c.437-6.224.8-11.427,1.064-15.159.144-1.77.259-3.189.343-4.239.045-.445.082-.811.113-1.115A1.265,1.265,0,0,1,467.487,342.066Z" transform="translate(-437.175 -342.066)"/>
                </g>
              </g>
            </g>
            <g id="Group_7192" data-name="Group 7192" transform="translate(22.533 16.83)">
              <g id="Group_7186" data-name="Group 7186">
                <g id="Group_7185" data-name="Group 7185">
                  <path id="Path_5915" data-name="Path 5915" class="cls-4" d="M456.562,380.827s6.723-16.183-1.734-26.784a.579.579,0,0,0-1.015.2C453.063,356.944,451.678,365.265,456.562,380.827Z" transform="translate(-453.042 -353.819)"/>
                </g>
              </g>
              <g id="Group_7189" data-name="Group 7189" transform="translate(2.247 5.866)">
                <g id="Group_7188" data-name="Group 7188">
                  <g id="Group_7187" data-name="Group 7187">
                    <path id="Path_5916" data-name="Path 5916" class="cls-4" d="M455.147,359.187a14,14,0,0,1,.532,3.062c.238,1.9.5,4.534.713,7.451s.309,5.565.308,7.484a12.962,12.962,0,0,1-.188,3.1,16.716,16.716,0,0,1-.275-3.091c-.143-2.146-.311-4.666-.5-7.452s-.37-5.307-.52-7.454A15.279,15.279,0,0,1,455.147,359.187Z" transform="translate(-455.098 -359.187)"/>
                  </g>
                </g>
              </g>
            </g>
            <g id="Group_7200" data-name="Group 7200" transform="translate(0 56.09)">
              <g id="Group_7194" data-name="Group 7194">
                <g id="Group_7193" data-name="Group 7193">
                  <path id="Path_5918" data-name="Path 5918" class="cls-4" d="M437.653,416.488s5.389-16.674-3.9-26.555a.58.58,0,0,0-1,.278C432.23,392.968,431.524,401.374,437.653,416.488Z" transform="translate(-432.423 -389.745)"/>
                </g>
              </g>
              <g id="Group_7197" data-name="Group 7197" transform="translate(2.269 5.77)">
                <g id="Group_7196" data-name="Group 7196">
                  <g id="Group_7195" data-name="Group 7195">
                    <path id="Path_5919" data-name="Path 5919" class="cls-4" d="M434.526,395.025a14,14,0,0,1,.779,3.009c.391,1.875.87,4.478,1.315,7.368s.758,5.522.914,7.434a12.864,12.864,0,0,1,.063,3.109,16.945,16.945,0,0,1-.525-3.057c-.317-2.129-.69-4.627-1.1-7.388s-.8-5.259-1.123-7.388A15.319,15.319,0,0,1,434.526,395.025Z" transform="translate(-434.499 -395.025)"/>
                  </g>
                </g>
              </g>
            </g>
            <g id="Group_7208" data-name="Group 7208" transform="translate(34.614)">
              <g id="Group_7202" data-name="Group 7202">
                <g id="Group_7201" data-name="Group 7201">
                  <path id="Path_5921" data-name="Path 5921" class="cls-4" d="M464.1,362.48S478.452,352.431,477,338.948a.579.579,0,0,0-.962-.38C473.958,340.448,468.324,346.728,464.1,362.48Z" transform="translate(-464.097 -338.419)"/>
                </g>
              </g>
              <g id="Group_7207" data-name="Group 7207" transform="translate(0.134 5.563)">
                <g id="Group_7206" data-name="Group 7206">
                  <g id="Group_7205" data-name="Group 7205">
                    <path id="Path_5923" data-name="Path 5923" class="cls-4" d="M474.4,343.51a13.98,13.98,0,0,1-1.192,2.87c-.82,1.731-2.008,4.1-3.4,6.67s-2.726,4.862-3.756,6.48a12.886,12.886,0,0,1-1.824,2.519,16.823,16.823,0,0,1,1.426-2.755l3.577-6.556c1.331-2.454,2.534-4.677,3.56-6.57A15.41,15.41,0,0,1,474.4,343.51Z" transform="translate(-464.219 -343.509)"/>
                  </g>
                </g>
              </g>
            </g>
            <g id="Group_7216" data-name="Group 7216" transform="translate(11.019 50.072)">
              <g id="Group_7210" data-name="Group 7210">
                <g id="Group_7209" data-name="Group 7209">
                  <path id="Path_5924" data-name="Path 5924" class="cls-4" d="M442.506,400.469s17.314-2.7,21.952-15.443a.58.58,0,0,0-.7-.765C461.062,385.031,453.239,388.189,442.506,400.469Z" transform="translate(-442.506 -384.238)"/>
                </g>
              </g>
              <g id="Group_7215" data-name="Group 7215" transform="translate(0.106 4.159)">
                <g id="Group_7214" data-name="Group 7214">
                  <g id="Group_7213" data-name="Group 7213">
                    <path id="Path_5926" data-name="Path 5926" class="cls-4" d="M459.9,388.049a13.932,13.932,0,0,1-2.334,2.051c-1.5,1.195-3.607,2.794-5.987,4.493s-4.589,3.165-6.227,4.164a12.905,12.905,0,0,1-2.746,1.458,16.876,16.876,0,0,1,2.493-1.846l6.1-4.31,6.089-4.33A15.41,15.41,0,0,1,459.9,388.049Z" transform="translate(-442.603 -388.043)"/>
                  </g>
                </g>
              </g>
            </g>
          </g>
        </g>
        <g id="Group_7220" data-name="Group 7220" transform="translate(19.756 179.246)">
          <g id="Group_7219" data-name="Group 7219">
            <path id="Path_5927" data-name="Path 5927" class="cls-15" d="M427.821,428.246l-5.051,33.992h31.474l-4.081-33.992Z" transform="translate(-422.77 -428.246)"/>
          </g>
        </g>
        <g id="Group_7223" data-name="Group 7223" transform="translate(23.024 189.452)">
          <g id="Group_7222" data-name="Group 7222">
            <g id="Group_7221" data-name="Group 7221">
              <path id="Path_5928" data-name="Path 5928" class="cls-5" d="M451.145,437.913c0,.18-5.684.327-12.692.327s-12.692-.146-12.692-.327,5.682-.328,12.692-.328S451.145,437.731,451.145,437.913Z" transform="translate(-425.761 -437.585)"/>
            </g>
          </g>
        </g>
        <g id="Group_7226" data-name="Group 7226" transform="translate(22.816 192.156)">
          <g id="Group_7225" data-name="Group 7225">
            <g id="Group_7224" data-name="Group 7224">
              <path id="Path_5929" data-name="Path 5929" class="cls-5" d="M451.787,440.388c0,.18-5.87.327-13.107.327s-13.108-.146-13.108-.327,5.867-.328,13.108-.328S451.787,440.206,451.787,440.388Z" transform="translate(-425.571 -440.06)"/>
            </g>
          </g>
        </g>
      </g>
    </g>
    <g id="Boxes" transform="translate(218.587 134.32)">
      <g id="Group_7236" data-name="Group 7236">
        <g id="Group_7228" data-name="Group 7228" transform="translate(85.238)">
          <path id="Path_5930" data-name="Path 5930" class="cls-7" d="M342.912,126.554s-.291.005-.855-.012a20.614,20.614,0,0,0-2.5.014,27.761,27.761,0,0,0-9.312,2.146,28.642,28.642,0,0,0-11.828,9.217,25.723,25.723,0,0,0-4.129,8.448,28.383,28.383,0,0,0,2.911,21.5,24.646,24.646,0,0,0,3.719,4.932,19.933,19.933,0,0,0,5.028,3.934,12.336,12.336,0,0,0,6.308,1.589,9.08,9.08,0,0,0,6.109-2.464,8.839,8.839,0,0,0,2.435-6.3,11.555,11.555,0,0,0-2.216-6.7c-2.837-3.987-7.426-6.671-12.306-8.115a30.275,30.275,0,0,0-15.523-.215,32.082,32.082,0,0,0-7.475,2.972,27.07,27.07,0,0,0-6.418,5.034c-.448.521-.958.991-1.357,1.555l-1.234,1.667a28.965,28.965,0,0,0-4.388,11.7,30.532,30.532,0,0,0,2.206,16.395,25.237,25.237,0,0,0,10.551,11.971,17.373,17.373,0,0,0,7.473,2.271,13.246,13.246,0,0,0,7.374-1.77,11.628,11.628,0,0,0,4.989-5.435,9.9,9.9,0,0,0,.115-7.146,14.28,14.28,0,0,0-4.11-5.811,18.653,18.653,0,0,0-6.043-3.512,23.474,23.474,0,0,0-13.3-.231,25.974,25.974,0,0,0-10.913,6.085,24.9,24.9,0,0,0-6.256,9.7,28.09,28.09,0,0,0,.286,19.635,29.718,29.718,0,0,0,9,12.011,31.734,31.734,0,0,0,8.273,4.818c1.027.391,1.819.67,2.363.822.539.168.811.269.811.269s-.282-.062-.827-.213c-.55-.134-1.35-.395-2.388-.77a31.076,31.076,0,0,1-8.369-4.752,29.819,29.819,0,0,1-9.161-12.067,28.379,28.379,0,0,1-.37-19.887,25.292,25.292,0,0,1,6.333-9.879,26.4,26.4,0,0,1,11.092-6.221,23.922,23.922,0,0,1,13.589.212,19.133,19.133,0,0,1,6.219,3.6,14.766,14.766,0,0,1,4.265,6.02,10.426,10.426,0,0,1-.114,7.529,12.165,12.165,0,0,1-5.212,5.7,13.8,13.8,0,0,1-7.675,1.85,17.919,17.919,0,0,1-7.714-2.334,25.779,25.779,0,0,1-10.8-12.231,31.067,31.067,0,0,1-2.252-16.7A29.548,29.548,0,0,1,293.8,165.44l1.262-1.7c.409-.575.93-1.057,1.388-1.589A27.67,27.67,0,0,1,303,157.01a32.654,32.654,0,0,1,7.617-3.023,30.8,30.8,0,0,1,15.809.234c4.979,1.486,9.645,4.206,12.585,8.338a12.088,12.088,0,0,1,2.3,7,9.343,9.343,0,0,1-2.6,6.654,9.562,9.562,0,0,1-6.443,2.6,12.812,12.812,0,0,1-6.549-1.66,20.359,20.359,0,0,1-5.133-4.034,25.057,25.057,0,0,1-3.769-5.027,28.744,28.744,0,0,1-2.881-21.814,25.972,25.972,0,0,1,4.223-8.542,28.747,28.747,0,0,1,12-9.231,27.334,27.334,0,0,1,9.393-2.057,18.465,18.465,0,0,1,2.508.043C342.626,126.52,342.912,126.554,342.912,126.554Z" transform="translate(-279.964 -126.416)"/>
        </g>
        <path id="Path_6543" data-name="Path 6543" class="cls-12" d="M0,0H153.226V118.181H0Z" transform="translate(31.458 109.486)"/>
        <g id="Group_7230" data-name="Group 7230" transform="translate(31.458 109.206)">
          <path id="Path_5931" data-name="Path 5931" class="cls-5" d="M230.753,226.6l28.3,26.4H409.682l-25.7-26.4Z" transform="translate(-230.753 -226.322)"/>
          <g id="Group_7229" data-name="Group 7229" transform="translate(0)">
            <path id="Path_5932" data-name="Path 5932" class="cls-5" d="M230.753,226.626l153.225-.279h.118l.082.085,25.443,26.122.264.271.471.484h-.675l-150.628-.114h-.068l-.049-.046-28.184-26.523L259.171,252.9l-.117-.046,150.628-.114-.2.483-.264-.272-25.436-26.128.2.084Z" transform="translate(-230.753 -226.346)"/>
          </g>
        </g>
        <g id="Group_7232" data-name="Group 7232" transform="translate(74.351 163.981)">
          <path id="Path_5933" data-name="Path 5933" class="cls-7" d="M273.132,276.468a3.137,3.137,0,1,0,.236.009" transform="translate(-270.003 -276.468)"/>
          <path id="Path_5934" data-name="Path 5934" class="cls-7" d="M306.238,276.468a3.139,3.139,0,1,0,.236.009" transform="translate(-266.929 -276.468)"/>
          <g id="Group_7231" data-name="Group 7231" transform="translate(2.508 12.431)">
            <path id="Path_5935" data-name="Path 5935" class="cls-7" d="M309.331,303.7a22.276,22.276,0,0,0-3.033-6.794,20.073,20.073,0,0,0-5.789-5.554,17.675,17.675,0,0,0-18.721-.513,20.049,20.049,0,0,0-6.085,5.228,22.292,22.292,0,0,0-3.4,6.616,1.8,1.8,0,0,1,.089-.517,11.486,11.486,0,0,1,.4-1.45,17.5,17.5,0,0,1,2.59-4.893,19.915,19.915,0,0,1,6.147-5.441,17.957,17.957,0,0,1,19.262.528,19.917,19.917,0,0,1,5.839,5.77,17.532,17.532,0,0,1,2.318,5.027,11.656,11.656,0,0,1,.321,1.471A1.818,1.818,0,0,1,309.331,303.7Z" transform="translate(-272.298 -287.843)"/>
          </g>
        </g>
        <path id="Path_5936" data-name="Path 5936" class="cls-16" d="M231.071,227.792l27.1,34.358H383.949v-9.261H259.025Z" transform="translate(-199.265 -117.006)"/>
        <g id="Group_7233" data-name="Group 7233" transform="translate(154.184 135.576)">
          <path id="Path_5937" data-name="Path 5937" class="cls-7" d="M343.339,342.3c-.157,0-.285-20.556-.285-45.909s.128-45.912.285-45.912.284,20.552.284,45.912S343.5,342.3,343.339,342.3Z" transform="translate(-343.054 -250.476)"/>
        </g>
        <rect id="Rectangle_309" data-name="Rectangle 309" class="cls-6" width="13.506" height="15.268" transform="translate(165.022 200.606)"/>
        <g id="Group_7235" data-name="Group 7235" transform="translate(0 109.486)">
          <path id="Path_5938" data-name="Path 5938" d="M233.425,226.6,201.967,253h31.458Z" transform="translate(-201.967 -226.602)"/>
        </g>
      </g>
      <g id="Group_7240" data-name="Group 7240" transform="translate(13.032 227.299)">
        <g id="Group_7238" data-name="Group 7238" transform="translate(0 0)">
          <path id="Path_6544" data-name="Path 6544" class="cls-5" d="M0,0H176.173V135.88H0Z" transform="translate(0 0.368)"/>
          <g id="Group_7237" data-name="Group 7237" transform="translate(131.75)">
            <path id="Path_5940" data-name="Path 5940" class="cls-7" d="M334.735,469.7c-.157,0-.284-30.288-.284-67.642s.127-67.647.284-67.647.284,30.281.284,67.647S334.893,469.7,334.735,469.7Z" transform="translate(-334.451 -334.408)"/>
          </g>
          <rect id="Rectangle_312" data-name="Rectangle 312" class="cls-6" width="13.506" height="15.268" transform="translate(147.73 105.32)"/>
          <rect id="Rectangle_313" data-name="Rectangle 313" class="cls-7" width="20.011" height="28.994" transform="translate(53.745 0.718)"/>
          <rect id="Rectangle_314" data-name="Rectangle 314" class="cls-7" width="20.011" height="28.994" transform="translate(53.745 106.85)"/>
        </g>
        <g id="Group_7239" data-name="Group 7239" transform="translate(0 0.082)">
          <path id="Path_5941" data-name="Path 5941" class="cls-7" d="M388.529,334.769a2.563,2.563,0,0,1-.45.028l-1.323.028-5.088.054-18.714.09-61.738.082-61.749-.082-18.712-.09-5.088-.054-1.322-.028a2.587,2.587,0,0,1-.451-.028,2.671,2.671,0,0,1,.451-.029l1.322-.028,5.088-.054,18.712-.091,61.749-.084,61.738.084,18.714.091,5.088.054,1.323.028A2.647,2.647,0,0,1,388.529,334.769Z" transform="translate(-213.892 -334.483)"/>
        </g>
      </g>
    </g>
    <g id="Speech_Bubble" data-name="Speech Bubble" transform="translate(36.134 62.8)">
      <g id="Group_7242" data-name="Group 7242">
        <g id="Group_7241" data-name="Group 7241">
          <path id="Path_5942" data-name="Path 5942" class="cls-17" d="M103.21,124.9l-19.184-4.713.142-.023a31.894,31.894,0,0,1-16.56,4.966,34.655,34.655,0,0,1-10.262-1.5,31.723,31.723,0,0,1-10-5.3,32.14,32.14,0,0,1-12.1-21.38,31.753,31.753,0,0,1,8.242-25.612,33.332,33.332,0,0,1,5.556-4.84c1.037-.64,2.06-1.306,3.129-1.869l1.632-.786.813-.39.845-.309a32.351,32.351,0,0,1,13.793-2.1,31.932,31.932,0,0,1,28.15,21.494A33.074,33.074,0,0,1,99.18,92.893a31.8,31.8,0,0,1-4.6,16.618l0-.174L103.21,124.9l-8.923-15.391-.049-.086.051-.087a31.6,31.6,0,0,0,4.427-16.438A32.723,32.723,0,0,0,96.922,82.7a31.43,31.43,0,0,0-27.7-21.048A31.809,31.809,0,0,0,55.695,63.73l-.828.3-.8.384-1.6.77c-1.047.553-2.049,1.206-3.065,1.834a32.732,32.732,0,0,0-5.446,4.746,31.5,31.5,0,0,0,3.734,46.117,31.264,31.264,0,0,0,9.813,5.247,34.276,34.276,0,0,0,10.094,1.52,31.637,31.637,0,0,0,16.374-4.8l.067-.042.074.02Z" transform="translate(-35.012 -60.971)"/>
        </g>
        <path id="Path_5943" data-name="Path 5943" class="cls-17" d="M61.961,77.489l1.014,16.024a2.6,2.6,0,0,0,2.44,2.432h0a2.6,2.6,0,0,0,2.739-2.31l1.779-16.1a2.04,2.04,0,0,0-2.056-2.264l-3.909.055A2.04,2.04,0,0,0,61.961,77.489Z" transform="translate(-32.511 -59.644)"/>
        <path id="Path_5944" data-name="Path 5944" class="cls-17" d="M69.657,102.873a3.911,3.911,0,1,1-2.48-4.945A3.911,3.911,0,0,1,69.657,102.873Z" transform="translate(-32.504 -57.559)"/>
      </g>
    </g>
  </g>
</svg>
