<?xml version="1.0" encoding="UTF-8"?>
<svg width="998px" height="451px" viewBox="0 0 998 451" version="1.1" xmlns="http://www.w3.org/2000/svg" xmlns:xlink="http://www.w3.org/1999/xlink">
    <title>empty_amenities</title>
    <g id="Page-1" stroke="none" stroke-width="1" fill="none" fill-rule="evenodd">
        <g id="empty_amenities" fill-rule="nonzero">
            <rect id="Rectangle" fill="#F2F2F2" x="871.99152" y="181.558042" width="30.15944" height="104.39806"></rect>
            <polygon id="Path" fill="#F2F2F2" points="922.068 266.317002 848.715 179.052002 701.475 180.398002 612.156 267.396002 613.961 268.556002 613.316 268.556002 613.316 449.513002 921.871 449.513002 921.871 268.556002"></polygon>
            <polygon id="Path" fill="#E6E6E6" points="848.792 179.238002 757.154 286.674002 757.154 449.513002 921.871 449.513002 921.871 266.236002"></polygon>
            <rect id="Rectangle" fill="#3F3D56" x="823.27242" y="359.460832" width="33.6394" height="29.73333"></rect>
            <rect id="Rectangle" fill="#3F3D56" x="823.27242" y="307.995682" width="33.6394" height="29.26181"></rect>
            <rect id="Rectangle" fill="#FFFFFF" x="823.27242" y="359.460832" width="33.6394" height="29.73333"></rect>
            <rect id="Rectangle" fill="#FFFFFF" x="823.27242" y="307.995682" width="33.6394" height="29.26181"></rect>
            <rect id="Rectangle" fill="#FFFFFF" x="673.77661" y="351.571282" width="33.6394" height="29.73333"></rect>
            <rect id="Rectangle" fill="#FFFFFF" x="673.77661" y="300.106132" width="33.6394" height="29.26181"></rect>
            <rect id="Rectangle" fill="#F2F2F2" x="633.99152" y="181.558042" width="30.15944" height="104.39806"></rect>
            <polygon id="Path" fill="#F2F2F2" points="684.068 266.317002 610.715 179.052002 463.475 180.398002 374.156 267.396002 375.961 268.556002 375.316 268.556002 375.316 449.513002 683.871 449.513002 683.871 268.556002"></polygon>
            <polygon id="Path" fill="#E6E6E6" points="610.792 179.238002 519.154 286.674002 519.154 449.513002 683.871 449.513002 683.871 266.236002"></polygon>
            <rect id="Rectangle" fill="#3F3D56" x="585.27242" y="359.460832" width="33.6394" height="29.73333"></rect>
            <rect id="Rectangle" fill="#3F3D56" x="585.27242" y="307.995682" width="33.6394" height="29.26181"></rect>
            <rect id="Rectangle" fill="#FFFFFF" x="585.27242" y="359.460832" width="33.6394" height="29.73333"></rect>
            <rect id="Rectangle" fill="#FFFFFF" x="585.27242" y="307.995682" width="33.6394" height="29.26181"></rect>
            <rect id="Rectangle" fill="#FFFFFF" x="435.77661" y="351.571282" width="33.6394" height="29.73333"></rect>
            <rect id="Rectangle" fill="#FFFFFF" x="435.77661" y="300.106132" width="33.6394" height="29.26181"></rect>
            <rect id="Rectangle" fill="#F2F2F2" x="380.1536" y="91.4602117" width="40.30032" height="139.50112"></rect>
            <polygon id="Path" fill="#F2F2F2" points="447.068 204.718002 349.051 88.1120017 152.302 89.9100017 32.951 206.161002 35.362 207.711002 34.501 207.711002 34.501 449.513002 446.804 449.513002 446.804 207.711002"></polygon>
            <polygon id="Path" fill="#E6E6E6" points="349.153 88.3600017 226.702 231.921002 226.702 449.513002 446.804 449.513002 446.804 204.611002"></polygon>
            <rect id="Rectangle" fill="#3F3D56" x="315.05306" y="329.181472" width="44.95039" height="39.73094"></rect>
            <rect id="Rectangle" fill="#3F3D56" x="315.05306" y="260.411562" width="44.95039" height="39.10088"></rect>
            <rect id="Rectangle" fill="#FFFFFF" x="315.05306" y="329.181472" width="44.95039" height="39.73094"></rect>
            <rect id="Rectangle" fill="#FFFFFF" x="315.05306" y="260.411562" width="44.95039" height="39.10088"></rect>
            <rect id="Rectangle" fill="#FFFFFF" x="115.29041" y="318.639122" width="44.95039" height="39.73094"></rect>
            <rect id="Rectangle" fill="#FFFFFF" x="115.29041" y="249.869202" width="44.95039" height="39.10088"></rect>
            <rect id="Rectangle" fill="#3F3D56" x="0" y="448.619972" width="963.95079" height="2"></rect>
            <ellipse id="Oval" fill="#3F3D56" cx="151.87223" cy="352.472042" rx="29.09932" ry="59.37437"></ellipse>
            <path d="M154.55943,449.658302 C142.90485,379.733042 154.44209,310.060412 154.55999,309.365372 L156.82699,309.749372 C156.70965,310.441042 145.23865,379.747622 156.82755,449.281012 L154.55943,449.658302 Z" id="Path" fill="#6C63FF"></path>
            <rect id="Rectangle" fill="#6C63FF" transform="translate(164.876974, 347.756057) rotate(-28.141600) translate(-164.876974, -347.756057) " x="149.956294" y="346.606197" width="29.84136" height="2.29972"></rect>
            <rect id="Rectangle" fill="#6C63FF" transform="translate(137.103651, 354.810356) rotate(-61.842040) translate(-137.103651, -354.810356) " x="135.953791" y="339.889161" width="2.29972" height="29.84239"></rect>
            <ellipse id="Oval" fill="#826AF9" cx="81.9552" cy="260.903422" rx="56.91484" ry="116.12927"></ellipse>
            <path d="M88.29461,450.808102 C65.53002,314.222812 88.06498,178.134942 88.29517,176.776292 L90.56217,177.160292 C90.33255,178.515572 67.86383,314.237392 90.56274,450.430812 L88.29461,450.808102 Z" id="Path" fill="#3F3D56"></path>
            <rect id="Rectangle" fill="#3F3D56" transform="translate(107.390884, 251.679139) rotate(-28.141600) translate(-107.390884, -251.679139) " x="78.2070791" y="250.529279" width="58.36761" height="2.29972"></rect>
            <rect id="Rectangle" fill="#3F3D56" transform="translate(53.069834, 265.476638) rotate(-61.842580) translate(-53.069834, -265.476638) " x="51.9199739" y="236.292833" width="2.29972" height="58.36761"></rect>
            <ellipse id="Oval" fill="#826AF9" cx="216.75351" cy="191.008002" rx="77.88347" ry="158.91374"></ellipse>
            <path d="M225.84671,450.808102 C194.70681,263.970932 225.53231,77.8159017 225.84727,75.9575917 L228.11427,76.3415917 C227.79987,78.1965317 197.04061,263.985522 228.11483,450.430812 L225.84671,450.808102 Z" id="Path" fill="#3F3D56"></path>
            <rect id="Rectangle" fill="#3F3D56" transform="translate(251.560449, 178.385062) rotate(-28.141600) translate(-251.560449, -178.385062) " x="211.624819" y="177.235202" width="79.87126" height="2.29972"></rect>
            <rect id="Rectangle" fill="#3F3D56" transform="translate(177.226330, 197.265749) rotate(-61.843290) translate(-177.226330, -197.265749) " x="176.07647" y="157.330119" width="2.29972" height="79.87126"></rect>
            <ellipse id="Oval" fill="#3F3D56" cx="871.02934" cy="352.472042" rx="29.09932" ry="59.37437"></ellipse>
            <path d="M868.34214,449.658302 C879.99673,379.733042 868.45948,310.060412 868.34158,309.365372 L866.07458,309.749372 C866.19191,310.441042 877.66291,379.747622 866.07402,449.281012 L868.34214,449.658302 Z" id="Path" fill="#6C63FF"></path>
            <rect id="Rectangle" fill="#6C63FF" transform="translate(858.024575, 347.756028) rotate(-61.858400) translate(-858.024575, -347.756028) " x="856.874715" y="332.835348" width="2.29972" height="29.84136"></rect>
            <rect id="Rectangle" fill="#6C63FF" transform="translate(885.797915, 354.810302) rotate(-28.157960) translate(-885.797915, -354.810302) " x="870.87672" y="353.660442" width="29.84239" height="2.29972"></rect>
            <ellipse id="Oval" fill="#826AF9" cx="940.94638" cy="260.903422" rx="56.91484" ry="116.12927"></ellipse>
            <path d="M934.60693,450.808102 C957.37152,314.222812 934.83655,178.134942 934.60637,176.776292 L932.33937,177.160292 C932.56899,178.515572 955.03771,314.237392 932.33881,450.430812 L934.60693,450.808102 Z" id="Path" fill="#3F3D56"></path>
            <rect id="Rectangle" fill="#3F3D56" transform="translate(915.510669, 251.679115) rotate(-61.858400) translate(-915.510669, -251.679115) " x="914.360809" y="222.49531" width="2.29972" height="58.36761"></rect>
            <rect id="Rectangle" fill="#3F3D56" transform="translate(969.831751, 265.476735) rotate(-28.157420) translate(-969.831751, -265.476735) " x="940.647946" y="264.326875" width="58.36761" height="2.29972"></rect>
            <ellipse id="Oval" fill="#826AF9" cx="806.14806" cy="191.008002" rx="77.88347" ry="158.91374"></ellipse>
            <path d="M797.05487,450.808102 C828.19477,263.970932 797.36926,77.8159017 797.05431,75.9575917 L794.78731,76.3415917 C795.10171,78.1965317 825.86096,263.985522 794.78675,450.430812 L797.05487,450.808102 Z" id="Path" fill="#3F3D56"></path>
            <rect id="Rectangle" fill="#3F3D56" transform="translate(771.341105, 178.385032) rotate(-61.858400) translate(-771.341105, -178.385032) " x="770.191245" y="138.449402" width="2.29972" height="79.87126"></rect>
            <rect id="Rectangle" fill="#3F3D56" transform="translate(845.675233, 197.265652) rotate(-28.156710) translate(-845.675233, -197.265652) " x="805.739603" y="196.115792" width="79.87126" height="2.29972"></rect>
            <path d="M589.60437,101.465912 L598.81006,94.1031117 C591.65857,93.3141117 588.72016,97.2143817 587.51758,100.301482 C581.93058,97.9814817 575.84839,101.021942 575.84839,101.021942 L594.26728,107.708642 C593.338076,105.22675 591.720557,103.061206 589.60437,101.465912 L589.60437,101.465912 Z" id="Path" fill="#3F3D56"></path>
            <path d="M364.60437,36.4659117 L373.81006,29.1031117 C366.65857,28.3141117 363.72016,32.2143817 362.51758,35.3014817 C356.93058,32.9814817 350.84839,36.0219417 350.84839,36.0219417 L369.26728,42.7086417 C368.338076,40.2267497 366.720557,38.0612056 364.60437,36.4659117 L364.60437,36.4659117 Z" id="Path" fill="#3F3D56"></path>
            <path d="M731.60437,7.46591172 L740.81006,0.103111718 C733.65857,-0.685888282 730.72016,3.21438172 729.51758,6.30148172 C723.93058,3.98148172 717.84839,7.02194172 717.84839,7.02194172 L736.26728,13.7086417 C735.338076,11.2267497 733.720557,9.06120558 731.60437,7.46591172 Z" id="Path" fill="#3F3D56"></path>
            <path d="M750.19095,437.052052 C747.743788,437.051733 745.339802,437.69666 743.2214,438.921802 C738.825909,434.946903 732.500467,433.936549 727.085464,436.34443 C721.670461,438.752311 718.183726,444.12583 718.190939,450.052052 L764.14047,450.052052 C763.620828,442.730338 757.53108,437.055109 750.19095,437.052052 L750.19095,437.052052 Z" id="Path" fill="#3F3D56"></path>
            <path d="M283.19095,437.052052 C280.743788,437.051733 278.339802,437.69666 276.2214,438.921802 C271.825909,434.946903 265.500467,433.936549 260.085464,436.34443 C254.670461,438.752311 251.183726,444.12583 251.190939,450.052052 L297.14047,450.052052 C296.620828,442.730338 290.53108,437.055109 283.19095,437.052052 L283.19095,437.052052 Z" id="Path" fill="#3F3D56"></path>
            <path d="M522.19095,437.052052 C519.743788,437.051733 517.339802,437.69666 515.2214,438.921802 C510.825909,434.946903 504.500467,433.936549 499.085464,436.34443 C493.670461,438.752311 490.183726,444.12583 490.190939,450.052052 L536.14047,450.052052 C535.620828,442.730338 529.53108,437.055109 522.19095,437.052052 L522.19095,437.052052 Z" id="Path" fill="#3F3D56"></path>
            <polygon id="Path" fill="#3F3D56" points="471.759 404.228002 339.191 404.228002 339.191 408.504002 359.866 408.504002 359.866 449.130002 364.142 449.130002 364.142 408.504002 444.669 408.504002 444.669 449.130002 448.946 449.130002 448.946 408.504002 471.759 408.504002"></polygon>
            <rect id="Rectangle" fill="#3F3D56" x="339.45191" y="391.434042" width="132.56808" height="4.27639"></rect>
            <rect id="Rectangle" fill="#3F3D56" x="339.45191" y="380.743062" width="132.56808" height="4.27639"></rect>
            <rect id="Rectangle" fill="#3F3D56" x="339.45191" y="370.052092" width="132.56808" height="4.27639"></rect>
            <polygon id="Path" fill="#3F3D56" points="678.759 404.228002 546.191 404.228002 546.191 408.504002 566.866 408.504002 566.866 449.130002 571.142 449.130002 571.142 408.504002 651.669 408.504002 651.669 449.130002 655.946 449.130002 655.946 408.504002 678.759 408.504002"></polygon>
            <rect id="Rectangle" fill="#3F3D56" x="546.45191" y="391.434042" width="132.56808" height="4.27639"></rect>
            <rect id="Rectangle" fill="#3F3D56" x="546.45191" y="380.743062" width="132.56808" height="4.27639"></rect>
            <rect id="Rectangle" fill="#3F3D56" x="546.45191" y="370.052092" width="132.56808" height="4.27639"></rect>
        </g>
    </g>
</svg>