<?xml version="1.0" encoding="UTF-8"?>
<svg width="888px" height="672px" viewBox="0 0 888 672" version="1.1" xmlns="http://www.w3.org/2000/svg" xmlns:xlink="http://www.w3.org/1999/xlink">
    <title>empty_music</title>
    <g id="Page-1" stroke="none" stroke-width="1" fill="none" fill-rule="evenodd">
        <g id="empty_music" transform="translate(0.000000, 0.127980)" fill-rule="nonzero">
            <polygon id="Path" fill="#E6E6E6" points="887.772 662.12202 252.263 671.70302 0 626.99302 393.817 626.99302"></polygon>
            <path d="M179.84034,632.3069 C179.84034,632.3069 181.32734,601.14815 211.81153,604.7699" id="Path" fill="#3F3D56"></path>
            <circle id="Oval" fill="#6C63FF" cx="171.2269" cy="587.39839" r="15.25711"></circle>
            <rect id="Rectangle" fill="#3F3D56" x="168.74434" y="613.09045" width="4.30672" height="30.14703"></rect>
            <path d="M682.28675,637.62942 C682.28675,637.62942 683.77375,606.47068 714.25794,610.09242" id="Path" fill="#3F3D56"></path>
            <circle id="Oval" fill="#6C63FF" cx="673.67331" cy="592.72092" r="15.25711"></circle>
            <rect id="Rectangle" fill="#3F3D56" x="671.19075" y="618.41297" width="4.30672" height="30.14703"></rect>
            <path d="M755.7376,642.95195 C755.7376,642.95195 757.2246,611.79321 787.7088,615.41495" id="Path" fill="#3F3D56"></path>
            <circle id="Oval" fill="#6C63FF" cx="747.12416" cy="598.04344" r="15.25711"></circle>
            <rect id="Rectangle" fill="#3F3D56" x="744.64161" y="623.7355" width="4.30672" height="30.14703"></rect>
            <path d="M300.12942,617.40382 C300.12942,617.40382 301.61642,586.24508 332.10061,589.86687" id="Path" fill="#3F3D56"></path>
            <circle id="Oval" fill="#6C63FF" cx="291.51598" cy="572.49532" r="15.25711"></circle>
            <rect id="Rectangle" fill="#3F3D56" x="289.03342" y="598.18738" width="4.30672" height="30.14703"></rect>
            <path d="M73.38983,622.72637 C73.38983,622.72637 74.87683,591.56763 105.36102,595.18937" id="Path" fill="#3F3D56"></path>
            <circle id="Oval" fill="#6C63FF" cx="64.77639" cy="577.81785" r="15.25711"></circle>
            <rect id="Rectangle" fill="#3F3D56" x="62.29383" y="603.5099" width="4.30672" height="30.14703"></rect>
            <circle id="Oval" fill="#3F3D56" cx="442.27688" cy="402.35393" r="166.22823"></circle>
            <path d="M337.62593,415.69762 C345.983501,405.692187 358.348683,399.909399 371.385465,399.909399 C384.422247,399.909399 396.787429,405.692187 405.145,415.69762 C419.597757,401.900468 424.200323,380.697127 416.768571,362.149549 C409.336819,343.601972 391.366545,331.443248 371.385465,331.443248 C351.404385,331.443248 333.434111,343.601972 326.002359,362.149549 C318.570607,380.697127 323.173173,401.900468 337.62593,415.69762 L337.62593,415.69762 Z" id="Path" fill="#FFFFFF"></path>
            <path d="M469.63071,415.69762 C477.988265,405.692186 490.353438,399.909396 503.39021,399.909396 C516.426982,399.909396 528.792155,405.692186 537.14971,415.69762 C551.602466,401.90048 556.205037,380.697149 548.773292,362.149578 C541.341547,343.602007 523.371282,331.443286 503.39021,331.443286 C483.409138,331.443286 465.438873,343.602007 458.007128,362.149578 C450.575383,380.697149 455.177954,401.90048 469.63071,415.69762 Z" id="Path" fill="#FFFFFF"></path>
            <circle id="Oval" fill="#3F3D56" cx="354.70738" cy="363.68594" r="16.81788"></circle>
            <circle id="Oval" fill="#3F3D56" cx="486.70738" cy="363.68594" r="16.81788"></circle>
            <circle id="Oval" fill="#FF6584" cx="322.49478" cy="443.91099" r="19.55626"></circle>
            <circle id="Oval" fill="#FF6584" cx="547.39179" cy="443.91099" r="19.55626"></circle>
            <polygon id="Path" fill="#FF6584" points="434.943 404.79802 420.276 468.35602 444.721 443.91102"></polygon>
            <polygon id="Path" fill="#3F3D56" points="510.307 649.25202 493.655 635.27602 494.043 649.25202 488.871 649.25202 488.458 634.47402 465.975 649.25202 456.563 649.25202 488.29 628.39802 487.061 584.60902 486.143 551.53802 491.302 551.39602 492.233 584.60902 493.461 628.35902 518.348 649.25202"></polygon>
            <polygon id="Path" fill="#3F3D56" points="432.076 649.25202 415.424 635.27602 415.812 649.25202 410.654 649.25202 410.24 634.47402 387.757 649.25202 378.345 649.25202 410.059 628.39802 408.831 584.60902 407.913 551.53802 413.084 551.39602 414.015 584.60902 415.23 628.35902 440.118 649.25202"></polygon>
            <path d="M444.72142,223.90303 C440.1603,223.90303 436.13661,227.44603 433.44649,232.88803 C431.07537,224.70488 426.09379,219.01403 420.27609,219.01403 C419.880698,219.053334 419.488403,219.11923 419.10187,219.21127 C416.86562,210.47427 411.66831,204.34683 405.60887,204.34683 C397.50837,204.34683 390.94167,215.29143 390.94167,228.79216 C390.94167,242.29289 397.50837,253.23749 405.60887,253.23749 C406.004262,253.198183 406.396557,253.132283 406.78309,253.04024 C409.01934,261.77724 414.21665,267.90468 420.27609,267.90468 C424.83721,267.90468 428.8609,264.36168 431.55102,258.91968 C433.92215,267.10284 438.90372,272.79368 444.72142,272.79368 C452.82192,272.79368 459.38862,261.84908 459.38862,248.34835 C459.38862,234.84762 452.82192,223.90303 444.72142,223.90303 Z" id="Path" fill="#3F3D56"></path>
            <path d="M237.3597,343.12044 L237.3597,343.12044 C250.326296,343.12044 262.761814,348.2714 271.930582,357.440168 C281.09935,366.608936 286.25031,379.044454 286.25031,392.01105 L286.25031,416.45648 C286.25031,443.458018 264.361238,465.34709 237.3597,465.34709 L237.3597,465.34709 L237.3597,343.12044 Z" id="Path" fill="#826AF9" transform="translate(261.805005, 404.233765) rotate(180.000000) translate(-261.805005, -404.233765) "></path>
            <path d="M598.30346,343.12045 L598.30346,343.12045 C611.270058,343.12045 623.705582,348.271385 632.87436,357.440146 C642.043138,366.608907 647.19412,379.044422 647.19412,392.01102 L647.19412,416.45645 C647.19412,429.423046 642.04316,441.858564 632.874392,451.027332 C623.705624,460.1961 611.270106,465.34706 598.30346,465.34706 L598.30346,465.34706 L598.30346,343.12045 L598.30346,343.12045 Z" id="Path" fill="#826AF9"></path>
            <path d="M623.92276,395.85251 L616.16564,395.85251 C616.16564,297.47509 536.12995,217.43877 437.7519,217.43877 C339.37448,217.43877 259.33816,297.47509 259.33816,395.85251 L251.58104,395.85251 C251.58104,293.19751 335.09696,209.68165 437.7519,209.68165 C540.40748,209.68165 623.92276,293.19756 623.92276,395.85251 Z" id="Path" fill="#826AF9"></path>
            <path d="M171.54731,246.34537 L171.5487,246.34247 L167.90439,244.82476 L152.52785,238.32449 L147.01621,235.99461 L146.59321,237.0625 L146.59321,237.0625 L139.1894,255.7565 L160.02614,264.57573 L160.13554,264.67479 L158.73138,267.98561 C158.539192,268.288441 158.375204,268.608272 158.24148,268.94108 C157.2579,271.42461 159.11566,273.89502 160.87183,274.59048 C162.628,275.28594 164.84913,273.83667 165.8327,271.35314 C166.80292,268.9034 165.85476,265.79134 164.14333,265.03941 L164.14484,265.03651 L160.50053,263.5188 L148.03377,258.67249 L155.15702,240.68715 L154.10122,240.26909 L146.97545,258.26109 L145.43391,257.6618 L152.58754,239.59957 L152.77597,239.67935 L167.43007,245.88167 L167.53935,245.98073 L166.13535,249.29155 C165.943115,249.594352 165.779128,249.914189 165.64546,250.24702 C164.66175,252.73055 166.51951,255.20096 168.27568,255.89642 C170.03185,256.59188 172.25298,255.14261 173.23655,252.65908 C174.20678,250.20937 173.25862,247.0973 171.54731,246.34537 Z" id="Path" fill="#FAFAFA"></path>
            <path d="M243.66722,292.23945 C236.10322,287.91481 237.61678,278.42445 237.61678,278.42445 C237.42646,272.25919 232.33278,273.13186 232.33278,273.13186 L230.47893,273.55496 C229.617746,273.155273 228.669459,272.979898 227.72229,273.04515 L224.90229,273.51967 C231.32366,275.02844 230.79607,280.40018 230.79607,280.40018 L231.69571,286.68118 L214.86989,279.89343 L216.80176,275.33843 C217.06877,274.917833 217.296549,274.473581 217.48222,274.01128 C218.84832,270.56182 216.26813,267.13077 213.82897,266.16483 C211.38981,265.19865 208.30497,267.21193 206.93875,270.66126 C205.59131,274.06358 206.90825,278.38596 209.28515,279.43026 L209.28315,279.43441 L214.34472,281.54223 L214.38241,281.42287 L243.66722,292.23945 Z M235.12279,281.20345 L235.66235,287.21545 C233.757214,284.542236 232.862218,281.279835 233.1366,278.0087 C233.091889,276.845133 232.699365,275.721691 232.00972,274.78346 C234.171424,276.168385 235.374023,278.648462 235.12279,281.20343 L235.12279,281.20345 Z" id="Shape" fill="#FAFAFA"></path>
            <path d="M115.31894,203.32787 L115.32094,203.32387 L110.25937,201.21593 L89.10487,192.99252 L94.4441,188.24225 C96.6144523,185.348889 100.68082,184.682737 103.66093,186.73235 L102.00407,184.26987 C102.00407,184.26987 98.88924,180.14613 94.52907,184.50922 C94.52907,184.50922 89.13426,192.46229 80.66029,190.43501 L109.60061,202.68401 L109.75248,202.82164 L107.80234,207.41991 C107.535305,207.840494 107.307522,208.284748 107.12187,208.74706 C105.75578,212.19639 108.33597,215.62744 110.77513,216.5935 C113.21429,217.55956 116.29913,215.5464 117.66535,212.09707 C119.01278,208.6947 117.69584,204.37237 115.31894,203.32787 Z" id="Path" fill="#FAFAFA"></path>
            <path d="M192.7659,176.41337 L190.81563,181.01163 C190.548678,181.432241 190.320941,181.876492 190.13529,182.33878 C188.76907,185.78811 191.34929,189.21917 193.78842,190.18523 C196.22755,191.15129 199.31254,189.13813 200.67864,185.6888 C202.0262,182.28648 200.70926,177.9641 198.33237,176.91965 L198.33437,176.91565 L193.2728,174.80771 L175.95771,168.0768 L185.85109,143.09688 L184.3848,142.51611 L174.48764,167.50536 L172.34664,166.67315 L182.28224,141.58635 L182.54402,141.69713 L202.89702,150.31151 L203.04902,150.44914 L201.09884,155.04737 C200.831914,155.467995 200.604178,155.912244 200.4185,156.37452 C199.05228,159.82398 201.6325,163.25503 204.07163,164.22109 C206.51076,165.18715 209.59575,163.17399 210.96185,159.72453 C212.30941,156.32222 210.99247,151.99984 208.61557,150.95553 L208.61757,150.95137 L203.556,148.84356 L182.87125,140.09937 L182.87125,140.09937 L182.87037,140.09899 L182.19949,139.81541 L174.54436,136.57933 L163.6737,164.02677 L192.6139,176.27577 L192.7659,176.41337 Z" id="Path" fill="#FAFAFA"></path>
            <path d="M101.05358,35.8438299 L101.05711,35.8367699 L92.34392,32.2082099 L55.9277,18.0519399 L65.11881,9.87465989 C65.11881,9.87465989 71.23252,1.39185989 80.985,7.27555989 L78.133,3.03648989 C78.133,3.03648989 72.77083,-4.06244011 65.26519,3.44837989 C65.26519,3.44837989 55.97829,17.1391999 41.39085,13.6493799 L91.20978,34.7351899 L91.4713,34.9721899 L88.11423,42.8878199 C87.6546476,43.6118963 87.2625439,44.3766554 86.94286,45.1724599 C84.59117,51.1103599 89.03277,57.0167499 93.23163,58.6797799 C97.43049,60.3428099 102.74099,56.8772199 105.0928,50.9393299 C107.41231,45.0823699 105.14531,37.6417199 101.05358,35.8438299 Z" id="Path" fill="#FAFAFA"></path>
            <path d="M127.79355,154.75747 C109.70864,144.41754 113.32761,121.72718 113.32761,121.72718 C112.87261,106.98648 100.69385,109.07312 100.69385,109.07312 L96.26144,110.08455 C94.2024391,109.128886 91.9351661,108.709548 89.67056,108.86555 L82.92806,110.00024 C98.28106,113.60762 97.01967,126.45098 97.01967,126.45098 L99.17059,141.46808 L58.94159,125.23928 L63.56052,114.34846 C64.1988657,113.342822 64.7434871,112.280673 65.18752,111.1754 C68.45385,102.92816 62.28481,94.7247799 56.45291,92.4150599 C50.62101,90.1053399 43.24543,94.9186199 39.9791,103.16574 C36.75726,111.30042 39.90588,121.63493 45.58893,124.13181 L45.58414,124.14164 L57.68591,129.18141 L57.77602,128.89607 L127.79355,154.75747 Z M107.36455,128.37137 L108.65906,142.79522 C101.06342,132.71228 102.61592,120.73289 102.61592,120.73289 C102.508872,117.950951 101.570404,115.264963 99.92167,113.02168 C108.64692,118.24306 107.36451,128.37137 107.36451,128.37137 L107.36455,128.37137 Z" id="Shape" fill="#FAFAFA"></path>
        </g>
    </g>
</svg>